<?xml version="1.0" encoding="UTF-8"?><svg id="Layer_1" xmlns="http://www.w3.org/2000/svg" width="797" height="370" viewBox="0 0 797 370"><defs><style>.cls-1{fill:#ff7bac;stroke:#000;}.cls-1,.cls-2,.cls-3{stroke-width:10px;}.cls-1,.cls-2,.cls-3,.cls-4{stroke-miterlimit:10;}.cls-2{fill:#ec1c24;stroke:#231f20;}.cls-3{fill:#f2f2f2;stroke:gray;}.cls-4{fill:#666;stroke:#666;}</style></defs><rect class="cls-3" x="5" y="5" width="787" height="360" rx="87.37" ry="87.37"/><path class="cls-1" d="m400.86,86.14s168.79-.2,314.27,0c0,0,3.71-2.68-1.07,11.57l-1.67.31c1.67-.31-106.5,59.42-130.45,167.57-1,4.51-.32,6.36-10.47,4.94-11.71-1.64-31.73,1.62-23.9-4.94,10.18-8.53-76.05-149.48-142.37-167.05l-3.99-.63s-5.25-6.45-.36-11.77Z"/><path class="cls-2" d="m212.79,133.72s-48.73-95.53-98.3-58.98c-50.64,37.34-27.03,73.72-27.03,73.72l125.33,122.87,113.04-127.79s26.13-52.77-31.95-74.83c-60.25-22.88-81.1,65-81.1,65Z"/><g><path class="cls-4" d="m204.38,326.73c-1.32.62-3.4,1.18-6.24,1.67-2.61.46-4.75.69-6.4.69-1.18,0-2.03-.18-2.55-.54-.7-.49-1.05-1.39-1.05-2.71l.35-5.82c.3-5.37.46-11.32.46-17.86,0-.5.17-.93.5-1.28s.75-.53,1.24-.53.92.18,1.26.53.5.78.5,1.28c0,6.62-.16,12.64-.47,18.07l-.23,2.67c-.09.97-.13,1.83-.11,2.58,3.06.04,6.93-.69,11.6-2.16.2-.06.39-.09.56-.09.5,0,.93.2,1.27.6.29.36.44.78.44,1.25,0,.75-.38,1.3-1.12,1.65Z"/><path class="cls-4" d="m212.78,319.47c0,.7.02,1.75.06,3.16s.06,2.45.06,3.16c0,.52-.16.94-.47,1.27s-.73.49-1.25.49-.92-.16-1.24-.49-.48-.75-.48-1.27c0-.7-.02-1.75-.06-3.16s-.06-2.45-.06-3.16c0-1.1.06-2.48.18-4.12s.18-3.02.18-4.12c0-.53.16-.96.48-1.28s.74-.49,1.24-.49.92.16,1.24.49.48.76.48,1.28c0,1.1-.06,2.48-.18,4.12s-.18,3.02-.18,4.12Zm-.79-14.27c-.56,0-1.05-.2-1.46-.6s-.62-.88-.62-1.44.21-1.04.62-1.44.9-.6,1.46-.6,1.05.2,1.45.6.61.88.61,1.44-.2,1.04-.61,1.44-.89.6-1.45.6Z"/><path class="cls-4" d="m226.83,326.54c-.04,1.08-.57,1.62-1.6,1.62-.86,0-1.48-.5-1.86-1.51l-2.69-7.14-3.13-8.07c-.12-.3-.18-.57-.18-.81,0-.48.18-.89.54-1.23s.79-.51,1.27-.51c.7,0,1.21.36,1.51,1.07l4.46,12.29c.88-1.88,1.99-4.59,3.32-8.16.32-.94.81-2.26,1.49-3.97.36-.75.88-1.12,1.55-1.12.48,0,.9.17,1.27.51s.54.74.54,1.21-.97,2.95-2.9,7.52l-3.6,8.3Z"/></g><g><path class="cls-4" d="m531.08,317.59c-.33,0-1.04-.08-2.14-.23-.09,1.77-.14,4.87-.14,9.3,0,.47-.15.86-.46,1.19s-.69.48-1.14.48-.86-.16-1.16-.48-.46-.72-.46-1.19v-5.17c0-1.72.11-4.15.32-7.28.23-3.39.36-5.81.39-7.28v-2.43c0-1.16.07-2,.21-2.53.27-1.03.84-1.48,1.72-1.34.38-.12.91-.21,1.6-.26s1.54-.09,2.55-.09c2.14,0,4.15.73,6.03,2.2,2.06,1.62,3.09,3.56,3.09,5.84,0,2.91-1.1,5.22-3.3,6.94-1.97,1.55-4.34,2.32-7.1,2.32Zm.88-13.96c-.52,0-.98.01-1.38.04s-.75.06-1.03.11l-.04,3.23-.37,7,1.93.23c1.97,0,3.63-.5,4.97-1.49,1.48-1.09,2.21-2.56,2.21-4.41,0-1.31-.7-2.44-2.11-3.39-1.3-.87-2.7-1.3-4.2-1.3Z"/><path class="cls-4" d="m551.59,328.95c-1.97,0-3.66-.73-5.08-2.18-1.58-1.62-2.41-3.79-2.5-6.52-.07-2.65.6-4.98,2-7,1.64-2.38,3.93-3.57,6.86-3.57,2.34,0,4.12,1.07,5.33,3.22.96,1.73,1.42,3.82,1.39,6.26-.04,2.6-.71,4.82-2.04,6.66-1.5,2.09-3.49,3.13-5.96,3.13Zm1.05-15.7c-1.72-.01-3.06.81-4.03,2.46-.76,1.32-1.14,2.84-1.14,4.54s.46,3.02,1.39,3.97c.77.79,1.68,1.18,2.72,1.18,1.22,0,2.27-.45,3.15-1.34,1-.98,1.52-2.31,1.58-3.99.16-4.54-1.06-6.81-3.67-6.82Z"/><path class="cls-4" d="m568.08,319.93c0,.7.02,1.75.06,3.16s.06,2.45.06,3.16c0,.52-.16.94-.47,1.27s-.73.49-1.25.49-.92-.16-1.24-.49-.48-.75-.48-1.27c0-.7-.02-1.75-.06-3.16s-.06-2.45-.06-3.16c0-1.1.06-2.48.18-4.12s.18-3.02.18-4.12c0-.53.16-.96.48-1.28s.74-.49,1.24-.49.92.16,1.24.49.48.76.48,1.28c0,1.1-.06,2.48-.18,4.12s-.18,3.02-.18,4.12Zm-.79-14.27c-.56,0-1.05-.2-1.46-.6s-.62-.88-.62-1.44.21-1.04.62-1.44.9-.6,1.46-.6,1.05.2,1.45.6.61.88.61,1.44-.2,1.04-.61,1.44-.89.6-1.45.6Z"/><path class="cls-4" d="m587.5,329.16c-1.01,0-1.58-.55-1.71-1.65l-.49-3.85c-.16-1.37-.25-2.65-.25-3.85,0-.33.02-.88.06-1.67s.06-1.34.06-1.67c0-2.53-.47-3.8-1.41-3.8-1.31,0-2.57.78-3.76,2.34-1.08,1.42-1.92,3.21-2.53,5.38-.02.46-.08,1.03-.16,1.72-.07.59-.11,1.15-.11,1.71,0,.35.04.88.11,1.58s.11,1.23.11,1.58c0,.53-.16.96-.48,1.28s-.74.49-1.24.49-.93-.16-1.25-.49-.47-.76-.47-1.28c0-.35-.04-.88-.11-1.58s-.11-1.23-.11-1.58c0-1.21.08-2.88.25-5.02s.25-3.81.25-5.02c0-.38-.02-.93-.06-1.67s-.06-1.29-.06-1.67c0-.5.17-.92.5-1.24s.75-.48,1.24-.48c1.08,0,1.67.76,1.78,2.29l.05,2.06c1.97-2.62,3.99-3.94,6.06-3.94,1.88,0,3.18.83,3.92,2.48.5,1.1.78,2.73.83,4.89v1.78l-.02,1.63c0,.97.13,2.23.38,3.77s.38,2.79.38,3.75c0,.52-.17.93-.5,1.26s-.75.48-1.26.48Z"/><path class="cls-4" d="m604.62,312.93c-.25,0-.54-.01-.87-.04s-.62-.04-.87-.04c-.27,0-1.07.09-2.39.26l.33,10.39.02.77.02.9c.05,2.57-.57,3.85-1.85,3.85-.47,0-.88-.15-1.22-.46s-.52-.69-.52-1.14.02-1.11.05-2,.05-1.56.05-2l-.35-10.27c-.86-.04-2.16-.13-3.9-.3-1.04-.14-1.56-.72-1.56-1.74,0-.52.16-.94.47-1.28s.72-.51,1.21-.51l3.69.3c0-.6-.03-1.4-.08-2.4s-.08-1.73-.08-2.17c0-.49.17-.9.51-1.22s.76-.48,1.25-.48c1.05,0,1.67.86,1.85,2.58.04.43.05.96.05,1.56l-.04,1.02-.02,1.09c1.45-.19,2.29-.28,2.5-.28,1.22,0,2.02.06,2.39.18.71.23,1.07.79,1.07,1.65,0,.52-.16.94-.48,1.27s-.74.5-1.24.5Z"/></g></svg>