<?xml version="1.0" encoding="UTF-8"?><svg id="Layer_1" xmlns="http://www.w3.org/2000/svg" width="3cm" height="4.5cm" viewBox="0 0 85.04 127.56"><defs><style>.cls-1,.cls-2,.cls-3,.cls-4{stroke-width:.5px;}.cls-1,.cls-2,.cls-3,.cls-4,.cls-5,.cls-6,.cls-7,.cls-8,.cls-9,.cls-10,.cls-11,.cls-12,.cls-13,.cls-14{stroke-miterlimit:10;}.cls-1,.cls-2,.cls-3,.cls-9,.cls-12{stroke:#231f20;}.cls-1,.cls-7{fill:#fff;}.cls-2{fill:#74625e;}.cls-3{fill:#414042;}.cls-4{fill:#b46c7d;stroke:#b46c7d;}.cls-5,.cls-6{fill:#ffe3bf;}.cls-5,.cls-8,.cls-13{stroke:#414042;}.cls-6{stroke:#c49a6c;}.cls-7{stroke:#fff;}.cls-8{fill:#58595b;}.cls-9{fill:#231f20;}.cls-10{fill:#3c2415;}.cls-10,.cls-14{stroke:#3c2415;}.cls-11{fill:#f59aaa;stroke:#f59aaa;}.cls-12{stroke-width:4px;}.cls-12,.cls-13,.cls-14{fill:none;}</style></defs><circle class="cls-6" cx="43.07" cy="39.95" r="34.75"/><path class="cls-6" d="m25.41,70.81s0,0,0,0c-1.44-3.05-22.3,15.16-17.32,25.38,3.58,7.35,16.31-11.71,16.31-11.71,1.21-3.51-6.98,10.73-3.13,19.09,2.03,4.41,2.85,5.27,5.15,6.01,0,0,3.65.01,3.64.01-.18.17-6.51,14.96.72,16,7.43,1.07,8.07-14.09,8.05-14.46,0,0,.53.27.53.27.23.08,3.51,1.4,5.58-.54,0,0,.01-.01.02,0,.03.48.87,14.97,7.63,14.19,7.56-.87,1.53-15.4,1.53-15.4,0,0,0,0,0,0,.24.1,4.43,1.01,6.62-1.33,3.82-4.08,1.2-22.55-.44-24.4,0,0,12.3,16.06,16.85,13.14,7.82-5.03-13.92-28.21-15.91-27,0,0,0,0,0,0-4.78,4.14-23.26,7.11-35.8.73Z"/><path class="cls-8" d="m10.69,24.42s-2.37,3.66-2.91,6.47c-.54,2.8,70.03,0,70.03,0,0,0,.11-4.27-2.67-6.47-2.2-1.74-64.45,0-64.45,0Z"/><path class="cls-13" d="m15.89,31.59s-1.41-3.47.77-7.06"/><path class="cls-13" d="m25.36,24.52s-1.47,5.36,0,7.06"/><path class="cls-13" d="m34.01,24.17s-1.24,4.59,0,7.41"/><line class="cls-5" x1="43.49" y1="24.17" x2="43.72" y2="31.59"/><path class="cls-5" d="m52.02,24.17s1.24,4.77.65,7"/><path class="cls-13" d="m59.79,24.17s2.71,2.71,1.65,7"/><path class="cls-13" d="m70.21,24.17s3.06,2.24.94,6.47"/><path class="cls-8" d="m11.47,23.65c-4.12.63,30.45-43.69,62.9-.33l-62.9.33Z"/><ellipse class="cls-8" cx="42.44" cy="3.64" rx="5.81" ry="1.74"/><ellipse class="cls-11" cx="28.36" cy="49.23" rx="2.68" ry="1.66"/><ellipse class="cls-11" cx="58.05" cy="49.28" rx="2.68" ry="1.66"/><ellipse class="cls-10" cx="30.71" cy="45.41" rx="2.02" ry="2.74"/><ellipse class="cls-10" cx="56.04" cy="45.46" rx="2.02" ry="2.74"/><ellipse class="cls-7" cx="32.25" cy="45.41" rx=".47" ry="1.37"/><ellipse class="cls-7" cx="57.58" cy="45.46" rx=".47" ry="1.37"/><path class="cls-2" d="m40,62.72s.08.19.22.5c1.46,3.1,10.05,18.68,23.81-8.58,0,0-13.4,10.95-24.04,8.08Z"/><path class="cls-1" d="m42.29,66.49s12.12,1.2,18.61-6.21l2.3-4.66c1.14-.48-11.84,9.71-22.7,7.45,0,0,.45,1.14,1.78,3.42Z"/><path class="cls-4" d="m45.32,68.88s4.56-3.1,8.48-.85c0,0-4.24,3.69-8.48.85Z"/><path class="cls-14" d="m24.69,40.91s1.81-5.95,8.03,0"/><path class="cls-14" d="m60.74,40.91s-1.57-5.45-7.91.4"/><path class="cls-1" d="m8.32,86.52s.07,5.53,9.27,7.22c0,0,10.11-12.53,9.08-13.6,0,0-10.02,16.45-7.69,20.38,2.35,3.97,45.93,2.35,45.06,0-.39-1.05.93-8.78-5.54-20,0,0,4.01,10.27,9.99,13.73,0,0,9.03-1.7,9.73-6.5,0,0-8.83-14.51-17-17.68-1.46.33-18.08,18.66-38.31-.05,0,0-14.26,10.76-14.59,16.48Z"/><path class="cls-9" d="m9.43,84.71s1.31,4.67,9.12,7.18l1.07-1.46s-6.98-2.96-8.98-7.93l-1.2,2.21Z"/><path class="cls-9" d="m12.24,80.56s4.98,6.09,9.75,6.9l1.38-2.19s-6.75-2.48-9.1-6.6l-2.03,1.89Z"/><path class="cls-9" d="m16.61,75.62s2.87,5.37,8.14,6.68l1.37-2.11c.05-.08-4.14-1.67-7.12-6.58l-2.39,2.01Z"/><path class="cls-9" d="m19.27,98.65s23.49,5.45,44.52-.1l-.45-3.04s-23.95,4.78-43.51-.21l-.57,3.35Z"/><path class="cls-9" d="m21.14,91.89s17.31,6.14,41.49-.53l-.72-2.52s-21.92,6.87-39.62-.54l-1.16,3.59Z"/><path class="cls-9" d="m20.82,72.28s19.17,23.02,42.21-.73c0,0-.99-1.39-1.73-.88-10.87,7.45-20.92,14.31-38.62,0l-1.85,1.61Z"/><path class="cls-9" d="m24.15,85.03s19.35,7.5,35.47-.83l-1.38-3.68s-15.43,9.29-31.52.95l-2.57,3.56Z"/><path class="cls-9" d="m66.98,92.67s4.84.31,9.8-6.22l-1.03-1.49s-5.11,5.61-10.45,5.85l1.68,1.87Z"/><path class="cls-9" d="m63.66,88.66s7.48-2.45,9.95-6.6l-1.55-2.08s-5.47,5.17-10.16,5.88l1.75,2.8Z"/><path class="cls-9" d="m60.28,83.94s6.44-3.25,7.98-8.46l-2.06-1.87c-.08-.06-1.84,4.47-6.87,7.25l.95,3.08Z"/><path class="cls-3" d="m20.2,103.16s19.77,3.72,42.67,0c0,0-.86,8.55-6.11,8.07,0,0,.13,3.14-.05,5.08-.3,3.45-6.72,3.34-10.23,2.69-.79-.15-1.4-.77-1.56-1.56-.33-1.65-.85-4.48-.78-5.53,0,0-2.54,1.46-5.01-.26,0,0-.31,6.19-1.26,7.37s-10.36-.03-11.1-1.5c-.47-.94.39-7.25.39-7.25,0,0-4.77.95-6.96-7.11Z"/><path class="cls-12" d="m8.35,41.3s2.75,1.72,8.3,0c0,0,12.05-12.17,19.36-.89,1.38,2.94,9.86,3.78,12.1-.04,2.09-3.57,14.91-8.79,17.18,2.3,0,0,5.32,2.1,11.1,0,0,0,.69,1.77-.12,3.89,0,0-8.03,1.51-11.81.02,0,0-7.28,14.56-17.33-1.85-.82-1.28-8.07-.72-9.74.74-.04,0-10.21,17.62-19.6-.74,0,0-5.24,2.68-9.48-.06,0,0-1.37-.8.03-3.36Z"/></svg>