<?xml version="1.0" encoding="UTF-8"?><svg id="Layer_1" xmlns="http://www.w3.org/2000/svg" width="1914" height="1069.76" viewBox="0 0 1914 1069.76"><defs><style>.cls-1,.cls-2,.cls-3,.cls-4,.cls-5,.cls-6,.cls-7,.cls-8,.cls-9,.cls-10,.cls-11,.cls-12,.cls-13,.cls-14,.cls-15,.cls-16,.cls-17,.cls-18,.cls-19,.cls-20,.cls-21{isolation:isolate;}.cls-1,.cls-2,.cls-3,.cls-5,.cls-7,.cls-8,.cls-11,.cls-12,.cls-17,.cls-20{stroke:#913995;}.cls-1,.cls-2,.cls-3,.cls-5,.cls-7,.cls-8,.cls-17,.cls-20{fill:#fad5e5;}.cls-1,.cls-2,.cls-22,.cls-23,.cls-4,.cls-24,.cls-25,.cls-26,.cls-27,.cls-28,.cls-29,.cls-30,.cls-31,.cls-32,.cls-33,.cls-34,.cls-35,.cls-36,.cls-37,.cls-38,.cls-39,.cls-40,.cls-41,.cls-42,.cls-43,.cls-44,.cls-45,.cls-46,.cls-47,.cls-48,.cls-49,.cls-50,.cls-51,.cls-52,.cls-53,.cls-54,.cls-55,.cls-56,.cls-57,.cls-5,.cls-7,.cls-58,.cls-8,.cls-9,.cls-10,.cls-12,.cls-13,.cls-14,.cls-15,.cls-16,.cls-17,.cls-18,.cls-59,.cls-60,.cls-61,.cls-62,.cls-63,.cls-64,.cls-65,.cls-20,.cls-66,.cls-67,.cls-68,.cls-21{stroke-miterlimit:10;}.cls-1,.cls-2,.cls-49,.cls-5,.cls-7,.cls-8,.cls-9,.cls-10,.cls-12,.cls-13,.cls-14,.cls-15,.cls-16,.cls-17,.cls-18,.cls-20,.cls-66,.cls-21{stroke-width:.25px;}.cls-1,.cls-15{opacity:.79;}.cls-2,.cls-3,.cls-21{opacity:.74;}.cls-3{stroke-miterlimit:10;stroke-width:.25px;}.cls-22{stroke-width:2px;}.cls-22,.cls-46{fill:#58595b;}.cls-22,.cls-46,.cls-61{stroke:#414042;}.cls-69{fill:#999;stroke:#000;stroke-miterlimit:10;stroke-width:4px;}.cls-23{stroke-width:5px;}.cls-23,.cls-26,.cls-27,.cls-39,.cls-40,.cls-48,.cls-50,.cls-53,.cls-58,.cls-59,.cls-67{stroke:#231f20;}.cls-23,.cls-53,.cls-55,.cls-56,.cls-58,.cls-61,.cls-62,.cls-63,.cls-64,.cls-65,.cls-66,.cls-67,.cls-68{fill:none;}.cls-4{opacity:.67;}.cls-4,.cls-24{fill:#a5304f;stroke:#470027;}.cls-4,.cls-24,.cls-25,.cls-26,.cls-27,.cls-50,.cls-51,.cls-52,.cls-67,.cls-68{stroke-width:.5px;}.cls-25{fill:#741833;stroke:#4f072f;}.cls-26,.cls-48{fill:#231f20;}.cls-27{fill:#414042;}.cls-28{fill:#3c2415;}.cls-28,.cls-29,.cls-30,.cls-31,.cls-32,.cls-33,.cls-34,.cls-35,.cls-36,.cls-37,.cls-38,.cls-39,.cls-40,.cls-41,.cls-42,.cls-43,.cls-44,.cls-45,.cls-46,.cls-47,.cls-48,.cls-54,.cls-57,.cls-61,.cls-62,.cls-63,.cls-64,.cls-65{stroke-width:1px;}.cls-28,.cls-64{stroke:#3c2415;}.cls-29{fill:#987954;stroke:#937551;}.cls-30{stroke:#6d6e71;}.cls-30,.cls-37,.cls-40{fill:#f1f2f2;}.cls-31{fill:#fcd5ce;}.cls-31,.cls-63{stroke:#8a606b;}.cls-32{fill:#00aeef;}.cls-32,.cls-33{stroke:#00aeef;}.cls-33{fill:#00b0f0;}.cls-34{fill:#eac59e;stroke:#eac59e;}.cls-35{stroke:#ba9266;}.cls-35,.cls-43,.cls-51,.cls-52{fill:#ffe3bf;}.cls-36{stroke:#fff;}.cls-36,.cls-39,.cls-42,.cls-50{fill:#fff;}.cls-37{stroke:#e6e7e8;}.cls-38{fill:#f0caa2;stroke:#f0caa2;}.cls-41{fill:#f06ca8;stroke:#f06ca8;}.cls-42,.cls-66{stroke:#bcbec0;}.cls-43,.cls-52,.cls-65{stroke:#c49a6c;}.cls-44{fill:#cbac8a;stroke:#cbac8a;}.cls-45{fill:#dcb995;stroke:#dcb995;}.cls-47{fill:#956b4e;stroke:#977853;}.cls-49{fill:#601734;stroke:#4c4b4c;}.cls-51{stroke:#dbb38a;}.cls-53,.cls-55,.cls-56,.cls-59,.cls-60{stroke-width:.75px;}.cls-54{fill:#f7a59a;stroke:#f7a59a;}.cls-55,.cls-60{stroke:#b2b7ba;}.cls-56{stroke:#6e767e;}.cls-57{fill:#f59aaa;stroke:#f59aaa;}.cls-5,.cls-16{opacity:.77;}.cls-6{fill:#8ab8ff;opacity:.8;}.cls-7,.cls-18,.cls-19{opacity:.78;}.cls-58{stroke-width:20px;}.cls-8,.cls-13{opacity:.82;}.cls-9{fill:#fee7e2;}.cls-9,.cls-10,.cls-11,.cls-12,.cls-17{opacity:.76;}.cls-9,.cls-10,.cls-13,.cls-14,.cls-15,.cls-16,.cls-18,.cls-19,.cls-21{stroke:#f04925;}.cls-10,.cls-13,.cls-14,.cls-15,.cls-16,.cls-18,.cls-19,.cls-21{fill:#fbd0c9;}.cls-11{stroke-miterlimit:10;stroke-width:.25px;}.cls-11,.cls-12{fill:#fdeff5;}.cls-14,.cls-20{opacity:.72;}.cls-19{stroke-miterlimit:10;stroke-width:.25px;}.cls-59{fill:#eb4498;}.cls-60{fill:#efecea;}.cls-62{stroke:#fed5aa;}.cls-68{stroke:#ea9c93;}</style></defs><polygon class="cls-4" points="2.82 1069.51 1912.82 1068.59 1912.82 906.03 776.48 756.11 2.82 907.88 2.82 1069.51"/><polygon class="cls-49" points="1913.49 37.94 785.75 165.92 .51 39.75 .51 .12 1913.49 .12 1913.49 37.94"/><polygon class="cls-24" points="785.75 165.92 777.62 758.33 1913.49 911.03 1913.49 37.94 785.75 165.92"/><polygon class="cls-25" points=".51 39.75 3.5 912.88 777.16 761.11 785.75 167.78 .51 39.75"/><g><ellipse class="cls-60" cx="951.13" cy="345.45" rx="167.44" ry="171.86"/><path class="cls-56" d="m932.81,3.58s17.65,6.95,0,12c-17.65,5.05-8.13,11.83,0,12.25,8.13.42,14.82,14.36-1.05,16.47-15.88,2.11-9.81,14.36.38,14.36s17.65,8.84,5.43,12.68c-12.21,3.83-17.35,8.84-4.59,14.36,12.76,5.52,20.89,5.05,4.59,13.52-16.3,8.46-12.55,8-3.24,14.36s10.7,8.84,3.24,13.94-12.55,9.73-3.24,13.52c9.31,3.79,12.21,5.9,7.2,13.43-5.01,7.5-13.22,6.65-2.06,14.44,11.16,7.79-1.47-19.08-1.47-19.08,0,0-12.97-6.19.25-15.67,13.22-9.48-2.27-13.31-2.27-13.31,0,0-14.99-3.16-2.78-12.84,12.21-9.64,1.18-12.34,1.18-12.34,0,0-9.01-6.49,0-12.97,9.01-6.49,0-13.94,0-13.94,0,0-14.91-8.72-1.94-13.94,12.97-5.22-1.26-14.28-1.26-14.28,0,0-14.74-5.56,1.26-16.8,16-11.24-10.74-8.13-1.26-11.08l1.73-9.01-.08-.08Z"/><path class="cls-55" d="m832.66,228.55s-65.86,86.54-18.45,205.85"/><path class="cls-55" d="m846.94,215.2s-67.97,97.32-24.76,232.55"/><path class="cls-55" d="m1050.68,476.89c15.71-145.42-11.83-274.07-11.83-274.07-127.39-9.39-179.82,2.82-179.82,2.82,0,0-71.26,120.86-26.36,256.34,0,0,99.77,20.47,237.9,3.96"/><path class="cls-55" d="m868.5,199.57s-66.67,134.17-24.34,271.92"/><path class="cls-55" d="m854.06,480.38c-34.07-148.95,23.5-286.33,23.5-286.33,0,0,70.12-5.22,142.3,0,0,0,31.12,145.21,9.73,299.26"/><path class="cls-55" d="m887.2,189.55s-54.54,133.16-21.65,299.47"/><path class="cls-55" d="m896.97,185.63s-47.67,145.8-19.46,311.13"/><path class="cls-55" d="m909.43,181.08s-39.8,168.03-19.71,320.65"/><path class="cls-55" d="m924.34,178.18s-41.57,174.01-20.51,329.32"/><path class="cls-55" d="m934.32,176.33s-25.14,312.23-17.56,334.38"/><path class="cls-55" d="m946.62,176.33s-12.3,300.52-14.66,336.1"/><path class="cls-55" d="m963.63,176.33s-10.4,300.52-12.55,340.99"/><path class="cls-55" d="m974.2,178.18s10.36,151.1-6.78,334.25"/><path class="cls-55" d="m988.56,181.08s21.48,158.22-1.26,329.62"/><path class="cls-55" d="m1055.15,213.18s32.55,128.23,15.37,252.72"/><path class="cls-55" d="m1070.56,228.55s35.96,86.04,21.56,201.51"/><path class="cls-55" d="m1085.76,247.46s26.24,50.33,22.4,142.68"/><path class="cls-55" d="m882.78,189.55s48.43-10.7,121.83-3.92c0,0,28.26,158.09,3.79,318.12"/><path class="cls-55" d="m843.27,215.2s164.91-16.05,212.97,2.27"/><path class="cls-55" d="m830.09,229.94s140.78-27.08,245.48,3.41"/><path class="cls-55" d="m817.84,242.61s152.32-32.89,265.19,1.39"/><path class="cls-55" d="m807.81,257.01s154.47-45.23,285.32,2.74"/><path class="cls-55" d="m801.46,274.24s132.91-51.71,295.68-3.45"/><path class="cls-55" d="m797.03,285.36s154.09-47.63,307.26,0"/><path class="cls-55" d="m792.57,298.29s173.34-46.07,318.46,6.82"/><path class="cls-55" d="m789.45,311.76s170.94-42.11,324.31,7.03"/><path class="cls-55" d="m787.47,325.57s179.99-37.52,327.93,5.9"/><path class="cls-55" d="m785.49,338.04s178.14-25.02,329.87,3.37"/><path class="cls-55" d="m785.49,350.76s195.28-12.72,329.87,5.22"/><path class="cls-55" d="m785.49,365.67s178.14-3.66,328.23,6.27"/><path class="cls-55" d="m789.2,378.97s126.13,5.64,321.91,9.43"/><path class="cls-55" d="m793.62,395.99s163.78,23.5,314.16,10.19"/><path class="cls-55" d="m803.52,421.63s153.88,20.72,291.97,5.6"/><path class="cls-55" d="m814.85,439.15s140.45,26.66,272.18,6.7"/><path class="cls-55" d="m849.3,481.86s108.1,21.9,204.46-5.01"/><path class="cls-55" d="m878.73,501.73s104.27,11.92,133.33,2.02"/><path class="cls-9" d="m714.58,208.08l-7.24,12.84c-.97,1.68-3.07,2.27-4.72,1.31l-6.99-4.13c-1.64-.97-2.23-3.16-1.26-4.84l7.24-12.84c.97-1.68,3.07-2.27,4.72-1.31l6.99,4.13c1.64.97,2.23,3.16,1.26,4.84Z"/><path class="cls-14" d="m781.87,267.5l-2.27,4.04c-1.26,2.23-4,2.99-6.15,1.68l-2.06-1.22c-2.15-1.26-2.91-4.13-1.64-6.32l2.27-4.04c1.26-2.23,4-2.99,6.15-1.68l2.06,1.22c2.15,1.26,2.91,4.13,1.64,6.32Z"/><path class="cls-16" d="m766.33,376.7l.67,4.63c.38,2.53-1.35,4.89-3.79,5.26l-2.36.38c-2.48.38-4.76-1.35-5.14-3.92l-.67-4.63c-.38-2.53,1.35-4.89,3.79-5.26l2.36-.38c2.48-.38,4.76,1.35,5.14,3.92Z"/><path class="cls-16" d="m791.98,247.96l-2.61,3.83c-1.43,2.11-4.25,2.61-6.27,1.18l-1.94-1.39c-2.06-1.47-2.57-4.34-1.14-6.44l2.61-3.83c1.43-2.11,4.25-2.61,6.27-1.18l1.94,1.39c2.06,1.47,2.57,4.34,1.14,6.44Z"/><path class="cls-13" d="m803.69,229.64l-2.99,3.5c-1.64,1.94-4.51,2.11-6.36.42l-1.77-1.6c-1.85-1.68-2.06-4.63-.42-6.53l2.99-3.5c1.64-1.94,4.51-2.11,6.36-.42l1.77,1.6c1.85,1.68,2.06,4.63.42,6.53Z"/><path class="cls-16" d="m820.49,213.13l-3.2,3.28c-1.77,1.81-4.63,1.81-6.4,0l-1.68-1.73c-1.77-1.81-1.77-4.76,0-6.57l3.2-3.28c1.77-1.81,4.63-1.81,6.4,0l1.68,1.73c1.77,1.81,1.77,4.76,0,6.57Z"/><path class="cls-10" d="m837.97,198.06l-3.58,2.86c-1.98,1.56-4.8,1.18-6.32-.84l-1.47-1.94c-1.52-2.02-1.18-4.93.8-6.49l3.58-2.86c1.98-1.56,4.8-1.18,6.32.84l1.47,1.94c1.52,2.02,1.18,4.93-.8,6.49Z"/><path class="cls-18" d="m855.11,184.54l-3.75,2.65c-2.06,1.47-4.84.97-6.27-1.14l-1.35-2.02c-1.43-2.11-.93-4.97,1.14-6.44l3.75-2.65c2.06-1.47,4.84-.97,6.27,1.14l1.35,2.02c1.43,2.11.93,4.97-1.14,6.44Z"/><path class="cls-16" d="m873.47,174.52l-4.13,2.02c-2.23,1.09-4.93.13-6.02-2.19l-1.01-2.19c-1.09-2.32-.13-5.05,2.11-6.19l4.13-2.02c2.23-1.09,4.93-.13,6.02,2.19l1.01,2.19c1.09,2.32.13,5.05-2.11,6.19Z"/><path class="cls-18" d="m895.07,164.91l-4.38,1.26c-2.4.72-4.89-.72-5.56-3.2l-.63-2.36c-.67-2.44.72-5.01,3.12-5.73l4.38-1.26c2.4-.72,4.89.72,5.56,3.2l.63,2.36c.67,2.44-.72,5.01-3.12,5.73Z"/><path class="cls-21" d="m918.19,160.49l-4.55.46c-2.48.25-4.67-1.6-4.93-4.17l-.21-2.44c-.25-2.53,1.56-4.8,4.04-5.05l4.55-.46c2.48-.25,4.67,1.6,4.93,4.17l.21,2.44c.25,2.53-1.56,4.8-4.04,5.05Z"/><path class="cls-15" d="m962.2,158.43l-4.55-.25c-2.48-.17-4.38-2.36-4.25-4.89l.13-2.44c.13-2.57,2.27-4.51,4.76-4.34l4.55.25c2.48.17,4.38,2.36,4.25,4.89l-.13,2.44c-.13,2.57-2.27,4.51-4.76,4.34Z"/><path class="cls-10" d="m989.24,160.87l-4.55-.25c-2.48-.17-4.38-2.36-4.25-4.89l.13-2.44c.13-2.57,2.27-4.51,4.76-4.34l4.55.25c2.48.17,4.38,2.36,4.25,4.89l-.13,2.44c-.13,2.57-2.27,4.51-4.76,4.34Z"/><path class="cls-21" d="m1012.78,167.82l-4.38-1.26c-2.4-.72-3.79-3.24-3.12-5.73l.63-2.36c.67-2.44,3.16-3.87,5.56-3.2l4.38,1.26c2.4.72,3.79,3.24,3.12,5.73l-.63,2.36c-.67,2.44-3.16,3.87-5.56,3.2Z"/><path class="cls-16" d="m1032.36,176.49l-3.96-2.36c-2.15-1.26-2.91-4.13-1.64-6.32l1.18-2.11c1.26-2.23,4-2.99,6.15-1.68l3.96,2.36c2.15,1.26,2.91,4.13,1.64,6.32l-1.18,2.11c-1.26,2.23-4,2.99-6.15,1.68Z"/><path class="cls-16" d="m1111.24,259.2l-1.98-4.21c-1.09-2.32-.13-5.05,2.11-6.19l2.15-1.05c2.23-1.09,4.93-.13,6.02,2.19l1.98,4.21c1.09,2.32.13,5.05-2.11,6.19l-2.15,1.05c-2.23,1.09-4.93.13-6.02-2.19Z"/><path class="cls-16" d="m1107.7,228.34l2.61,3.83c1.43,2.11.93,4.97-1.14,6.44l-1.94,1.39c-2.06,1.47-4.84.97-6.27-1.14l-2.61-3.83c-1.43-2.11-.93-4.97,1.14-6.44l1.94-1.39c2.06-1.47,4.84-.97,6.27,1.14Z"/><path class="cls-16" d="m1087.7,220.71l-2.91-3.58c-1.6-1.98-1.35-4.89.59-6.53l1.81-1.56c1.9-1.64,4.76-1.39,6.36.59l2.91,3.58c1.6,1.98,1.35,4.89-.59,6.53l-1.81,1.56c-1.9,1.64-4.76,1.39-6.36-.59Z"/><path class="cls-16" d="m1073.13,204.75l-3.2-3.28c-1.77-1.81-1.77-4.76,0-6.57l1.68-1.73c1.77-1.81,4.63-1.81,6.4,0l3.2,3.28c1.77,1.81,1.77,4.76,0,6.57l-1.68,1.73c-1.77,1.81-4.63,1.81-6.4,0Z"/><path class="cls-16" d="m1054.26,190.14l-3.75-2.65c-2.06-1.47-2.57-4.34-1.14-6.44l1.35-2.02c1.43-2.11,4.25-2.61,6.27-1.18l3.75,2.65c2.06,1.47,2.57,4.34,1.14,6.44l-1.35,2.02c-1.43,2.11-4.25,2.61-6.27,1.18Z"/><path class="cls-14" d="m1136.59,294.12l1.05,4.55c.59,2.48-.93,4.97-3.37,5.56l-2.32.55c-2.44.59-4.84-.97-5.43-3.45l-1.05-4.55c-.59-2.48.93-4.97,3.37-5.56l2.32-.55c2.44-.59,4.84.97,5.43,3.45Z"/><rect class="cls-14" x="1133.26" y="337.41" width="11.41" height="13.94" rx="1.9" ry="1.9"/><path class="cls-14" d="m1142.36,318.12l.42,4.67c.21,2.53-1.6,4.8-4.08,5.05l-2.36.21c-2.48.25-4.67-1.64-4.89-4.17l-.42-4.67c-.21-2.53,1.6-4.8,4.08-5.05l2.36-.21c2.48-.25,4.67,1.64,4.89,4.17Z"/><path class="cls-14" d="m1129.56,271.12l1.77,4.3c.97,2.36-.13,5.05-2.44,6.06l-2.19.93c-2.32.97-4.93-.13-5.9-2.48l-1.77-4.3c-.97-2.36.13-5.05,2.44-6.06l2.19-.93c2.32-.97,4.93.13,5.9,2.48Z"/><rect class="cls-14" x="754.58" y="351.9" width="11.41" height="13.94" rx="1.9" ry="1.9"/><path class="cls-14" d="m766.12,333.58l-.29,4.67c-.17,2.57-2.32,4.46-4.8,4.3l-2.36-.17c-2.48-.17-4.38-2.36-4.21-4.93l.29-4.67c.17-2.57,2.32-4.46,4.8-4.3l2.36.17c2.48.17,4.38,2.36,4.21,4.93Z"/><path class="cls-14" d="m768.06,310.46l-.67,4.63c-.38,2.53-2.65,4.25-5.14,3.87l-2.36-.38c-2.48-.38-4.17-2.74-3.79-5.26l.67-4.63c.38-2.53,2.65-4.25,5.14-3.87l2.36.38c2.48.38,4.17,2.74,3.79,5.26Z"/><path class="cls-14" d="m772.95,287.93l-1.22,4.51c-.67,2.44-3.16,3.92-5.56,3.2l-2.27-.67c-2.4-.67-3.79-3.24-3.12-5.73l1.22-4.51c.67-2.44,3.16-3.92,5.56-3.2l2.27.67c2.4.67,3.79,3.24,3.12,5.73Z"/><path class="cls-9" d="m763.85,125.96l11.08-9.52c1.47-1.26,3.62-1.05,4.84.46l5.18,6.36c1.22,1.52,1.01,3.75-.42,4.97l-11.08,9.52c-1.47,1.26-3.62,1.05-4.84-.46l-5.18-6.36c-1.22-1.52-1.01-3.75.42-4.97Z"/><path class="cls-9" d="m736.85,149.96l10.23-10.49c1.35-1.39,3.54-1.39,4.89,0l5.69,5.85c1.35,1.39,1.35,3.62,0,5.01l-10.23,10.49c-1.35,1.39-3.54,1.39-4.89,0l-5.69-5.85c-1.35-1.39-1.35-3.62,0-5.01Z"/><path class="cls-9" d="m714.16,179.91l8.25-12.17c1.09-1.6,3.24-1.98,4.8-.88l6.61,4.72c1.56,1.09,1.94,3.33.84,4.93l-8.25,12.17c-1.09,1.6-3.24,1.98-4.8.88l-6.61-4.72c-1.56-1.09-1.94-3.33-.84-4.93Z"/><path class="cls-14" d="m760.69,244.89l-2.27,4.04c-1.26,2.23-4,2.99-6.15,1.68l-2.06-1.22c-2.15-1.26-2.91-4.13-1.64-6.32l2.27-4.04c1.26-2.23,4-2.99,6.15-1.68l2.06,1.22c2.15,1.26,2.91,4.13,1.64,6.32Z"/><path class="cls-14" d="m735.97,332.69l-.29,4.67c-.17,2.57-2.32,4.46-4.8,4.3l-2.36-.17c-2.48-.17-4.38-2.36-4.21-4.93l.29-4.67c.17-2.57,2.32-4.46,4.8-4.3l2.36.17c2.48.17,4.38,2.36,4.21,4.93Z"/><path class="cls-14" d="m739.42,310.46l-.67,4.63c-.38,2.53-2.65,4.25-5.14,3.87l-2.36-.38c-2.48-.38-4.17-2.74-3.79-5.26l.67-4.63c.38-2.53,2.65-4.25,5.14-3.87l2.36.38c2.48.38,4.17,2.74,3.79,5.26Z"/><path class="cls-14" d="m743.89,289.1l-1.22,4.51c-.67,2.44-3.16,3.92-5.56,3.2l-2.27-.67c-2.4-.67-3.79-3.24-3.12-5.73l1.22-4.51c.67-2.44,3.16-3.92,5.56-3.2l2.27.67c2.4.67,3.79,3.24,3.12,5.73Z"/><path class="cls-14" d="m750.2,266.57l-1.64,4.34c-.93,2.4-3.54,3.58-5.85,2.61l-2.23-.88c-2.32-.93-3.45-3.62-2.57-5.98l1.64-4.34c.93-2.4,3.54-3.58,5.85-2.61l2.23.88c2.32.93,3.45,3.62,2.57,5.98Z"/><path class="cls-16" d="m773.24,226.78l-2.99,3.5c-1.64,1.94-4.51,2.11-6.36.42l-1.77-1.6c-1.85-1.68-2.06-4.63-.42-6.53l2.99-3.5c1.64-1.94,4.51-2.11,6.36-.42l1.77,1.6c1.85,1.68,2.06,4.63.42,6.53Z"/><path class="cls-13" d="m787.39,207.78l-3.2,3.28c-1.77,1.81-4.63,1.81-6.4,0l-1.68-1.73c-1.77-1.81-1.77-4.76,0-6.57l3.2-3.28c1.77-1.81,4.63-1.81,6.4,0l1.68,1.73c1.77,1.81,1.77,4.76,0,6.57Z"/><path class="cls-16" d="m802.68,192.03l-3.2,3.28c-1.77,1.81-4.63,1.81-6.4,0l-1.68-1.73c-1.77-1.81-1.77-4.76,0-6.57l3.2-3.28c1.77-1.81,4.63-1.81,6.4,0l1.68,1.73c1.77,1.81,1.77,4.76,0,6.57Z"/><path class="cls-10" d="m817.54,178.73l-3.58,2.86c-1.98,1.56-4.8,1.18-6.32-.84l-1.47-1.94c-1.52-2.02-1.18-4.93.8-6.49l3.58-2.86c1.98-1.56,4.8-1.18,6.32.84l1.47,1.94c1.52,2.02,1.18,4.93-.8,6.49Z"/><path class="cls-16" d="m873.22,143.35l-4.21,1.73c-2.32.97-4.93-.21-5.85-2.57l-.88-2.27c-.93-2.36.21-5.05,2.53-6.02l4.21-1.73c2.32-.97,4.93.21,5.85,2.57l.88,2.27c.93,2.36-.21,5.05-2.53,6.02Z"/><path class="cls-18" d="m895.07,136.99l-4.46.88c-2.44.46-4.8-1.18-5.26-3.66l-.46-2.4c-.46-2.53,1.14-4.93,3.58-5.43l4.46-.88c2.44-.46,4.8,1.18,5.26,3.66l.46,2.4c.46,2.53-1.14,4.93-3.58,5.43Z"/><path class="cls-21" d="m917.56,132.7l-4.55.46c-2.48.25-4.67-1.6-4.93-4.17l-.21-2.44c-.25-2.53,1.56-4.8,4.04-5.05l4.55-.46c2.48-.25,4.67,1.6,4.93,4.17l.21,2.44c.25,2.53-1.56,4.8-4.04,5.05Z"/><path class="cls-10" d="m835.19,165.5l-3.75,2.65c-2.06,1.47-4.84.97-6.27-1.14l-1.35-2.02c-1.43-2.11-.93-4.97,1.14-6.44l3.75-2.65c2.06-1.47,4.84-.97,6.27,1.14l1.35,2.02c1.43,2.11.93,4.97-1.14,6.44Z"/><path class="cls-18" d="m854.1,152.83l-3.96,2.36c-2.15,1.26-4.93.51-6.15-1.68l-1.18-2.11c-1.26-2.23-.51-5.05,1.64-6.32l3.96-2.36c2.15-1.26,4.93-.51,6.15,1.68l1.18,2.11c1.26,2.23.51,5.05-1.64,6.32Z"/><rect class="cls-14" x="724.47" y="351.1" width="11.41" height="14.74" rx="1.9" ry="1.9"/><path class="cls-14" d="m1158.87,318.58l.29,4.67c.17,2.57,2.32,4.46,4.8,4.3l2.36-.17c2.48-.17,4.38-2.36,4.21-4.93l-.29-4.67c-.17-2.57-2.32-4.46-4.8-4.3l-2.36.17c-2.48.17-4.38,2.36-4.21,4.93Z"/><path class="cls-14" d="m1155.42,296.35l.67,4.63c.38,2.53,2.65,4.25,5.14,3.87l2.36-.38c2.48-.38,4.17-2.74,3.79-5.26l-.67-4.63c-.38-2.53-2.65-4.25-5.14-3.87l-2.36.38c-2.48.38-4.17,2.74-3.79,5.26Z"/><path class="cls-14" d="m1150.99,275l1.22,4.51c.67,2.44,3.16,3.92,5.56,3.2l2.27-.67c2.4-.67,3.79-3.24,3.12-5.73l-1.22-4.51c-.67-2.44-3.16-3.92-5.56-3.2l-2.27.67c-2.4.67-3.79,3.24-3.12,5.73Z"/><path class="cls-14" d="m1144.64,256.21l1.64,4.34c.93,2.4,3.54,3.58,5.85,2.61l2.23-.88c2.32-.93,3.45-3.62,2.57-5.98l-1.64-4.34c-.93-2.4-3.54-3.58-5.85-2.61l-2.23.88c-2.32.93-3.45,3.62-2.57,5.98Z"/><rect class="cls-14" x="1159.04" y="336.99" width="11.41" height="14.74" rx="1.9" ry="1.9"/><path class="cls-14" d="m1134.91,235.03l2.27,4.04c1.26,2.23,4,2.99,6.15,1.68l2.06-1.22c2.15-1.26,2.91-4.13,1.64-6.32l-2.27-4.04c-1.26-2.23-4-2.99-6.15-1.68l-2.06,1.22c-2.15,1.26-2.91,4.13-1.64,6.32Z"/><path class="cls-16" d="m1123.96,217.51l2.99,3.5c1.64,1.94,4.51,2.11,6.36.42l1.77-1.6c1.85-1.68,2.06-4.63.42-6.53l-2.99-3.5c-1.64-1.94-4.51-2.11-6.36-.42l-1.77,1.6c-1.85,1.68-2.06,4.63-.42,6.53Z"/><path class="cls-13" d="m1111.07,201.43l3.2,3.28c1.77,1.81,4.63,1.81,6.4,0l1.68-1.73c1.77-1.81,1.77-4.76,0-6.57l-3.2-3.28c-1.77-1.81-4.63-1.81-6.4,0l-1.68,1.73c-1.77,1.81-1.77,4.76,0,6.57Z"/><path class="cls-16" d="m1094.86,185.89l3.2,3.28c1.77,1.81,4.63,1.81,6.4,0l1.68-1.73c1.77-1.81,1.77-4.76,0-6.57l-3.2-3.28c-1.77-1.81-4.63-1.81-6.4,0l-1.68,1.73c-1.77,1.81-1.77,4.76,0,6.57Z"/><path class="cls-10" d="m1078.35,169.21l3.54,2.95c1.94,1.6,4.76,1.31,6.36-.67l1.52-1.9c1.56-1.98,1.31-4.89-.63-6.53l-3.54-2.95c-1.94-1.6-4.76-1.31-6.36.67l-1.52,1.9c-1.56,1.98-1.31,4.89.63,6.53h0Z"/><path class="cls-10" d="m1060.37,157.08l3.92,2.4c2.15,1.31,4.93.63,6.19-1.56l1.22-2.11c1.31-2.19.59-5.05-1.52-6.36l-3.92-2.4c-2.15-1.31-4.93-.63-6.19,1.56l-1.22,2.11c-1.31,2.19-.59,5.05,1.52,6.36Z"/><path class="cls-16" d="m1001.83,133.16l4.46.88c2.44.46,4.8-1.18,5.26-3.66l.46-2.4c.46-2.53-1.14-4.93-3.58-5.43l-4.46-.88c-2.44-.46-4.8,1.18-5.26,3.66l-.46,2.4c-.46,2.53,1.14,4.93,3.58,5.43Z"/><rect class="cls-19" x="974.68" y="119.42" width="13.56" height="11.71" rx="1.9" ry="1.9" transform="translate(-.32 2.57) rotate(-.15)"/><path class="cls-21" d="m956.26,131.35l4.55-.46c2.48-.25,4.3-2.53,4.04-5.05l-.21-2.44c-.25-2.53-2.44-4.42-4.93-4.17l-4.55.46c-2.48.25-4.3,2.53-4.04,5.05l.21,2.44c.25,2.53,2.44,4.42,4.93,4.17Z"/><path class="cls-18" d="m1022.34,138.72l4.3,1.52c2.36.84,4.93-.46,5.73-2.86l.76-2.32c.8-2.4-.42-5.05-2.78-5.9l-4.3-1.52c-2.36-.84-4.93.46-5.73,2.86l-.76,2.32c-.8,2.4.42,5.05,2.78,5.9Z"/><path class="cls-14" d="m1041.37,146.05l4.72,2.57c2.19,1.18,4.93.34,6.11-1.94l1.14-2.15c1.18-2.27.34-5.05-1.85-6.27l-4.72-2.57c-2.19-1.18-4.93-.34-6.11,1.94l-1.14,2.15c-1.18,2.27-.34,5.05,1.85,6.27Z"/><rect class="cls-9" x="663.96" y="344.99" width="14.95" height="21.9" rx="1.43" ry="1.43"/><path class="cls-9" d="m678.78,248.38l5.26-13.81c.67-1.81,2.7-2.74,4.46-2.02l7.5,2.99c1.77.72,2.65,2.78,1.94,4.59l-5.26,13.81c-.67,1.81-2.7,2.74-4.46,2.02l-7.5-2.99c-1.77-.72-2.65-2.78-1.94-4.59Z"/><path class="cls-9" d="m670.11,286.16l2.91-14.53c.38-1.9,2.19-3.16,4.08-2.74l7.92,1.68c1.85.38,3.07,2.27,2.7,4.17l-2.91,14.53c-.38,1.9-2.19,3.16-4.08,2.74l-7.92-1.68c-1.85-.38-3.07-2.27-2.7-4.17Z"/><path class="cls-9" d="m665.68,325.36l1.47-14.74c.21-1.94,1.9-3.37,3.79-3.16l8,.84c1.9.21,3.28,1.94,3.07,3.87l-1.47,14.74c-.21,1.94-1.9,3.37-3.79,3.16l-8-.84c-1.9-.21-3.28-1.94-3.07-3.87Z"/><path class="cls-9" d="m1195.42,184.75l-8.25-12.17c-1.09-1.6-3.24-1.98-4.8-.88l-6.61,4.72c-1.56,1.14-1.94,3.33-.84,4.93l8.25,12.17c1.09,1.6,3.24,1.98,4.8.88l6.61-4.72c1.56-1.14,1.94-3.33.84-4.93Z"/><path class="cls-9" d="m1121.18,105.62l-11.88-8.46c-1.56-1.09-3.71-.72-4.8.88l-4.59,6.78c-1.09,1.6-.72,3.79.84,4.93l11.88,8.46c1.56,1.09,3.71.72,4.8-.88l4.59-6.78c1.09-1.6.72-3.79-.84-4.93Z"/><path class="cls-9" d="m1149.31,130.04l-11.16-9.43c-1.47-1.22-3.62-1.01-4.84.51l-5.14,6.4c-1.22,1.52-1.01,3.75.46,4.97l11.16,9.43c1.47,1.22,3.62,1.01,4.84-.51l5.14-6.4c1.22-1.52,1.01-3.75-.46-4.97Z"/><path class="cls-9" d="m1175.08,155.48l-9.43-11.2c-1.26-1.47-3.41-1.64-4.84-.38l-6.11,5.39c-1.43,1.26-1.6,3.5-.34,4.97l9.43,11.2c1.26,1.47,3.41,1.64,4.84.38l6.11-5.39c1.43-1.26,1.6-3.5.34-4.97Z"/><path class="cls-9" d="m793.33,103.01l11.83-8.46c1.56-1.14,3.71-.72,4.8.88l4.63,6.78c1.09,1.6.72,3.79-.84,4.93l-11.83,8.46c-1.56,1.14-3.71.72-4.8-.88l-4.63-6.78c-1.09-1.6-.72-3.79.84-4.93Z"/><path class="cls-9" d="m894.74,62.45l14.36-1.43c1.9-.17,3.58,1.22,3.75,3.2l.76,8.25c.17,1.94-1.22,3.66-3.12,3.87l-14.36,1.43c-1.9.17-3.58-1.22-3.75-3.2l-.76-8.25c-.17-1.94,1.22-3.66,3.12-3.87Z"/><path class="cls-9" d="m859.87,69.74l14.07-3.37c1.85-.46,3.71.72,4.13,2.65l1.85,8.04c.42,1.9-.72,3.79-2.57,4.25l-14.07,3.37c-1.85.46-3.71-.72-4.13-2.65l-1.85-8.04c-.42-1.9.72-3.79,2.57-4.25Z"/><path class="cls-9" d="m825.84,83.13l13.39-5.52c1.77-.72,3.79.17,4.46,1.98l2.99,7.71c.72,1.81-.17,3.87-1.94,4.59l-13.39,5.52c-1.77.72-3.79-.17-4.46-1.98l-2.99-7.71c-.72-1.81.17-3.87,1.94-4.59Z"/><rect class="cls-9" x="1216.27" y="318.33" width="14.95" height="21.9" rx="1.43" ry="1.43"/><path class="cls-9" d="m1214.71,220.92l-6.23-13.39c-.84-1.77-2.86-2.53-4.59-1.64l-7.29,3.58c-1.73.84-2.44,2.95-1.6,4.72l6.23,13.39c.84,1.77,2.86,2.53,4.59,1.64l7.29-3.58c1.73-.84,2.44-2.95,1.6-4.72Z"/><path class="cls-9" d="m1225.41,261.35l-3.92-14.28c-.51-1.9-2.4-2.99-4.25-2.44l-7.75,2.23c-1.81.55-2.91,2.48-2.4,4.38l3.92,14.28c.51,1.9,2.4,2.99,4.25,2.44l7.75-2.23c1.81-.55,2.91-2.48,2.4-4.38Z"/><path class="cls-9" d="m1228.82,299l-1.47-14.74c-.21-1.94-1.9-3.37-3.79-3.16l-8,.84c-1.9.21-3.28,1.94-3.07,3.87l1.47,14.74c.21,1.94,1.9,3.37,3.79,3.16l8-.84c1.9-.21,3.28-1.94,3.07-3.87Z"/><path class="cls-9" d="m1086.73,83.42l-13.27-5.85c-1.77-.76-3.79.04-4.51,1.85l-3.16,7.62c-.76,1.81.04,3.87,1.81,4.63l13.27,5.85c1.77.76,3.79-.04,4.51-1.85l3.16-7.62c.76-1.81-.04-3.87-1.81-4.63Z"/><rect class="cls-9" x="956.85" y="59.38" width="21.35" height="15.37" rx="1.43" ry="1.43"/><path class="cls-9" d="m1015.52,62.79l-14.36-1.64c-1.9-.21-3.58,1.18-3.79,3.12l-.88,8.21c-.21,1.94,1.14,3.71,3.03,3.92l14.36,1.64c1.9.21,3.58-1.18,3.79-3.12l.88-8.21c.21-1.94-1.14-3.71-3.03-3.92Z"/><path class="cls-9" d="m1052.83,69.99l-14.07-3.41c-1.85-.46-3.71.72-4.13,2.61l-1.85,8.04c-.42,1.9.72,3.79,2.57,4.25l14.07,3.41c1.85.46,3.71-.72,4.13-2.61l1.85-8.04c.42-1.9-.72-3.79-2.57-4.25Z"/><path class="cls-9" d="m670.74,207.7l-6.78,13.1c-.88,1.73-2.99,2.4-4.67,1.47l-7.12-3.87c-1.68-.93-2.32-3.07-1.43-4.8l6.78-13.1c.88-1.73,2.99-2.4,4.67-1.47l7.12,3.87c1.68.93,2.32,3.07,1.43,4.8Z"/><rect class="cls-9" x="622.48" y="347.77" width="14.95" height="21.9" rx="1.43" ry="1.43"/><path class="cls-9" d="m637.3,251.12l5.26-13.81c.67-1.81,2.7-2.74,4.46-2.02l7.5,2.99c1.77.72,2.65,2.78,1.94,4.59l-5.26,13.81c-.67,1.81-2.7,2.74-4.46,2.02l-7.5-2.99c-1.77-.72-2.65-2.78-1.94-4.59Z"/><path class="cls-9" d="m628.67,288.89l2.91-14.53c.38-1.9,2.19-3.16,4.08-2.74l7.92,1.68c1.85.38,3.07,2.27,2.7,4.17l-2.91,14.53c-.38,1.9-2.19,3.16-4.08,2.74l-7.92-1.68c-1.85-.38-3.07-2.27-2.7-4.17Z"/><path class="cls-9" d="m624.24,328.1l1.47-14.74c.21-1.94,1.9-3.37,3.79-3.16l8,.84c1.9.21,3.28,1.94,3.07,3.87l-1.47,14.74c-.21,1.94-1.9,3.37-3.79,3.16l-8-.84c-1.9-.21-3.28-1.94-3.07-3.87Z"/><path class="cls-9" d="m689.01,173.76l-7.24,12.84c-.97,1.68-3.07,2.27-4.72,1.31l-6.99-4.13c-1.64-.97-2.23-3.16-1.26-4.84l7.24-12.84c.97-1.68,3.07-2.27,4.72-1.31l6.99,4.13c1.64.97,2.23,3.16,1.26,4.84Z"/><path class="cls-9" d="m715.84,118.34l10.23-10.49c1.35-1.39,3.54-1.39,4.89,0l5.69,5.85c1.35,1.39,1.35,3.62,0,5.01l-10.23,10.49c-1.35,1.39-3.54,1.39-4.89,0l-5.69-5.85c-1.35-1.39-1.35-3.62,0-5.01Z"/><path class="cls-9" d="m690.66,144.91l9.52-11.16c1.26-1.47,3.45-1.6,4.84-.34l6.06,5.47c1.43,1.31,1.56,3.54.29,5.01l-9.52,11.16c-1.26,1.47-3.45,1.6-4.84.34l-6.06-5.47c-1.43-1.31-1.56-3.54-.29-5.01Z"/><path class="cls-9" d="m742.79,92.69l11.08-9.52c1.47-1.26,3.62-1.05,4.84.46l5.18,6.36c1.22,1.52,1.01,3.75-.42,4.97l-11.08,9.52c-1.47,1.26-3.62,1.05-4.84-.46l-5.18-6.36c-1.22-1.52-1.01-3.75.42-4.97Z"/><path class="cls-9" d="m772.27,69.74l11.83-8.46c1.56-1.14,3.71-.72,4.8.88l4.63,6.78c1.09,1.6.72,3.79-.84,4.93l-11.83,8.46c-1.56,1.14-3.71.72-4.8-.88l-4.63-6.78c-1.09-1.6-.72-3.79.84-4.93Z"/><path class="cls-9" d="m801.16,50.07l13.01-6.4c1.73-.84,3.79-.08,4.59,1.64l3.5,7.45c.84,1.77.08,3.87-1.6,4.72l-13.01,6.4c-1.73.84-3.79.08-4.59-1.64l-3.5-7.45c-.84-1.77-.08-3.87,1.6-4.72Z"/><path class="cls-9" d="m832.79,35.71l13.9-4.04c1.81-.55,3.75.55,4.25,2.44l2.19,7.96c.51,1.9-.55,3.83-2.36,4.38l-13.9,4.04c-1.81.55-3.75-.55-4.25-2.44l-2.19-7.96c-.51-1.9.55-3.83,2.36-4.38Z"/><path class="cls-9" d="m898.27,17.56l14.4-.8c1.9-.13,3.54,1.39,3.62,3.33l.42,8.25c.08,1.94-1.35,3.62-3.24,3.71l-14.4.8c-1.9.13-3.54-1.39-3.62-3.33l-.42-8.25c-.08-1.94,1.35-3.62,3.24-3.71Z"/><path class="cls-9" d="m865.22,24.21l13.9-4.04c1.81-.55,3.75.55,4.25,2.44l2.19,7.96c.51,1.9-.55,3.83-2.36,4.38l-13.9,4.04c-1.81.55-3.75-.55-4.25-2.44l-2.19-7.96c-.51-1.9.55-3.83,2.36-4.38Z"/><path class="cls-12" d="m729.61,509.69l-8.46-12c-1.14-1.6-3.28-1.94-4.8-.8l-6.53,4.84c-1.56,1.14-1.9,3.37-.76,4.93l8.46,12c1.14,1.6,3.28,1.94,4.8.8l6.53-4.84c1.56-1.14,1.9-3.37.76-4.93Z"/><path class="cls-20" d="m790.59,443.45l-2.65-3.79c-1.47-2.06-4.3-2.53-6.32-1.05l-1.94,1.43c-2.02,1.52-2.48,4.38-1.01,6.49l2.65,3.79c1.47,2.06,4.3,2.53,6.32,1.05l1.94-1.43c2.02-1.52,2.48-4.38,1.01-6.49Z"/><path class="cls-5" d="m802.59,461.81l-2.99-3.54c-1.64-1.94-4.46-2.15-6.36-.51l-1.81,1.6c-1.9,1.68-2.11,4.59-.46,6.53l2.99,3.54c1.64,1.94,4.46,2.15,6.36.51l1.81-1.6c1.9-1.68,2.11-4.59.46-6.53Z"/><path class="cls-8" d="m816.11,478.78l-3.33-3.16c-1.81-1.73-4.67-1.64-6.36.25l-1.6,1.81c-1.68,1.9-1.6,4.8.25,6.53l3.33,3.16c1.81,1.73,4.67,1.64,6.36-.25l1.6-1.81c1.68-1.9,1.6-4.8-.25-6.53Z"/><path class="cls-5" d="m834.47,493.44l-3.54-2.95c-1.94-1.6-4.76-1.31-6.36.67l-1.52,1.9c-1.56,1.98-1.26,4.89.67,6.53l3.54,2.95c1.94,1.6,4.76,1.31,6.36-.67l1.52-1.9c1.56-1.98,1.26-4.89-.67-6.53Z"/><path class="cls-17" d="m853.38,506.62l-3.87-2.48c-2.11-1.35-4.89-.67-6.23,1.47l-1.26,2.06c-1.31,2.19-.67,5.01,1.43,6.36l3.87,2.48c2.11,1.35,4.89.67,6.23-1.47l1.26-2.06c1.31-2.19.67-5.01-1.43-6.36Z"/><path class="cls-7" d="m871.74,518.2l-4-2.27c-2.19-1.22-4.93-.42-6.15,1.81l-1.14,2.15c-1.22,2.23-.42,5.05,1.77,6.27l4,2.27c2.19,1.22,4.93.42,6.15-1.81l1.14-2.15c1.22-2.23.42-5.05-1.77-6.27Z"/><path class="cls-5" d="m891.07,526.2l-4.3-1.56c-2.36-.84-4.93.38-5.77,2.82l-.8,2.32c-.84,2.4.38,5.05,2.74,5.94l4.3,1.56c2.36.84,4.93-.38,5.77-2.82l.8-2.32c.84-2.4-.38-5.05-2.74-5.94Z"/><path class="cls-7" d="m913.52,533.53l-4.51-.8c-2.44-.46-4.8,1.22-5.22,3.75l-.42,2.4c-.42,2.53,1.22,4.93,3.66,5.35l4.51.8c2.44.46,4.8-1.22,5.22-3.75l.42-2.4c.42-2.53-1.22-4.93-3.66-5.35Z"/><path class="cls-2" d="m937.48,537.61l-4.55-.42c-2.48-.21-4.67,1.68-4.89,4.21l-.21,2.44c-.21,2.57,1.64,4.8,4.13,5.01l4.55.42c2.48.21,4.67-1.68,4.89-4.21l.21-2.44c.21-2.57-1.64-4.8-4.13-5.01Z"/><path class="cls-1" d="m984.52,533.45l-4.51.76c-2.44.42-4.13,2.78-3.71,5.31l.38,2.4c.42,2.53,2.74,4.25,5.18,3.83l4.51-.76c2.44-.42,4.13-2.78,3.71-5.31l-.38-2.4c-.42-2.53-2.74-4.25-5.18-3.83h0Z"/><path class="cls-17" d="m1007.26,527.51l-4.46,1.01c-2.44.55-4,2.99-3.45,5.52l.51,2.4c.55,2.48,2.95,4.08,5.35,3.54l4.46-1.01c2.44-.55,4-2.99,3.45-5.52l-.51-2.4c-.55-2.48-2.95-4.08-5.35-3.54Z"/><path class="cls-2" d="m1030.26,518.12l-4.21,1.73c-2.32.93-3.45,3.62-2.53,6.02l.88,2.27c.93,2.36,3.54,3.54,5.85,2.57l4.21-1.73c2.32-.93,3.45-3.62,2.53-6.02l-.88-2.27c-.93-2.36-3.54-3.54-5.85-2.57Z"/><path class="cls-5" d="m1048.91,507.42l-3.71,2.74c-2.02,1.52-2.48,4.38-1.01,6.49l1.39,1.98c1.47,2.06,4.3,2.53,6.32,1.05l3.71-2.74c2.02-1.52,2.48-4.38,1.01-6.49l-1.39-1.98c-1.47-2.06-4.3-2.53-6.32-1.05Z"/><path class="cls-5" d="m1119.03,416.79l-1.52,4.42c-.84,2.4.38,5.05,2.74,5.94l2.23.84c2.36.84,4.93-.38,5.77-2.82l1.52-4.42c.84-2.4-.38-5.05-2.74-5.94l-2.23-.84c-2.36-.84-4.93.38-5.77,2.82Z"/><path class="cls-5" d="m1118.61,447.87l2.19-4.08c1.22-2.23.42-5.05-1.77-6.27l-2.06-1.18c-2.19-1.22-4.93-.42-6.15,1.81l-2.19,4.08c-1.22,2.23-.42,5.05,1.77,6.27l2.06,1.18c2.19,1.22,4.93.42,6.15-1.81Z"/><path class="cls-5" d="m1099.49,457.6l-2.53,3.87c-1.39,2.11-.84,5.01,1.22,6.44l1.98,1.35c2.06,1.43,4.89.88,6.27-1.26l2.53-3.87c1.39-2.11.84-5.01-1.22-6.44l-1.98-1.35c-2.06-1.43-4.89-.88-6.27,1.26Z"/><path class="cls-5" d="m1086.6,475.03l-2.86,3.62c-1.56,1.98-1.26,4.89.67,6.53l1.85,1.56c1.94,1.6,4.76,1.31,6.36-.67l2.86-3.62c1.56-1.98,1.26-4.89-.67-6.53l-1.85-1.56c-1.94-1.6-4.76-1.31-6.36.67Z"/><path class="cls-5" d="m1069.34,491.54l-3.45,3.03c-1.9,1.68-2.11,4.59-.46,6.53l1.56,1.85c1.64,1.94,4.46,2.15,6.36.51l3.45-3.03c1.9-1.68,2.11-4.59.46-6.53l-1.56-1.85c-1.64-1.94-4.46-2.15-6.36-.51Z"/><path class="cls-20" d="m1140.76,379.44l.59-4.63c.34-2.53-1.43-4.84-3.92-5.18l-2.36-.29c-2.48-.34-4.72,1.47-5.05,4l-.59,4.63c-.34,2.53,1.43,4.84,3.92,5.18l2.36.29c2.48.34,4.72-1.47,5.05-4Z"/><path class="cls-20" d="m1136.04,403.02l1.31-4.46c.72-2.44-.63-5.05-3.03-5.77l-2.27-.72c-2.4-.72-4.89.63-5.6,3.12l-1.31,4.46c-.72,2.44.63,5.05,3.03,5.77l2.27.72c2.4.72,4.89-.63,5.6-3.12Z"/><path class="cls-20" d="m772.52,402.18l-1.14-4.51c-.63-2.48-3.07-3.96-5.52-3.33l-2.32.59c-2.4.63-3.87,3.16-3.24,5.64l1.14,4.51c.63,2.48,3.07,3.96,5.52,3.33l2.32-.59c2.4-.63,3.87-3.16,3.24-5.64Z"/><path class="cls-20" d="m779.64,424.08l-1.68-4.34c-.93-2.36-3.54-3.54-5.85-2.61l-2.23.88c-2.32.93-3.45,3.62-2.53,6.02l1.68,4.34c.93,2.36,3.54,3.54,5.85,2.61l2.23-.88c2.32-.93,3.45-3.62,2.53-6.02Z"/><path class="cls-12" d="m786.88,586.17l12,8.25c1.56,1.09,3.71.67,4.8-.97l4.51-6.86c1.05-1.6.63-3.83-.93-4.93l-12-8.25c-1.56-1.09-3.71-.67-4.8.97l-4.51,6.86c-1.05,1.6-.63,3.83.93,4.93Z"/><path class="cls-12" d="m757.62,565.11l11.2,9.35c1.47,1.22,3.66,1.01,4.84-.51l5.1-6.44c1.18-1.52.97-3.75-.51-4.97l-11.2-9.35c-1.47-1.22-3.66-1.01-4.84.51l-5.1,6.44c-1.18,1.52-.97,3.75.51,4.97Z"/><path class="cls-12" d="m732.05,537.74l9.43,11.24c1.22,1.47,3.41,1.64,4.84.38l6.11-5.39c1.43-1.26,1.6-3.5.38-4.97l-9.43-11.24c-1.22-1.47-3.41-1.64-4.84-.38l-6.11,5.39c-1.43,1.26-1.6,3.5-.38,4.97Z"/><path class="cls-20" d="m771.81,468.21l-2.65-3.79c-1.47-2.06-4.3-2.53-6.32-1.05l-1.94,1.43c-2.02,1.52-2.48,4.38-1.01,6.49l2.65,3.79c1.47,2.06,4.3,2.53,6.32,1.05l1.94-1.43c2.02-1.52,2.48-4.38,1.01-6.49Z"/><path class="cls-20" d="m744.06,405.21l-1.14-4.51c-.63-2.48-3.07-3.96-5.52-3.33l-2.32.59c-2.4.63-3.87,3.16-3.24,5.64l1.14,4.51c.63,2.48,3.07,3.96,5.52,3.33l2.32-.59c2.4-.63,3.87-3.16,3.24-5.64Z"/><path class="cls-20" d="m750.63,425.97l-1.68-4.34c-.93-2.36-3.54-3.54-5.85-2.61l-2.23.88c-2.32.93-3.45,3.62-2.53,6.02l1.68,4.34c.93,2.36,3.54,3.54,5.85,2.61l2.23-.88c2.32-.93,3.45-3.62,2.53-6.02Z"/><path class="cls-20" d="m759.22,447.74l-2.11-4.17c-1.14-2.27-3.87-3.16-6.06-1.98l-2.11,1.14c-2.23,1.18-3.07,3.96-1.94,6.23l2.11,4.17c1.14,2.27,3.87,3.16,6.06,1.98l2.11-1.14c2.23-1.18,3.07-3.96,1.94-6.23Z"/><path class="cls-5" d="m786.13,484.89l-3.33-3.16c-1.81-1.73-4.67-1.64-6.36.25l-1.6,1.81c-1.68,1.9-1.6,4.8.25,6.53l3.33,3.16c1.81,1.73,4.67,1.64,6.36-.25l1.6-1.81c1.68-1.9,1.6-4.8-.25-6.53Z"/><path class="cls-8" d="m802.09,502.28l-3.54-2.95c-1.94-1.6-4.76-1.31-6.36.67l-1.52,1.9c-1.56,1.98-1.26,4.89.67,6.53l3.54,2.95c1.94,1.6,4.76,1.31,6.36-.67l1.52-1.9c1.56-1.98,1.26-4.89-.67-6.53Z"/><path class="cls-5" d="m818.89,516.31l-3.54-2.95c-1.94-1.6-4.76-1.31-6.36.67l-1.52,1.9c-1.56,1.98-1.26,4.89.67,6.53l3.54,2.95c1.94,1.6,4.76,1.31,6.36-.67l1.52-1.9c1.56-1.98,1.26-4.89-.67-6.53Z"/><path class="cls-17" d="m835.02,527.97l-3.87-2.48c-2.11-1.35-4.89-.67-6.23,1.47l-1.26,2.06c-1.31,2.19-.67,5.01,1.43,6.36l3.87,2.48c2.11,1.35,4.89.67,6.23-1.47l1.26-2.06c1.31-2.19.67-5.01-1.43-6.36Z"/><path class="cls-5" d="m893.94,557.24l-4.38-1.26c-2.4-.72-4.89.72-5.56,3.2l-.63,2.36c-.67,2.44.72,5.01,3.12,5.73l4.38,1.26c2.4.72,4.89-.72,5.56-3.2l.63-2.36c.67-2.44-.72-5.01-3.12-5.73Z"/><path class="cls-7" d="m916.34,561.24l-4.55-.42c-2.48-.21-4.67,1.68-4.89,4.21l-.21,2.44c-.21,2.57,1.64,4.8,4.13,5.01l4.55.42c2.48.21,4.67-1.68,4.89-4.21l.21-2.44c.21-2.57-1.64-4.8-4.13-5.01Z"/><rect class="cls-3" x="930.12" y="563.24" width="13.56" height="11.71" rx="1.9" ry="1.9" transform="translate(-4.34 7.21) rotate(-.44)"/><path class="cls-17" d="m853.89,539.26l-4-2.27c-2.19-1.22-4.93-.42-6.15,1.81l-1.14,2.15c-1.22,2.23-.42,5.05,1.77,6.27l4,2.27c2.19,1.22,4.93.42,6.15-1.81l1.14-2.15c1.22-2.23.42-5.05-1.77-6.27Z"/><path class="cls-7" d="m873.97,549.87l-4.17-1.9c-2.27-1.05-4.93,0-5.98,2.36l-.97,2.23c-1.01,2.32,0,5.1,2.27,6.11l4.17,1.9c2.27,1.05,4.93,0,5.98-2.36l.97-2.23c1.01-2.32,0-5.1-2.27-6.11Z"/><path class="cls-20" d="m1159.25,375.18l.21-4.67c.13-2.57,2.23-4.55,4.72-4.42l2.36.13c2.48.13,4.42,2.27,4.3,4.84l-.21,4.67c-.13,2.57-2.23,4.55-4.72,4.42l-2.36-.13c-2.48-.13-4.42-2.27-4.3-4.84Z"/><path class="cls-20" d="m1156.97,396.87l.76-4.59c.42-2.53,2.74-4.21,5.22-3.79l2.36.42c2.44.42,4.08,2.82,3.66,5.35l-.76,4.59c-.42,2.53-2.74,4.21-5.22,3.79l-2.36-.42c-2.44-.42-4.08-2.82-3.66-5.35Z"/><path class="cls-20" d="m1152.55,416.24l1.22-4.51c.67-2.48,3.16-3.92,5.56-3.24l2.27.63c2.4.67,3.83,3.24,3.16,5.69l-1.22,4.51c-.67,2.48-3.16,3.92-5.56,3.24l-2.27-.63c-2.4-.67-3.83-3.24-3.16-5.69Z"/><path class="cls-20" d="m1145.01,438.35l1.85-4.25c1.01-2.32,3.71-3.37,5.98-2.36l2.19,1.01c2.27,1.05,3.28,3.79,2.27,6.11l-1.85,4.25c-1.01,2.32-3.71,3.37-5.98,2.36l-2.19-1.01c-2.27-1.05-3.28-3.79-2.27-6.11Z"/><path class="cls-5" d="m1135.88,456.93l2.65-3.83c1.43-2.11,4.25-2.57,6.27-1.09l1.94,1.43c2.02,1.47,2.53,4.38,1.05,6.44l-2.65,3.83c-1.43,2.11-4.25,2.57-6.27,1.09l-1.94-1.43c-2.02-1.47-2.53-4.38-1.05-6.44Z"/><path class="cls-8" d="m1124.67,474.32l2.86-3.62c1.56-1.98,4.42-2.27,6.36-.67l1.85,1.56c1.94,1.6,2.23,4.55.67,6.53l-2.86,3.62c-1.56,1.98-4.42,2.27-6.36.67l-1.85-1.56c-1.94-1.6-2.23-4.55-.67-6.53Z"/><path class="cls-5" d="m1110.14,491.5l2.86-3.62c1.56-1.98,4.42-2.27,6.36-.67l1.85,1.56c1.94,1.6,2.23,4.55.67,6.53l-2.86,3.62c-1.56,1.98-4.42,2.27-6.36.67l-1.85-1.56c-1.94-1.6-2.23-4.55-.67-6.53Z"/><path class="cls-17" d="m1095.36,509.82l3.2-3.33c1.77-1.81,4.63-1.81,6.4,0l1.68,1.73c1.77,1.81,1.77,4.72,0,6.57l-3.2,3.33c-1.77,1.81-4.63,1.81-6.4,0l-1.68-1.73c-1.77-1.81-1.77-4.72,0-6.57Z"/><path class="cls-17" d="m1078.69,523.76l3.62-2.82c1.98-1.56,4.8-1.14,6.32.93l1.43,1.94c1.52,2.06,1.09,4.93-.88,6.49l-3.62,2.82c-1.98,1.56-4.8,1.14-6.32-.93l-1.43-1.94c-1.52-2.06-1.09-4.93.88-6.49h0Z"/><path class="cls-5" d="m1022.89,553.79l4.38-1.35c2.4-.76,4.89.63,5.6,3.12l.67,2.36c.72,2.44-.63,5.05-3.03,5.77l-4.38,1.35c-2.4.76-4.89-.63-5.6-3.12l-.67-2.36c-.72-2.44.63-5.05,3.03-5.77Z"/><path class="cls-7" d="m1002.08,558.29l4.51-.76c2.44-.42,4.76,1.31,5.18,3.83l.38,2.4c.42,2.53-1.26,4.89-3.71,5.31l-4.51.76c-2.44.42-4.76-1.31-5.18-3.83l-.38-2.4c-.42-2.53,1.26-4.89,3.71-5.31Z"/><path class="cls-2" d="m980.82,561.11l4.51-.76c2.44-.42,4.76,1.31,5.18,3.83l.38,2.4c.42,2.53-1.26,4.89-3.71,5.31l-4.51.76c-2.44.42-4.76-1.31-5.18-3.83l-.38-2.4c-.42-2.53,1.26-4.89,3.71-5.31Z"/><path class="cls-7" d="m1042.72,546.08l4.13-1.98c2.27-1.09,4.93-.08,5.98,2.23l1.01,2.23c1.05,2.32.08,5.05-2.19,6.15l-4.13,1.98c-2.27,1.09-4.93.08-5.98-2.23l-1.01-2.23c-1.05-2.32-.08-5.05,2.19-6.15Z"/><path class="cls-20" d="m1060.96,536.77l4.42-3.07c2.06-1.43,4.89-.84,6.27,1.26l1.35,2.02c1.39,2.11.84,5.01-1.22,6.44l-4.42,3.07c-2.06,1.43-4.89.84-6.27-1.26l-1.35-2.02c-1.39-2.11-.84-5.01,1.22-6.44Z"/><path class="cls-12" d="m689.94,473.39l6.61,13.18c.88,1.73,2.95,2.4,4.63,1.52l7.16-3.79c1.68-.88,2.36-3.03,1.47-4.76l-6.61-13.18c-.88-1.73-2.95-2.4-4.63-1.52l-7.16,3.79c-1.68.88-2.36,3.03-1.47,4.76Z"/><path class="cls-12" d="m677.56,436.75l4.38,14.15c.59,1.85,2.53,2.91,4.34,2.32l7.71-2.48c1.81-.59,2.82-2.57,2.23-4.42l-4.38-14.15c-.59-1.85-2.53-2.91-4.34-2.32l-7.71,2.48c-1.81.59-2.82,2.57-2.23,4.42Z"/><path class="cls-12" d="m669.22,398.18l2.95,14.53c.38,1.9,2.23,3.12,4.08,2.74l7.88-1.68c1.85-.42,3.07-2.27,2.65-4.17l-2.95-14.53c-.38-1.9-2.23-3.12-4.08-2.74l-7.88,1.68c-1.85.42-3.07,2.27-2.65,4.17Z"/><path class="cls-12" d="m1210.25,481.98l-6.99,12.97c-.93,1.73-3.03,2.32-4.67,1.39l-7.07-4c-1.68-.93-2.27-3.12-1.35-4.8l6.99-12.97c.93-1.73,3.03-2.32,4.67-1.39l7.07,4c1.68.93,2.27,3.12,1.35,4.8Z"/><path class="cls-12" d="m1144.38,568.53l-10.95,9.69c-1.43,1.26-3.62,1.09-4.84-.38l-5.26-6.27c-1.22-1.47-1.09-3.71.38-4.97l10.95-9.69c1.43-1.26,3.62-1.09,4.84.38l5.26,6.27c1.22,1.47,1.09,3.71-.38,4.97Z"/><path class="cls-12" d="m1169.86,541.28l-10.15,10.57c-1.35,1.39-3.54,1.39-4.89,0l-5.73-5.81c-1.35-1.39-1.35-3.62,0-5.01l10.15-10.57c1.35-1.39,3.54-1.39,4.89,0l5.73,5.81c1.35,1.39,1.35,3.62,0,5.01h0Z"/><path class="cls-12" d="m1192.98,513.23l-8.25,12.17c-1.09,1.6-3.24,1.98-4.8.88l-6.61-4.72c-1.56-1.14-1.94-3.33-.84-4.93l8.25-12.17c1.09-1.6,3.24-1.98,4.8-.88l6.61,4.72c1.56,1.14,1.94,3.33.84,4.93Z"/><path class="cls-12" d="m818.51,605.84l12.63,7.2c1.68.93,3.75.34,4.67-1.39l3.92-7.24c.93-1.73.34-3.87-1.35-4.8l-12.63-7.2c-1.68-.93-3.75-.34-4.67,1.39l-3.92,7.24c-.93,1.73-.34,3.87,1.35,4.8Z"/><rect class="cls-11" x="919.97" y="620.05" width="21.35" height="15.37" rx="1.43" ry="1.43" transform="translate(-4.79 7.17) rotate(-.44)"/><path class="cls-12" d="m888.04,631.91l14.32,1.9c1.9.25,3.62-1.14,3.87-3.07l1.01-8.21c.25-1.94-1.09-3.71-2.99-3.96l-14.32-1.9c-1.9-.25-3.62,1.14-3.87,3.07l-1.01,8.21c-.25,1.94,1.09,3.71,2.99,3.96Z"/><path class="cls-12" d="m852.83,622.22l13.9,4.04c1.81.55,3.75-.55,4.25-2.44l2.19-7.96c.51-1.9-.55-3.83-2.36-4.38l-13.9-4.04c-1.81-.55-3.75.55-4.25,2.44l-2.19,7.96c-.51,1.9.55,3.83,2.36,4.38Z"/><path class="cls-12" d="m1225.79,443.95l-4.84,13.98c-.63,1.85-2.61,2.78-4.42,2.15l-7.58-2.78c-1.81-.67-2.74-2.7-2.11-4.51l4.84-13.98c.63-1.85,2.61-2.78,4.42-2.15l7.58,2.78c1.81.67,2.74,2.7,2.11,4.51Z"/><path class="cls-12" d="m1232.36,402.6l-2.44,14.61c-.34,1.94-2.11,3.2-3.96,2.91l-7.96-1.39c-1.9-.34-3.12-2.15-2.82-4.08l2.44-14.61c.34-1.94,2.11-3.2,3.96-2.91l7.96,1.39c1.9.34,3.12,2.15,2.82,4.08Z"/><rect class="cls-12" x="1217.03" y="361.29" width="14.95" height="21.9" rx="1.43" ry="1.43"/><path class="cls-12" d="m1112.33,594.26l-12.63,7.2c-1.64.97-3.75.34-4.67-1.39l-3.92-7.24c-.93-1.73-.34-3.87,1.35-4.8l12.63-7.2c1.64-.97,3.75-.34,4.67,1.39l3.92,7.24c.93,1.73.34,3.87-1.35,4.8Z"/><path class="cls-12" d="m1007.35,632.12l-14.36,1.52c-1.9.21-3.58-1.22-3.79-3.16l-.84-8.25c-.21-1.94,1.18-3.66,3.07-3.87l14.36-1.52c1.9-.21,3.58,1.22,3.79,3.16l.84,8.25c.21,1.94-1.18,3.66-3.07,3.87Z"/><path class="cls-12" d="m1043.61,622.35l-14.11,3.16c-1.85.42-3.71-.8-4.08-2.7l-1.73-8.09c-.42-1.9.76-3.79,2.65-4.21l14.11-3.16c1.85-.42,3.71.8,4.08,2.7l1.73,8.09c.42,1.9-.76,3.79-2.65,4.21Z"/><path class="cls-12" d="m1079.99,611.19l-13.64,4.89c-1.81.63-3.75-.34-4.38-2.19l-2.65-7.83c-.63-1.85.34-3.87,2.11-4.51l13.64-4.89c1.81-.63,3.75.34,4.38,2.19l2.65,7.83c.63,1.85-.34,3.87-2.11,4.51Z"/><path class="cls-12" d="m686.07,514.7l-8.04-12.3c-1.05-1.6-3.2-2.06-4.8-.97l-6.7,4.63c-1.6,1.09-1.98,3.28-.93,4.93l8.04,12.3c1.05,1.6,3.2,2.06,4.8.97l6.7-4.63c1.6-1.09,1.98-3.28.93-4.93Z"/><path class="cls-12" d="m648.46,475.03l6.61,13.18c.88,1.73,2.95,2.4,4.63,1.52l7.16-3.79c1.68-.88,2.36-3.03,1.47-4.76l-6.61-13.18c-.88-1.73-2.95-2.4-4.63-1.52l-7.16,3.79c-1.68.88-2.36,3.03-1.47,4.76Z"/><path class="cls-12" d="m636.04,438.4l4.38,14.15c.59,1.85,2.53,2.91,4.34,2.32l7.71-2.48c1.81-.59,2.82-2.57,2.23-4.42l-4.38-14.15c-.59-1.85-2.53-2.91-4.34-2.32l-7.71,2.48c-1.81.59-2.82,2.57-2.23,4.42Z"/><path class="cls-12" d="m627.7,399.86l2.95,14.53c.38,1.9,2.23,3.12,4.08,2.74l7.88-1.68c1.85-.42,3.07-2.27,2.65-4.17l-2.95-14.53c-.38-1.9-2.23-3.12-4.08-2.74l-7.88,1.68c-1.85.42-3.07,2.27-2.65,4.17Z"/><path class="cls-12" d="m707.67,546.54l-8.46-12c-1.14-1.6-3.28-1.94-4.8-.8l-6.53,4.84c-1.56,1.14-1.9,3.37-.76,4.93l8.46,12c1.14,1.6,3.28,1.94,4.8.8l6.53-4.84c1.56-1.14,1.9-3.37.76-4.93h0Z"/><path class="cls-12" d="m739.89,598.8l11.2,9.35c1.47,1.22,3.66,1.01,4.84-.51l5.1-6.44c1.18-1.52.97-3.75-.51-4.97l-11.2-9.35c-1.47-1.22-3.66-1.01-4.84.51l-5.1,6.44c-1.18,1.52-.97,3.75.51,4.97Z"/><path class="cls-12" d="m712.18,575.05l10.61,10.07c1.39,1.31,3.58,1.22,4.89-.21l5.47-6.06c1.31-1.43,1.22-3.66-.17-5.01l-10.61-10.07c-1.39-1.31-3.58-1.22-4.89.21l-5.47,6.06c-1.31,1.43-1.22,3.66.17,5.01Z"/><path class="cls-12" d="m769.32,621.46l12,8.25c1.56,1.09,3.71.67,4.8-.97l4.51-6.86c1.05-1.6.63-3.83-.93-4.93l-12-8.25c-1.56-1.09-3.71-.67-4.8.97l-4.51,6.86c-1.05,1.6-.63,3.83.93,4.93Z"/><path class="cls-12" d="m800.95,641.17l12.63,7.2c1.68.93,3.75.34,4.67-1.39l3.92-7.24c.93-1.73.34-3.87-1.35-4.8l-12.63-7.2c-1.68-.93-3.75-.34-4.67,1.39l-3.92,7.24c-.93,1.73-.34,3.87,1.35,4.8Z"/><path class="cls-12" d="m833.97,657.64l13.6,4.97c1.81.67,3.75-.29,4.42-2.15l2.7-7.79c.63-1.85-.29-3.87-2.11-4.51l-13.6-4.97c-1.81-.67-3.75.29-4.42,2.15l-2.7,7.79c-.63,1.85.29,3.87,2.11,4.51Z"/><path class="cls-12" d="m869.17,669.72l14.23,2.57c1.85.34,3.66-.93,4-2.86l1.39-8.17c.34-1.94-.93-3.75-2.78-4.08l-14.23-2.57c-1.85-.34-3.66.93-4,2.86l-1.39,8.17c-.34,1.94.93,3.75,2.78,4.08Z"/><rect class="cls-12" x="936.47" y="663.41" width="21.35" height="15.37" rx="1.43" ry="1.43"/><path class="cls-12" d="m905.48,676.21l14.32,1.9c1.9.25,3.62-1.14,3.87-3.07l1.01-8.21c.25-1.94-1.09-3.71-2.99-3.96l-14.32-1.9c-1.9-.25-3.62,1.14-3.87,3.07l-1.01,8.21c-.25,1.94,1.09,3.71,2.99,3.96Z"/><path class="cls-12" d="m957.65,635.74l14.44-.72c1.9-.08,3.37-1.77,3.28-3.71l-.38-8.25c-.08-1.94-1.73-3.45-3.62-3.37l-14.44.72c-1.9.08-3.37,1.77-3.28,3.71l.38,8.25c.08,1.94,1.73,3.45,3.62,3.37Z"/><path class="cls-12" d="m978.75,677.22l14.44-.72c1.9-.08,3.37-1.77,3.28-3.71l-.38-8.25c-.08-1.94-1.73-3.45-3.62-3.37l-14.44.72c-1.9.08-3.37,1.77-3.28,3.71l.38,8.25c.08,1.94,1.73,3.45,3.62,3.37Z"/><path class="cls-12" d="m1026.72,672.21l-14.28,2.4c-1.9.29-3.66-1.01-3.96-2.91l-1.31-8.17c-.29-1.94.97-3.75,2.86-4.04l14.28-2.4c1.9-.29,3.66,1.01,3.96,2.91l1.31,8.17c.29,1.94-.97,3.75-2.86,4.04Z"/><path class="cls-12" d="m1064.24,662.1l-13.81,4.25c-1.81.55-3.75-.51-4.3-2.36l-2.32-7.92c-.55-1.85.51-3.83,2.32-4.42l13.81-4.25c1.81-.55,3.75.51,4.3,2.36l2.32,7.92c.55,1.85-.51,3.83-2.32,4.42Z"/><path class="cls-12" d="m1099.07,650.14l-13.43,5.47c-1.77.72-3.79-.17-4.46-1.98l-2.99-7.71c-.72-1.81.17-3.87,1.94-4.59l13.43-5.47c1.77-.72,3.79.17,4.46,1.98l2.99,7.71c.72,1.81-.17,3.87-1.94,4.59Z"/><path class="cls-12" d="m1132.3,632.2l-12.63,7.2c-1.64.97-3.75.34-4.67-1.39l-3.92-7.24c-.93-1.73-.34-3.87,1.35-4.8l12.63-7.2c1.64-.97,3.75-.34,4.67,1.39l3.92,7.24c.93,1.73.34,3.87-1.35,4.8Z"/><path class="cls-12" d="m1165.52,610.51l-11.71,8.72c-1.56,1.14-3.71.8-4.8-.8l-4.72-6.7c-1.14-1.6-.76-3.79.76-4.93l11.71-8.72c1.56-1.14,3.71-.8,4.8.8l4.72,6.7c1.14,1.6.76,3.79-.76,4.93Z"/><path class="cls-12" d="m1192.81,585.62l-10.95,9.69c-1.43,1.26-3.62,1.09-4.84-.38l-5.26-6.27c-1.22-1.47-1.09-3.71.38-4.97l10.95-9.69c1.43-1.26,3.62-1.09,4.84.38l5.26,6.27c1.22,1.47,1.09,3.71-.38,4.97Z"/><path class="cls-12" d="m1215.81,558.38l-9.73,10.99c-1.26,1.43-3.45,1.56-4.89.25l-5.98-5.56c-1.39-1.31-1.52-3.54-.21-5.01l9.73-10.99c1.26-1.43,3.45-1.56,4.89-.25l5.98,5.56c1.39,1.31,1.52,3.54.21,5.01Z"/><path class="cls-12" d="m1238.17,528.01l-8.38,12.09c-1.09,1.6-3.24,1.98-4.8.84l-6.57-4.8c-1.56-1.14-1.94-3.33-.8-4.93l8.38-12.09c1.09-1.6,3.24-1.98,4.8-.84l6.57,4.8c1.56,1.14,1.94,3.33.8,4.93Z"/><path class="cls-12" d="m1256.87,497.27l-7.24,12.84c-.97,1.68-3.07,2.27-4.72,1.31l-6.99-4.13c-1.64-.97-2.23-3.16-1.26-4.84l7.24-12.84c.97-1.68,3.07-2.27,4.72-1.31l6.99,4.13c1.64.97,2.23,3.16,1.26,4.84Z"/><path class="cls-12" d="m1270.76,464l-4.84,13.98c-.63,1.85-2.61,2.78-4.42,2.15l-7.58-2.78c-1.81-.67-2.74-2.7-2.11-4.51l4.84-13.98c.63-1.85,2.61-2.78,4.42-2.15l7.58,2.78c1.81.67,2.74,2.7,2.11,4.51Z"/><path class="cls-12" d="m1277.97,429.22l-3.33,14.44c-.42,1.9-2.27,3.07-4.13,2.61l-7.83-1.9c-1.85-.46-2.99-2.36-2.57-4.25l3.33-14.44c.42-1.9,2.27-3.07,4.13-2.61l7.83,1.9c1.85.46,2.99,2.36,2.57,4.25Z"/><path class="cls-12" d="m1283.78,394.85l-1.85,14.7c-.25,1.94-1.98,3.33-3.87,3.07l-8-1.05c-1.9-.25-3.2-2.02-2.99-3.96l1.85-14.7c.25-1.94,1.98-3.33,3.87-3.07l8,1.05c1.9.25,3.2,2.02,2.99,3.96Z"/><rect class="cls-12" x="1270.34" y="357.54" width="14.95" height="21.9" rx="1.43" ry="1.43"/><path class="cls-1" d="m960.85,537.19l-4.55.46c-2.48.25-4.3,2.53-4.04,5.05l.25,2.44c.25,2.53,2.48,4.38,4.93,4.13l4.55-.46c2.48-.25,4.3-2.53,4.04-5.05l-.25-2.44c-.25-2.53-2.48-4.38-4.93-4.13Z"/><path class="cls-1" d="m963.38,562.8l-4.55.46c-2.48.25-4.3,2.53-4.04,5.05l.25,2.44c.25,2.53,2.48,4.38,4.93,4.13l4.55-.46c2.48-.25,4.3-2.53,4.04-5.05l-.25-2.44c-.25-2.53-2.48-4.38-4.93-4.13Z"/><rect class="cls-9" x="1272.49" y="313.78" width="14.95" height="21.9" rx="1.43" ry="1.43"/><path class="cls-9" d="m1271.02,218.86l-5.56-13.69c-.72-1.81-2.74-2.65-4.51-1.9l-7.45,3.2c-1.77.76-2.57,2.82-1.85,4.63l5.56,13.69c.72,1.81,2.74,2.65,4.51,1.9l7.45-3.2c1.77-.76,2.57-2.82,1.85-4.63Z"/><path class="cls-9" d="m1282.39,256.89l-3.92-14.28c-.51-1.9-2.4-2.99-4.25-2.44l-7.75,2.23c-1.81.55-2.91,2.48-2.4,4.38l3.92,14.28c.51,1.9,2.4,2.99,4.25,2.44l7.75-2.23c1.81-.55,2.91-2.48,2.4-4.38Z"/><path class="cls-9" d="m1285.04,294.5l-1.47-14.74c-.21-1.94-1.9-3.37-3.79-3.16l-8,.84c-1.9.21-3.28,1.94-3.07,3.87l1.47,14.74c.21,1.94,1.9,3.37,3.79,3.16l8-.84c1.9-.21,3.28-1.94,3.07-3.87Z"/><path class="cls-9" d="m1253.92,184.45l-6.23-13.39c-.84-1.77-2.86-2.53-4.59-1.64l-7.29,3.58c-1.73.84-2.44,2.95-1.6,4.72l6.23,13.39c.84,1.77,2.86,2.53,4.59,1.64l7.29-3.58c1.73-.84,2.44-2.95,1.6-4.72Z"/><path class="cls-9" d="m1193.32,97.87l-10.87-9.77c-1.43-1.31-3.62-1.14-4.84.34l-5.31,6.23c-1.26,1.47-1.09,3.71.29,5.01l10.87,9.77c1.43,1.31,3.62,1.14,4.84-.34l5.31-6.23c1.26-1.47,1.09-3.71-.29-5.01Z"/><path class="cls-9" d="m1215.22,125.33l-9.43-11.2c-1.26-1.47-3.41-1.64-4.84-.38l-6.11,5.39c-1.43,1.26-1.6,3.5-.34,4.97l9.43,11.2c1.26,1.47,3.41,1.64,4.84.38l6.11-5.39c1.43-1.26,1.6-3.5.34-4.97Z"/><path class="cls-9" d="m1236.27,154.13l-8.25-12.17c-1.09-1.6-3.24-1.98-4.8-.88l-6.61,4.72c-1.56,1.14-1.94,3.33-.84,4.93l8.25,12.17c1.09,1.6,3.24,1.98,4.8.88l6.61-4.72c1.56-1.14,1.94-3.33.84-4.93Z"/><path class="cls-9" d="m1169.23,75.09l-11.88-8.46c-1.56-1.09-3.71-.72-4.8.88l-4.59,6.78c-1.09,1.6-.72,3.79.84,4.93l11.88,8.46c1.56,1.09,3.71.72,4.8-.88l4.59-6.78c1.09-1.6.72-3.79-.84-4.93Z"/><path class="cls-9" d="m1105.09,39.5l-13.27-5.85c-1.77-.76-3.79.04-4.51,1.85l-3.16,7.62c-.76,1.81.04,3.87,1.81,4.63l13.27,5.85c1.77.76,3.79-.04,4.51-1.85l3.16-7.62c.76-1.81-.04-3.87-1.81-4.63Z"/><path class="cls-9" d="m1071.53,26.32l-13.9-4.04c-1.81-.55-3.75.55-4.25,2.44l-2.19,7.96c-.51,1.9.55,3.83,2.36,4.38l13.9,4.04c1.81.55,3.75-.55,4.25-2.44l2.19-7.96c.51-1.9-.55-3.83-2.36-4.38Z"/><path class="cls-9" d="m1139.62,56.09l-12.76-6.95c-1.68-.93-3.75-.25-4.67,1.47l-3.79,7.33c-.88,1.73-.25,3.87,1.43,4.8l12.76,6.95c1.68.93,3.75.25,4.67-1.47l3.79-7.33c.88-1.73.25-3.87-1.43-4.8Z"/><path class="cls-9" d="m1038.59,18.65l-14.19-2.78c-1.85-.38-3.66.88-4.04,2.82l-1.52,8.13c-.34,1.94.88,3.79,2.74,4.13l14.19,2.78c1.85.38,3.66-.88,4.04-2.82l1.52-8.13c.34-1.94-.88-3.79-2.74-4.13Z"/><path class="cls-9" d="m1003.77,14.78l-14.36-1.64c-1.9-.21-3.58,1.18-3.79,3.12l-.88,8.21c-.21,1.94,1.14,3.71,3.03,3.92l14.36,1.64c1.9.21,3.58-1.18,3.79-3.12l.88-8.21c.21-1.94-1.14-3.71-3.03-3.92Z"/><rect class="cls-9" x="953.06" y="13.73" width="21.35" height="15.37" rx="1.43" ry="1.43"/><path class="cls-16" d="m737.87,379.65l.67,4.63c.38,2.53-1.35,4.89-3.79,5.26l-2.36.38c-2.48.38-4.76-1.35-5.14-3.92l-.67-4.63c-.38-2.53,1.35-4.89,3.79-5.26l2.36-.38c2.48-.38,4.76,1.35,5.14,3.92Z"/></g><g><path class="cls-42" d="m766.44,990.07h-63.93s-11.08-59,0-72.81l11.08-13.77s23.54-21.35,26.45-53.57c2.91-32.22,39.92-60.81,39.92-60.81l42.53-40.18,291.3,16.13,51.67,133.75,36.47,103.56s-35.88,24.05-66.2,21.73c-30.32-2.32-109.28,1.47-140.32-6.06s-122.3,8.46-158.98,0c-36.68-8.46-69.91-27.96-69.91-27.96h-.08Z"/><path class="cls-42" d="m777.98,762.41c-.08-7.07,56.09,13.94,234.82,3.96,0,0,7.66.42,2.74,10.61l-43.17,1.35c-6.7,1.22-54.45,10.78-55.34,109.45,0,3.33-.25,4.55-11.2,3.45-12.63-1.26-21.94,3.16-25.82-3.75-6.99-12.42-17.69-96.19-83.68-110.63-38.7-8.46-23.63-4.55-23.63-4.55,0,0,.08-6.06,5.31-9.85l-.04-.04Z"/><path class="cls-42" d="m997.6,829.91c-.04-7.07,46.58,13.94,195.03,3.96,0,0,6.36.42,2.27,10.61l-35.84,1.35c-5.56,1.22-45.23,10.78-45.95,109.45,0,3.33-.21,4.55-9.31,3.45-10.49-1.26-18.19,3.16-21.44-3.75-5.81-12.42-14.7-96.19-69.49-110.63-32.17-8.46-19.62-4.55-19.62-4.55,0,0,.08-6.06,4.38-9.85l-.04-.04Z"/><path class="cls-42" d="m896.45,873.16c-.08-7.07,56.09,13.94,234.82,3.96,0,0,7.66.42,2.74,10.61l-43.17,1.35c-6.7,1.22-54.45,10.78-55.34,109.45,0,3.33-.25,4.55-11.2,3.45-12.63-1.26-21.94,3.16-25.82-3.75-6.99-12.42-17.69-96.19-83.68-110.63-38.7-8.46-23.63-4.55-23.63-4.55,0,0,.08-6.06,5.31-9.85l-.04-.04Z"/><path class="cls-42" d="m779.67,873.16c-.08-7.07,56.09,13.94,234.82,3.96,0,0,7.66.42,2.74,10.61l-43.17,1.35c-6.7,1.22-54.45,10.78-55.34,109.45,0,3.33-.25,4.55-11.2,3.45-12.63-1.26-21.94,3.16-25.82-3.75-6.99-12.42-17.69-96.19-83.68-110.63-38.7-8.46-23.63-4.55-23.63-4.55,0,0,.08-6.06,5.31-9.85l-.04-.04Z"/><path class="cls-42" d="m1005.77,1012.94c-5.22-4.8,48.51-31.42,163.48-168.62,0,0,5.56-5.31,9.6,5.26l-28.55,32.38c-3.71,5.69-29.35,47.12,42.03,115.22,2.4,2.27,3.16,3.33-5.14,10.53-9.6,8.34-12.68,18.15-20.38,16.26-13.81-3.41-82.29-52.85-137.96-14.61-32.68,22.45-19.5,14.15-19.5,14.15,0,0-4.38-4.21-3.58-10.61v.04Z"/><path class="cls-42" d="m680.62,871.02c-.08-7.07,12.8,12.34,207.03,2.36,0,0,8.34.42,2.95,10.61l-46.91,1.35c-7.24,1.22-59.17,10.78-60.14,109.45,0,3.33-.29,4.55-12.17,3.45-13.73-1.26-23.84,3.16-28.05-3.75-7.58-12.42,23.63-90.59-48.09-105.03-42.07-8.46,0,0,0,0,0,0-20.26-14.66-14.66-18.4l.04-.04Z"/><path class="cls-42" d="m819.97,853.41c-.08-7.07,56.09,13.94,234.82,3.96,0,0,7.66.42,2.74,10.61l-43.17,1.35c-6.7,1.22-54.45,10.78-55.34,109.45,0,3.33-.25,4.55-11.2,3.45-12.63-1.26-21.94,3.16-25.82-3.75-6.99-12.42-17.69-96.19-83.68-110.63-38.7-8.46-23.63-4.55-23.63-4.55,0,0,.08-6.06,5.31-9.85l-.04-.04Z"/><path class="cls-42" d="m797.1,850.59c2.82-6.49,45.57,35.5,212.97,99.05,0,0,6.82,3.5-1.81,10.82l-39.97-16.34c-6.57-1.6-54.16-12.3-95.05,77.53-1.39,3.03-2.11,4.04-11.62-1.39-11.03-6.32-21.31-6.02-22.07-13.94-1.31-14.19,22.95-95.09-31.5-135.1-31.92-23.5-19.75-13.77-19.75-13.77,0,0,2.57-5.52,8.84-6.86h-.04Z"/><path class="cls-42" d="m748.17,807.8c-.08-7.07,56.09,13.94,234.82,3.96,0,0,7.66.42,2.74,10.61l-43.17,1.35c-6.7,1.22-54.45,10.78-55.34,109.45,0,3.33-.25,4.55-11.2,3.45-12.63-1.26-21.94,3.16-25.82-3.75-6.99-12.42-17.69-96.19-83.68-110.63-38.7-8.46-23.63-4.55-23.63-4.55,0,0,.08-6.06,5.31-9.85l-.04-.04Z"/><path class="cls-42" d="m834.33,787.81c-.08-7.07,56.09,13.94,234.82,3.96,0,0,7.66.42,2.74,10.61l-43.17,1.35c-6.7,1.22-54.45,10.78-55.34,109.45,0,3.33-.25,4.55-11.2,3.45-12.63-1.26-21.94,3.16-25.82-3.75-6.99-12.42-17.69-96.19-83.68-110.63-38.7-8.46-23.63-4.55-23.63-4.55,0,0,.08-6.06,5.31-9.85l-.04-.04Z"/><path class="cls-42" d="m797.61,704.21c2.57-6.61,46.91,33.69,216.67,90.67,0,0,6.95,3.24-1.39,10.87l-40.6-14.74c-6.65-1.35-54.58-10.15-91.97,81.15-1.26,3.07-1.94,4.13-11.71-.93-11.29-5.9-21.52-5.18-22.57-13.06-1.9-14.11,19.2-95.89-36.72-133.75-32.81-22.24-20.26-12.97-20.26-12.97,0,0,2.36-5.6,8.55-7.2v-.04Z"/><path class="cls-42" d="m924.75,767.29c-1.18-6.99,57.57,5.05,232.59-32.47,0,0,7.66-.76,4.34,10.07l-42.45,8c-6.4,2.23-52.14,19.08-37.73,116.7.51,3.28.46,4.55-10.53,5.14-12.68.67-21.18,6.53-26.07.29-8.8-11.2-32.38-92.27-99.81-96.35-39.54-2.36-24.05-.84-24.05-.84,0,0-.84-6.02,3.71-10.57v.04Z"/></g><g><path class="cls-40" d="m1464.3,246.45c-362.63,1.72-725.32,58.76-1087.95,60.49-7.62,0-13.86-6.18-13.86-13.8v-126.2c0-7.62,6.18-13.86,13.86-13.86,362.63-1.72,725.32-58.76,1087.95-60.49,7.62,0,13.86,6.18,13.86,13.8v126.2c0,7.62-6.18,13.86-13.86,13.86Z"/><g><path class="cls-69" d="m549.71,263.26c-1.82.11-3.4-.39-4.73-1.52-1.33-1.12-2.06-2.55-2.2-4.28-.24-3.09-.46-7.73-.65-13.93-.19-6.2-.41-10.84-.65-13.93-.27-3.43-.74-8.56-1.42-15.4-.68-6.84-1.15-11.98-1.42-15.4-.13-1.7.55-3.45,2.06-5.26,1.5-1.81,3.18-2.79,5.03-2.93,1.02-.08,3.66.68,7.91,2.27,4.96,1.91,7.9,2.97,8.82,3.17,9.28,2.22,17.35,6.16,24.22,11.8,8.2,6.72,12.65,14.51,13.35,23.37.42,5.34-.49,10.52-2.74,15.54-2.24,5.11-5.53,9.33-9.86,12.66-4.86,3.74-11.94,5.97-21.23,6.7-2.25.18-4.87.06-7.86-.36-3.61-.52-6.49-1.35-8.63-2.49Zm22.28-49.65c-3.14-1.65-9.8-4.11-19.96-7.38l3.6,45.85c1.26.68,2.69,1.15,4.28,1.41,1.59.26,3.34.32,5.25.17,6.67-.52,11.38-1.83,14.14-3.91,2.61-1.98,4.61-4.54,5.99-7.69,1.38-3.15,1.95-6.36,1.69-9.64-.6-7.66-5.6-13.93-14.99-18.81Z"/><path class="cls-69" d="m648.25,228.12c.16,2.07.42,5.19.78,9.35.36,4.17.62,7.28.78,9.35.05.65.18,1.61.39,2.88.21,1.27.34,2.23.39,2.88.14,1.73-.38,3.21-1.54,4.43-1.16,1.22-2.65,1.91-4.47,2.05-2.56.2-4.52-.81-5.88-3.03-3.84,1.76-7.87,2.81-12.1,3.14-4.38.34-8.15-.29-11.29-1.89-3.53-1.85-5.78-4.78-6.75-8.79-1.81-7.58-2.95-14.4-3.42-20.45-.31-3.99-.21-8.59.31-13.79.34-3.52,2.29-5.42,5.84-5.7,1.79-.14,3.36.3,4.72,1.32,1.35,1.02,2.1,2.39,2.23,4.1.11,1.35.05,3.48-.17,6.4-.22,2.92-.27,5.13-.15,6.63.34,4.32.78,8.09,1.33,11.3.55,3.21,1.2,5.85,1.95,7.92.8.28,1.57.48,2.31.61.74.13,1.45.16,2.13.11,3.43-.27,7.15-1.06,11.18-2.37-.19-2.38-.41-5.08-.68-8.1-.35-3.61-.58-6.2-.7-7.77-.5-6.33-.63-11.82-.41-16.46.17-3.71,2.13-5.71,5.86-6.01,1.82-.14,3.43.31,4.81,1.35,1.39,1.04,2.1,2.43,2.14,4.16.34,11.81.47,17.27.4,16.37Z"/><path class="cls-69" d="m751.16,191.09c-2.41.19-6.17.32-11.29.38-4.94.05-8.7.19-11.29.42.4,3.51,1.31,9.75,2.73,18.7,1.27,7.91,2.09,14.19,2.46,18.82.08,1.05.31,2.6.69,4.65.38,2.05.61,3.6.69,4.65.18,2.32-.15,4.44-.99,6.37-1.08,2.48-2.79,3.81-5.14,3.99-1.7.13-3.24-.29-4.62-1.27-1.55-1.09-2.39-2.54-2.53-4.37-.03-.43,0-1.09.08-1.98.08-.89.11-1.57.07-2.03-.11-1.42-.38-3.56-.81-6.41-.43-2.86-.7-5.01-.81-6.46-.32-4.14-1.09-9.71-2.29-16.73-1.38-8.06-2.25-13.63-2.62-16.71l-2.41.19c-6.89.54-12.39.48-16.51-.19-3.49-.56-5.36-2.45-5.62-5.66-.12-1.57.32-3.04,1.33-4.39,1.18-1.61,2.82-2.43,4.93-2.44,1.08-.02,3.56.05,7.42.21,3.08.1,5.57.07,7.45-.07,1.88-.15,4.7-.4,8.44-.76,3.75-.36,6.56-.61,8.44-.76,2.35-.18,5.88-.3,10.6-.34,4.72-.04,8.25-.16,10.6-.34,1.85-.15,3.45.33,4.8,1.44,1.35,1.11,2.09,2.54,2.23,4.3.14,1.76-.37,3.3-1.52,4.62-1.15,1.32-2.66,2.05-4.51,2.19Z"/><path class="cls-69" d="m806.38,245.19c-1.42.11-3.78-1.09-7.08-3.59-2.73,1.58-5.15,2.8-7.26,3.67-2.11.86-3.92,1.36-5.43,1.48-7.44.58-13.18-.97-17.21-4.66-4.03-3.69-6.36-9.5-6.99-17.44-.58-7.44,1.66-14.02,6.74-19.75,5.08-5.73,11.45-8.89,19.1-9.49,2.93-.23,6.39.33,10.38,1.67,4.82,1.62,7.33,3.75,7.54,6.37.09,1.1-.19,2.09-.84,2.97-.21,1.25-.33,2.8-.36,4.66-.02,1.86.06,4.03.25,6.51.46,5.84,1.21,10.01,2.24,12.51.11.27.95,1.8,2.5,4.6,1.41,2.54,2.13,3.98,2.16,4.35.13,1.62-.39,3.02-1.56,4.18-1.17,1.17-2.57,1.82-4.2,1.94Zm-13.94-30.36c-.08-.99-.1-2.13-.06-3.42.04-1.29.13-2.74.29-4.33-.64-.26-1.21-.44-1.7-.54-.49-.1-.9-.14-1.24-.11-4.2.33-7.74,2.26-10.63,5.8-2.89,3.54-4.17,7.46-3.83,11.79.32,4.14,1.31,7.19,2.96,9.16,1.65,1.97,3.95,2.83,6.91,2.6,1.91-.15,3.7-.61,5.37-1.38,1.66-.77,3.2-1.83,4.62-3.18-1.5-7.27-2.4-12.73-2.68-16.38Z"/><path class="cls-69" d="m841.07,241.85c-4.32.34-8.49-.1-12.5-1.3-1.05,1.23-2.4,1.91-4.03,2.04-1.67.13-3.14-.31-4.41-1.33-1.28-1.02-1.98-2.36-2.11-4.03-.06-.74-.1-1.88-.13-3.42-.03-1.53-.07-2.67-.13-3.41l-4.12-52.47c-.17-2.22.16-4.24,1.02-6.04,1.06-2.29,2.74-3.52,5.02-3.7,3.3-.26,5.1,1.4,5.38,4.98.03.4.03,1.05-.01,1.94-.04.89-.04,1.53-.01,1.93l1.39,17.74c2.19-1.45,4.3-2.57,6.35-3.36,2.05-.8,4.05-1.27,5.99-1.43,7.25-.57,13.33,1.61,18.22,6.54,4.56,4.61,7.11,10.44,7.66,17.48.56,7.16-1.38,13.42-5.84,18.77-4.54,5.48-10.45,8.51-17.74,9.08Zm-1.37-40.01c-1.61.13-3.42.73-5.45,1.83-2.03,1.09-4.28,2.67-6.76,4.73.2,2.94.71,9.5,1.55,19.68,4.37,1.49,8.07,2.11,11.1,1.88,3.92-.31,7.04-1.88,9.37-4.72,2.32-2.84,3.33-6.26,3.01-10.28-.31-4.01-1.61-7.25-3.88-9.71-2.37-2.55-5.35-3.68-8.93-3.4Z"/><path class="cls-69" d="m904.95,197.37c-.65.05-1.41.09-2.3.11-.88.02-1.65.06-2.3.11-1.27.1-2.72.34-4.37.72,1.54,12.43,2.45,20.56,2.76,24.39.03.4.11,1.15.22,2.24.12,1.09.2,1.98.26,2.66.56,7.1-1.4,10.83-5.88,11.18-1.7.13-3.21-.28-4.52-1.23-1.45-1.01-2.23-2.34-2.37-4.01-.09-1.11-.17-2.78-.25-5.01-.08-2.23-.17-3.9-.25-5.01-.29-3.74-1.2-11.71-2.72-23.92-1.92.06-4.84.03-8.74-.08-3.91-.11-6-1.96-6.28-5.54-.14-1.73.33-3.24,1.41-4.54,1.08-1.3,2.54-2.02,4.4-2.16,1.14-.09,3.78-.11,7.92-.06-.11-.99-.31-2.61-.62-4.89-.28-1.97-.46-3.49-.55-4.57-.14-1.73.38-3.21,1.56-4.46,1.18-1.24,2.66-1.93,4.45-2.07,4.57-.36,7.16,3.31,7.76,10.99l.21,3.81c1.89-.43,3.44-.69,4.64-.78,3.55-.28,5.99-.24,7.33.12,2.54.67,3.92,2.46,4.15,5.36.14,1.76-.35,3.27-1.46,4.54-1.11,1.27-2.59,1.98-4.45,2.12Z"/><path class="cls-69" d="m943.38,234c-7.38.58-13.55-.7-18.52-3.86-5.49-3.48-8.52-8.76-9.07-15.83-.61-7.81.92-14.58,4.6-20.3,4.1-6.35,10.02-9.83,17.77-10.44,5.37-.42,9.9.09,13.59,1.54,4.84,1.92,7.45,5.29,7.83,10.1.27,3.4-1.4,6.56-4.99,9.48-1.63,1.34-4.97,3.37-10,6.1l-15.06,8.13c1.61,1.49,3.49,2.55,5.66,3.19,2.16.64,4.6.85,7.32.64,4.14-.33,7.57-1.45,10.31-3.37,2.44-1.71,4.44-2.63,5.98-2.75,3.21-.25,4.94,1.18,5.18,4.3.28,3.52-2.08,6.59-7.06,9.22-4.18,2.19-8.69,3.48-13.54,3.86Zm-4.34-39.22c-2.87.23-5.25,1.38-7.14,3.45-1.89,2.08-3.3,5.07-4.23,9,3.37-1.79,6.73-3.56,10.07-5.31,4.02-2.21,7.2-4.21,9.55-6.01-2.16-1.01-4.91-1.39-8.24-1.12Z"/><path class="cls-69" d="m1035.96,227.42c-7.84.62-14.15-.64-18.93-3.78-4.03-2.6-6.19-5.81-6.49-9.6-.15-1.94.31-3.6,1.38-4.98,1.07-1.37,2.64-2.14,4.71-2.3,2.78-.22,4.93,1.04,6.45,3.78,2.06,3.66,6.19,5.25,12.4,4.76,5.31-.42,10.36-1.98,15.15-4.69,4.97-2.78,7.34-5.59,7.12-8.43-.31-3.89-2.11-6.33-5.42-7.31-2.36-.71-6.98-.88-13.88-.49-5.35.3-10.22-.33-14.59-1.88-5.91-2.11-9.01-5.57-9.29-10.36-.38-6.03,2.4-11.8,8.33-17.31,5.93-5.51,12.71-8.57,20.34-9.17,3.02-.24,6.82.16,11.37,1.2,5.66,1.3,8.58,3.07,8.76,5.32.13,1.61-.32,3.07-1.33,4.39-1.13,1.49-2.66,2.31-4.61,2.46-1.45.11-3.64-.02-6.58-.42-2.94-.39-5.14-.53-6.62-.41-3.98.34-7.69,1.6-11.12,3.76-3.55,2.21-5.24,4.44-5.07,6.69.09,1.17.73,2.09,1.92,2.76,1.19.67,2.92,1.07,5.2,1.2,3.97-.09,7.92-.19,11.86-.28,6.9-.01,12.46,1.49,16.71,4.51,4.67,3.36,7.27,8.31,7.78,14.86.63,7.96-3.44,14.36-12.19,19.18-6.67,3.66-14.45,5.84-23.34,6.54Z"/><path class="cls-69" d="m1101.39,222.19c-2.66.21-5.47.12-8.46-.27l1.44,18.9c.14,1.79-.34,3.32-1.46,4.59-1.11,1.27-2.59,1.97-4.45,2.12s-3.43-.32-4.72-1.4c-1.3-1.08-2.02-2.51-2.16-4.3-.11-1.45-.54-7.21-1.26-17.28-.53-7.48-1-13.57-1.44-18.29-.62-6.66-1.28-12.39-2-17.18-.99-6.6-1.46-9.62-1.41-9.07-.2-2.56.2-4.8,1.2-6.71,1.17-2.17,2.88-3.35,5.13-3.52,1.73-.14,3.23.34,4.49,1.42,1.26,1.08,1.96,2.44,2.09,4.08v.47c1.97-1.34,3.97-2.37,6.01-3.11,2.04-.73,4.11-1.19,6.21-1.35,7.1-.56,12.52,2.04,16.27,7.81,2.79,4.35,4.48,10.13,5.04,17.36.53,6.76-.96,12.52-4.47,17.27-3.76,5.11-9.12,7.94-16.06,8.48Zm.19-38.55c-1.95.15-3.89.76-5.82,1.83-1.94,1.07-3.85,2.59-5.75,4.57.87,6.33,1.56,12.69,2.06,19.08,2.82.68,5.6.91,8.35.7,3.18-.25,5.53-1.57,7.05-3.96,1.38-2.16,1.94-4.97,1.67-8.42-.33-4.17-.74-7.04-1.24-8.62-1.19-3.7-3.3-5.43-6.33-5.19Z"/><path class="cls-69" d="m1136.67,160.66c-1.98.16-3.74-.37-5.3-1.59-1.56-1.21-2.41-2.78-2.56-4.69-.15-1.91.45-3.59,1.79-5.03,1.35-1.44,3.01-2.24,4.98-2.4s3.73.37,5.27,1.59c1.54,1.22,2.38,2.78,2.54,4.69.15,1.91-.44,3.59-1.77,5.03-1.33,1.44-2.99,2.24-4.96,2.39Zm6.6,33.63c.14,1.76.41,4.58.83,8.46.41,3.88.69,6.7.83,8.46.14,1.79-.35,3.31-1.46,4.56-1.11,1.25-2.6,1.95-4.45,2.1-1.85.15-3.43-.31-4.72-1.38-1.29-1.06-2.01-2.49-2.15-4.28-.14-1.76-.42-4.58-.83-8.46-.41-3.88-.69-6.7-.83-8.46-.22-2.75-.33-6.2-.35-10.36-.02-4.16-.13-7.62-.35-10.36-.14-1.79.35-3.31,1.46-4.56,1.11-1.25,2.6-1.95,4.45-2.1,1.85-.15,3.43.31,4.72,1.38,1.29,1.06,2.01,2.49,2.15,4.28.22,2.75.33,6.2.35,10.36s.13,7.62.35,10.36Z"/><path class="cls-69" d="m1170.8,207.14c.46,5.87-1.44,8.97-5.7,9.3-1.85.15-3.43-.32-4.72-1.4-1.3-1.08-2.02-2.54-2.16-4.4l-5.03-64.05c-.14-1.79.39-3.31,1.6-4.55,1.15-1.15,2.64-1.79,4.46-1.93,1.82-.14,3.36.29,4.62,1.29,1.26,1,1.96,2.4,2.1,4.19l4.84,61.55Z"/><path class="cls-69" d="m1196.78,205.1c.46,5.87-1.44,8.96-5.7,9.3-1.85.15-3.43-.32-4.72-1.4-1.3-1.08-2.02-2.54-2.16-4.4l-5.03-64.05c-.14-1.79.39-3.31,1.6-4.55,1.15-1.15,2.64-1.79,4.46-1.93,1.82-.14,3.36.29,4.62,1.29,1.26,1,1.96,2.4,2.1,4.19l4.84,61.55Z"/><path class="cls-69" d="m1232.54,211.28c-7.38.58-13.55-.7-18.52-3.86-5.49-3.48-8.52-8.76-9.07-15.83-.61-7.81.92-14.58,4.6-20.3,4.1-6.35,10.02-9.83,17.77-10.44,5.37-.42,9.9.09,13.59,1.54,4.84,1.92,7.45,5.29,7.83,10.1.27,3.4-1.4,6.56-4.99,9.48-1.63,1.34-4.97,3.37-10,6.1l-15.06,8.13c1.61,1.49,3.49,2.55,5.66,3.19,2.16.64,4.6.85,7.32.64,4.14-.33,7.57-1.45,10.31-3.37,2.44-1.71,4.44-2.63,5.98-2.75,3.21-.25,4.94,1.18,5.18,4.3.28,3.52-2.08,6.59-7.06,9.22-4.18,2.19-8.69,3.48-13.54,3.86Zm-4.34-39.22c-2.87.23-5.25,1.38-7.14,3.45-1.89,2.08-3.3,5.07-4.23,9,3.37-1.79,6.73-3.56,10.07-5.31,4.02-2.21,7.2-4.21,9.55-6.01-2.16-1.01-4.91-1.39-8.24-1.12Z"/><path class="cls-69" d="m1291.82,166.97c-.65.05-1.41.09-2.3.11-.88.02-1.65.06-2.3.11-1.27.1-2.72.34-4.37.72,1.54,12.43,2.46,20.56,2.76,24.39.03.4.11,1.15.22,2.24.12,1.09.2,1.98.26,2.66.56,7.1-1.4,10.83-5.88,11.18-1.7.13-3.21-.28-4.52-1.23-1.45-1.01-2.23-2.34-2.37-4.01-.09-1.11-.17-2.78-.25-5.01s-.17-3.9-.25-5.01c-.29-3.74-1.2-11.71-2.72-23.92-1.92.06-4.84.03-8.74-.08-3.91-.11-6-1.96-6.28-5.54-.14-1.73.33-3.24,1.41-4.54,1.08-1.3,2.54-2.02,4.4-2.16,1.14-.09,3.78-.11,7.92-.06-.11-.99-.31-2.61-.62-4.89-.28-1.97-.46-3.49-.55-4.57-.14-1.73.38-3.21,1.56-4.46,1.18-1.24,2.66-1.93,4.45-2.07,4.57-.36,7.16,3.31,7.76,10.99l.21,3.81c1.89-.43,3.44-.69,4.64-.78,3.55-.28,5.99-.24,7.33.12,2.54.67,3.92,2.46,4.15,5.36.14,1.76-.35,3.27-1.46,4.54-1.11,1.27-2.59,1.98-4.45,2.12Z"/></g></g><g><polygon class="cls-39" points="277.52 478.12 216.57 423.72 258.99 409.72 277.52 478.12"/><ellipse class="cls-39" cx="169.75" cy="347.15" rx="136.74" ry="83.62"/><g><path d="m106.83,343.99c-.7,0-1.31-.23-1.82-.68-.51-.45-.77-.96-.77-1.52s.26-1.09.77-1.55,1.12-.69,1.82-.69c.74,0,1.36.22,1.84.65.48.43.72.97.72,1.6,0,.57-.25,1.08-.75,1.53s-1.11.67-1.81.67Z"/><path d="m120.79,343.99c-.7,0-1.31-.23-1.82-.68-.51-.45-.77-.96-.77-1.52s.26-1.09.77-1.55,1.12-.69,1.82-.69c.74,0,1.36.22,1.84.65.48.43.72.97.72,1.6,0,.57-.25,1.08-.75,1.53s-1.11.67-1.81.67Z"/><path d="m134.75,343.99c-.7,0-1.31-.23-1.82-.68-.51-.45-.77-.96-.77-1.52s.26-1.09.77-1.55,1.12-.69,1.82-.69c.74,0,1.36.22,1.84.65.48.43.72.97.72,1.6,0,.57-.25,1.08-.75,1.53s-1.11.67-1.81.67Z"/><path d="m150.76,343.29c-2.66,0-4.76-.61-6.29-1.84-1.29-1.02-1.93-2.2-1.93-3.53,0-.68.2-1.25.6-1.7.4-.45.95-.68,1.65-.68.94,0,1.64.5,2.08,1.5.6,1.33,1.95,2,4.06,2,1.8,0,3.55-.41,5.24-1.22,1.75-.84,2.63-1.75,2.63-2.75,0-1.37-.55-2.27-1.64-2.7-.78-.31-2.33-.5-4.67-.55-1.81-.04-3.44-.4-4.87-1.06-1.94-.9-2.89-2.19-2.86-3.87.03-2.12,1.12-4.06,3.27-5.82,2.15-1.76,4.52-2.65,7.11-2.65,1.03,0,2.3.24,3.81.73,1.88.61,2.81,1.31,2.81,2.1,0,.56-.19,1.06-.57,1.5-.42.49-.96.73-1.62.73-.49,0-1.23-.11-2.21-.33-.98-.22-1.72-.33-2.22-.33-1.35.01-2.64.35-3.85,1.01-1.26.67-1.89,1.41-1.89,2.2,0,.41.19.75.57,1.02.38.27.96.45,1.72.56,1.34.08,2.68.15,4.01.23,2.33.18,4.17.86,5.52,2.03,1.49,1.3,2.23,3.1,2.23,5.4,0,2.8-1.54,4.92-4.62,6.36-2.35,1.1-5.03,1.64-8.05,1.64Z"/><path d="m178.1,343.46c-1.29,0-2.01-.66-2.15-1.97-.15-1.12-.29-2.24-.44-3.37-.16-1.19-.24-2.32-.24-3.37,0-.28.02-.77.06-1.45.04-.68.05-1.17.05-1.45,0-.08.01-.27.03-.58.02-.31.03-.56.03-.76,0-.9-.21-1.35-.63-1.35-.9,0-1.78.6-2.64,1.79-.86,1.2-1.54,2.71-2.03,4.54-.02.37-.06.86-.13,1.47-.06.5-.09.99-.09,1.47,0,.31-.03.78-.1,1.41-.07.63-.1,1.1-.1,1.41,0,.63-.21,1.16-.62,1.58s-.94.63-1.56.63-1.15-.21-1.56-.62c-.41-.41-.61-.94-.61-1.57,0-.31-.03-.78-.09-1.4s-.09-1.09-.09-1.4c0-1.06.07-2.54.22-4.43.15-1.89.22-3.37.22-4.43,0-.33-.02-.83-.05-1.48-.04-.66-.06-1.15-.06-1.47,0-.62.21-1.13.64-1.53.42-.4.95-.61,1.56-.61,1.37,0,2.11.85,2.2,2.56l.02.18c1.53-1.6,3.14-2.39,4.84-2.39,1.98,0,3.35.86,4.1,2.57.5,1.15.75,2.87.75,5.16v1.16c-.01.5-.02.85-.02,1.06,0,.85.11,1.94.34,3.27.23,1.33.34,2.42.34,3.26,0,.61-.21,1.11-.63,1.51s-.94.6-1.56.6Z"/><path d="m197.76,326.93c0,.28-.09.57-.28.86-.29.47-.7,1.02-1.23,1.66.58,1.31.86,2.77.86,4.38,0,2.52-.65,4.67-1.95,6.45-1.45,1.99-3.4,2.98-5.85,2.98-1.61,0-3.06-.49-4.34-1.48-.4.46-.74.83-1.04,1.12-.35.35-.69.52-1.04.52-.38,0-.71-.15-1.01-.45-.29-.3-.44-.64-.44-1.03,0-.31.13-.64.38-.96.34-.43.74-.92,1.21-1.45-.71-1.26-1.09-2.72-1.13-4.38-.08-2.4.54-4.54,1.89-6.41,1.59-2.21,3.82-3.32,6.67-3.32,1.59,0,2.95.52,4.06,1.55.15-.2.37-.48.68-.85.36-.42.72-.63,1.1-.63s.73.14,1.02.43c.29.29.44.63.44,1.02Zm-6.01,3.29c-.4-.34-.9-.5-1.49-.5-1.3-.01-2.32.6-3.05,1.82-.63,1.03-.94,2.24-.94,3.61,0,.33.02.63.06.93l.41-.44c2-2.13,3.67-3.93,5.02-5.42Zm1.16,4.75c.02-.66.01-1.25-.03-1.77l-1.21,1.29c-.56.61-1.82,1.97-3.79,4.09.45.27.93.41,1.43.41.9,0,1.69-.32,2.36-.96.78-.74,1.19-1.75,1.24-3.04Z"/><path d="m207.21,325.58c1.4-.13,2.41-.2,3.02-.2,1.96,0,2.94.69,2.94,2.08s-1.04,2.12-3.13,2.05c-.66-.02-1.66.03-3,.15-.04,1.15-.05,2.62-.03,4.4.04,2.56.06,4.02.06,4.38,0,1.99-.12,3.56-.36,4.72-.24,1.16-.93,1.74-2.08,1.74-.59,0-1.1-.2-1.53-.59-.44-.39-.65-.88-.65-1.48,0-.14.01-.28.03-.41.25-1.55.38-3.01.38-4.38v-8.14c-.19.01-.53.05-1.04.13-.4.05-.7.08-.91.08-.64,0-1.17-.19-1.59-.58-.42-.39-.63-.9-.63-1.55,0-1.01.51-1.67,1.54-1.99.46-.14,1.38-.23,2.75-.28.01-.2.08-.81.2-1.84.29-2.42.93-4.22,1.9-5.4,1.22-1.48,3.08-2.21,5.6-2.21,1.92,0,2.88.71,2.88,2.13s-.89,2.12-2.67,2.12c-1.27,0-2.19.46-2.77,1.38-.43.68-.72,1.75-.86,3.21l-.05.47Z"/><path d="m227.21,329.2c-.22,0-.48,0-.78-.02-.3-.02-.56-.02-.78-.02-.43,0-.93.04-1.49.13.19,4.38.28,7.25.28,8.59,0,.14,0,.4.02.79.01.39.02.7.02.94,0,2.5-.76,3.74-2.28,3.74-.58,0-1.07-.19-1.49-.55-.46-.39-.69-.88-.69-1.46,0-.39.02-.98.05-1.76.03-.78.05-1.37.05-1.76,0-1.31-.09-4.12-.28-8.43-.65-.03-1.63-.12-2.95-.27s-1.97-.85-1.97-2.11c0-.61.2-1.12.6-1.55.4-.42.91-.64,1.54-.64.39,0,1.28.07,2.67.2-.01-.35-.04-.92-.08-1.73-.04-.69-.06-1.23-.06-1.61,0-.61.21-1.11.64-1.51s.95-.6,1.56-.6c1.55,0,2.33,1.35,2.33,4.05l-.03,1.33c.65-.1,1.18-.15,1.59-.15,1.21,0,2.03.08,2.47.24.84.3,1.26.97,1.26,1.99,0,.62-.2,1.13-.61,1.55-.41.41-.93.62-1.56.62Z"/><path d="m112.57,370.39c-1.04,0-1.66-.45-1.87-1.35-.42-.08-.85-.11-1.29-.11-2.53,0-3.79.36-3.79,1.07,0,.42.76.99,2.28,1.71,2.08.99,3.48,1.76,4.21,2.31,1.52,1.14,2.28,2.43,2.28,3.86,0,1.87-.84,3.28-2.52,4.25-1.35.77-3.01,1.16-4.98,1.16-1.39,0-2.67-.22-3.82-.67-1.57-.61-2.36-1.5-2.36-2.69,0-1.08.62-1.63,1.87-1.63.48,0,1.18.16,2.09.47.91.31,1.61.47,2.11.47,2.13,0,3.2-.45,3.21-1.33,0-.55-.74-1.17-2.22-1.84-2.16-.99-3.54-1.7-4.15-2.13-1.48-1.07-2.22-2.38-2.22-3.92,0-2.18,1.12-3.65,3.35-4.41,1.31-.44,3.3-.67,5.98-.67,1.05,0,1.82.14,2.33.42.69.38,1.04,1.08,1.04,2.1,0,1.95-.51,2.93-1.53,2.93Z"/><path d="m129.56,383.46c-1.29,0-2.01-.66-2.15-1.97-.15-1.12-.29-2.24-.44-3.37-.16-1.19-.24-2.32-.24-3.37,0-.28.02-.77.06-1.45.04-.68.05-1.17.05-1.45,0-.08.01-.27.03-.58.02-.31.03-.56.03-.76,0-.9-.21-1.35-.63-1.35-.9,0-1.78.6-2.64,1.79-.86,1.2-1.54,2.71-2.03,4.54-.02.37-.06.86-.13,1.47-.06.5-.09.99-.09,1.47,0,.31-.03.78-.1,1.41-.07.63-.1,1.1-.1,1.41,0,.63-.21,1.16-.62,1.58s-.94.63-1.56.63-1.15-.21-1.56-.62c-.41-.41-.61-.94-.61-1.57,0-.31-.03-.78-.09-1.4s-.09-1.09-.09-1.4c0-1.06.07-2.54.22-4.43.15-1.89.22-3.37.22-4.43,0-.33-.02-.83-.05-1.48-.04-.66-.06-1.15-.06-1.47,0-.62.21-1.13.64-1.53.42-.4.95-.61,1.56-.61,1.37,0,2.11.85,2.2,2.56l.02.18c1.53-1.6,3.14-2.39,4.84-2.39,1.98,0,3.35.86,4.1,2.57.5,1.15.75,2.87.75,5.16v1.16c-.01.5-.02.85-.02,1.06,0,.85.11,1.94.34,3.27.23,1.33.34,2.42.34,3.26,0,.61-.21,1.11-.63,1.51s-.94.6-1.56.6Z"/><path d="m149.22,366.94c0,.28-.09.57-.28.86-.29.47-.7,1.02-1.23,1.66.58,1.31.86,2.77.86,4.38,0,2.52-.65,4.67-1.95,6.45-1.45,1.99-3.4,2.98-5.85,2.98-1.61,0-3.06-.49-4.34-1.48-.4.46-.74.83-1.04,1.12-.35.35-.69.52-1.04.52-.38,0-.71-.15-1.01-.45-.29-.3-.44-.64-.44-1.03,0-.31.13-.64.38-.96.34-.43.74-.92,1.21-1.45-.71-1.26-1.09-2.72-1.13-4.38-.08-2.4.54-4.54,1.89-6.41,1.59-2.21,3.82-3.32,6.67-3.32,1.59,0,2.95.52,4.06,1.55.15-.2.37-.48.68-.85.36-.42.72-.63,1.1-.63s.73.14,1.02.43c.29.29.44.63.44,1.02Zm-6.01,3.29c-.4-.34-.9-.5-1.49-.5-1.3-.01-2.32.6-3.05,1.82-.63,1.03-.94,2.24-.94,3.61,0,.33.02.63.06.93l.41-.44c2-2.13,3.67-3.93,5.02-5.42Zm1.16,4.75c.02-.66.01-1.25-.03-1.77l-1.21,1.29c-.56.61-1.82,1.97-3.79,4.09.45.27.93.41,1.43.41.9,0,1.69-.32,2.36-.96.78-.74,1.19-1.75,1.24-3.04Z"/><path d="m158.67,365.59c1.4-.13,2.41-.2,3.02-.2,1.96,0,2.94.69,2.94,2.08s-1.04,2.12-3.13,2.05c-.66-.02-1.66.03-3,.15-.04,1.15-.05,2.62-.03,4.4.04,2.56.06,4.02.06,4.38,0,1.99-.12,3.56-.36,4.72-.24,1.16-.93,1.74-2.08,1.74-.59,0-1.1-.2-1.53-.59-.44-.39-.65-.88-.65-1.48,0-.14.01-.28.03-.41.25-1.55.38-3.01.38-4.38v-8.14c-.19.01-.53.05-1.04.13-.4.05-.7.08-.91.08-.64,0-1.17-.19-1.59-.58-.42-.39-.63-.9-.63-1.55,0-1.01.51-1.67,1.54-1.99.46-.14,1.38-.23,2.75-.28.01-.2.08-.81.2-1.84.29-2.42.93-4.22,1.9-5.4,1.22-1.48,3.08-2.21,5.6-2.21,1.92,0,2.88.71,2.88,2.13s-.89,2.12-2.67,2.12c-1.27,0-2.19.46-2.77,1.38-.43.68-.72,1.75-.86,3.21l-.05.47Z"/><path d="m178.67,369.2c-.22,0-.48,0-.78-.02-.3-.02-.56-.02-.78-.02-.43,0-.93.04-1.49.13.19,4.38.28,7.25.28,8.59,0,.14,0,.4.02.79.01.39.02.7.02.94,0,2.5-.76,3.74-2.28,3.74-.58,0-1.07-.19-1.49-.55-.46-.39-.69-.88-.69-1.46,0-.39.02-.98.05-1.76.03-.78.05-1.37.05-1.76,0-1.31-.09-4.12-.28-8.43-.65-.03-1.63-.12-2.95-.27s-1.97-.85-1.97-2.11c0-.61.2-1.12.6-1.55.4-.42.91-.64,1.54-.64.39,0,1.28.07,2.67.2-.01-.35-.04-.92-.08-1.73-.04-.69-.06-1.23-.06-1.61,0-.61.21-1.11.64-1.51s.95-.6,1.56-.6c1.55,0,2.33,1.35,2.33,4.05l-.03,1.33c.65-.1,1.18-.15,1.59-.15,1.21,0,2.03.08,2.47.24.84.3,1.26.97,1.26,1.99,0,.62-.2,1.13-.61,1.55-.41.41-.93.62-1.56.62Z"/><path d="m195.23,363.44c-.75.15-1.65.29-2.67.41,1.78,1.87,2.67,3.14,2.67,3.83,0,.53-.21.98-.63,1.36-.42.37-.9.56-1.45.56-.58,0-1.16-.31-1.76-.93-.44-.54-.88-1.08-1.32-1.61-.42-.5-.79-.91-1.12-1.22-2.17,2.13-3.64,3.19-4.4,3.19-.56,0-1.04-.2-1.45-.59s-.61-.85-.61-1.37c0-.48.27-.98.8-1.51.46-.38.93-.77,1.4-1.16.29-.25.53-.45.71-.6-1.3-.41-2.26-.75-2.88-1.01-.85-.36-1.27-.92-1.27-1.69,0-.51.19-.97.57-1.38.38-.41.86-.62,1.44-.62.3,0,1.5.38,3.58,1.14-.05-.93-.08-1.59-.08-1.97,0-.54.19-1,.58-1.36.39-.36.87-.55,1.45-.55s1.06.18,1.45.55c.39.36.59.82.59,1.36,0,.66.02,1.27.05,1.82,1.91-.29,3.25-.44,4.04-.44.58,0,1.05.19,1.42.58.37.39.56.84.56,1.36,0,1.01-.56,1.63-1.68,1.86Z"/><path d="m212.28,363.44c-.75.15-1.65.29-2.67.41,1.78,1.87,2.67,3.14,2.67,3.83,0,.53-.21.98-.63,1.36-.42.37-.9.56-1.45.56-.58,0-1.16-.31-1.76-.93-.44-.54-.88-1.08-1.32-1.61-.42-.5-.79-.91-1.12-1.22-2.17,2.13-3.64,3.19-4.4,3.19-.56,0-1.04-.2-1.45-.59s-.61-.85-.61-1.37c0-.48.27-.98.8-1.51.46-.38.93-.77,1.4-1.16.29-.25.53-.45.71-.6-1.3-.41-2.26-.75-2.88-1.01-.85-.36-1.27-.92-1.27-1.69,0-.51.19-.97.57-1.38.38-.41.86-.62,1.44-.62.3,0,1.5.38,3.58,1.14-.05-.93-.08-1.59-.08-1.97,0-.54.19-1,.58-1.36.39-.36.87-.55,1.45-.55s1.06.18,1.45.55c.39.36.59.82.59,1.36,0,.66.02,1.27.05,1.82,1.91-.29,3.25-.44,4.04-.44.58,0,1.05.19,1.42.58.37.39.56.84.56,1.36,0,1.01-.56,1.63-1.68,1.86Z"/></g></g><g><ellipse class="cls-43" cx="443.47" cy="545.41" rx="143.8" ry="145.24"/><path class="cls-43" d="m370.38,674.41h0c-5.93-12.75-92.29,63.36-71.68,106.11,14.82,30.73,67.51-48.93,67.51-48.93,5-14.68-28.88,44.86-12.95,79.81,8.38,18.42,11.8,22.01,21.29,25.1,0,0,15.11.04,15.07.07-.72.73-26.94,62.56,2.99,66.92,30.72,4.47,33.41-58.89,33.34-60.45l2.19,1.13c.97.36,14.53,5.85,23.09-2.25,0,0,.07-.04.07,0,.11,2,3.6,62.59,31.54,59.32,31.26-3.63,6.33-64.41,6.33-64.41h0c.97.4,18.34,4.21,27.41-5.56,15.83-17.04,4.96-94.27-1.83-102.01,0,0,50.93,67.13,69.74,54.93,32.37-21.03-57.62-117.96-65.86-112.87h0c-19.82,17.33-96.25,29.72-148.19,3.05l-.07.04Z"/><path class="cls-22" d="m309.45,480.49s-9.82,15.33-12.05,27.03,289.87,0,289.87,0c0,0,.43-17.84-11.04-27.03-9.1-7.3-266.78,0-266.78,0h0Z"/><path class="cls-61" d="m330.99,510.43s-5.86-14.53,3.17-29.53"/><path class="cls-61" d="m370.2,480.89s-6.08,22.38,0,29.53"/><path class="cls-61" d="m405.99,479.44s-5.11,19.18,0,30.99"/><line class="cls-61" x1="445.23" y1="479.44" x2="446.2" y2="510.43"/><path class="cls-61" d="m480.51,479.44s5.11,19.94,2.66,29.28"/><path class="cls-61" d="m512.67,479.44s11.22,11.33,6.83,29.28"/><path class="cls-61" d="m555.79,479.44s12.66,9.34,3.88,27.06"/><path class="cls-22" d="m312.09,479.66c-17.05,2.62,134.09-184.6,263.06,0h-263.06Z"/><ellipse class="cls-46" cx="440.88" cy="393.63" rx="24.06" ry="7.3"/><ellipse class="cls-28" cx="392.32" cy="568.19" rx="8.34" ry="11.44"/><ellipse class="cls-28" cx="497.13" cy="568.44" rx="8.34" ry="11.44"/><ellipse class="cls-36" cx="393.32" cy="572.08" rx="1.94" ry="5.74"/><ellipse class="cls-36" cx="496.98" cy="572.08" rx="1.94" ry="5.74"/><path class="cls-64" d="m367.43,549.37s11.7,10.08,33.23,0"/><path class="cls-64" d="m516.59,549.37s-5.93,10.08-32.73,1.67"/><path class="cls-50" d="m299.66,740.05s.32,23.14,38.38,30.19c0,0,41.83-52.38,37.55-56.85,0,0-41.47,68.77-31.83,85.22,9.71,16.6,190.09,9.84,186.5,0-1.58-4.4,3.85-36.73-22.95-83.59,0,0,16.62,42.9,41.36,57.4,0,0,37.37-7.08,40.25-27.17,0,0-36.54-60.67-70.39-73.89-6.04,1.38-74.81,78.03-158.55-.18,0,0-59.02,44.97-60.35,68.91l.04-.04Z"/><path class="cls-48" d="m304.23,732.5s5.43,19.51,37.73,30.04l4.42-6.1s-28.88-12.39-37.16-33.13l-5,9.23v-.04Z"/><path class="cls-48" d="m315.85,715.17s20.61,25.47,40.32,28.84l5.72-9.15s-27.95-10.35-37.66-27.57l-8.38,7.88Z"/><path class="cls-48" d="m333.98,694.5s11.91,22.45,33.7,27.94l5.68-8.83c.22-.33-17.12-6.97-29.49-27.5l-9.89,8.39h0Z"/><path class="cls-48" d="m344.98,790.77s97.26,22.78,184.27-.4l-1.83-12.71s-99.13,19.98-180.09-.87l-2.34,13.99Z"/><path class="cls-48" d="m352.68,762.5s71.61,25.65,171.75-2.22l-2.95-10.54s-90.71,28.74-163.98-2.25l-4.78,15h-.04Z"/><path class="cls-48" d="m351.39,680.51s79.35,96.27,174.7-3.05c0,0-4.1-5.81-7.19-3.67-45,31.17-86.58,59.8-159.84,0l-7.66,6.72h0Z"/><path class="cls-48" d="m365.16,733.84s80.1,31.35,146.82-3.45l-5.68-15.37s-63.88,38.83-130.46,3.96l-10.65,14.89-.04-.04Z"/><path class="cls-48" d="m542.45,765.77s20.03,1.31,40.54-26.01l-4.24-6.25s-21.15,23.43-43.27,24.45l6.98,7.81h0Z"/><path class="cls-48" d="m528.67,749.03s30.97-10.24,41.18-27.61l-6.4-8.68s-22.62,21.61-42.05,24.56l7.23,11.7.04.04Z"/><path class="cls-48" d="m514.72,729.26s26.65-13.59,33.02-35.35l-8.52-7.81c-.32-.25-7.63,18.71-28.41,30.3l3.92,12.9v-.04Z"/><path class="cls-27" d="m348.8,809.62s81.86,15.55,176.6,0c0,0-3.56,35.71-25.29,33.75,0,0,.5,13.11-.18,21.25-1.26,14.42-27.8,13.99-42.33,11.23-3.27-.62-5.83-3.23-6.47-6.54-1.37-6.9-3.52-18.75-3.24-23.1,0,0-10.5,6.1-20.75-1.05,0,0-1.29,25.87-5.22,30.84s-42.87-.11-45.93-6.25c-1.94-3.92,1.62-30.33,1.62-30.33,0,0-19.75,4-28.77-29.75l-.04-.04Z"/><path class="cls-23" d="m412.02,646.14s32.18-37.09,63.2,0"/><path class="cls-6" d="m407.45,570.19c-.5-1.91-3.23-7.17-10.32,3.79-7.09,10.95-14.27,9.62-14.27,9.62,0,0-14.08-1.61-14.03,3.63.05,4.79,9.68,3.37,10.65,3.37s2.92,2.78,5.83,1.39c.86-.4,4.46-7.77,8.34-2.48,3.68,5.01,5.57-2.49,6.18-5.64.16-.82.56-1.49,1.11-1.81,2.07-1.24,4.18-1.68,5.7-4.05,1.37-2.16,1.23-6.26.82-7.81h0Z"/><path class="cls-6" d="m479.48,570.99c-.41,1.54-.55,5.65.82,7.81,1.52,2.37,3.63,2.81,5.7,4.05.54.32.95.99,1.11,1.81.6,3.15,2.5,10.65,6.18,5.64,3.88-5.29,7.49,2.07,8.34,2.48,2.92,1.39,4.86-1.39,5.83-1.39s10.6,1.42,10.65-3.37c.05-5.25-14.03-3.63-14.03-3.63,0,0-7.18,1.34-14.27-9.62-7.09-10.95-9.82-5.69-10.32-3.79h0Z"/><path class="cls-58" d="m299.77,551.04s11.37,7.19,34.39,0c0,0,49.89-50.86,80.14-3.71,5.72,12.28,40.82,15.8,50.07-.18,8.67-14.89,61.72-36.73,71.11,9.59,0,0,22.05,8.79,45.93,0,0,0,2.84,7.41-.47,16.27,0,0-33.23,6.32-48.88.07,0,0-30.11,60.85-71.76-7.74-3.42-5.34-33.38-3.02-40.28,3.09-.18,0-42.26,73.64-81.11-3.09,0,0-21.69,11.23-39.24-.22,0,0-5.68-3.34.11-14.06v-.04Z"/></g><g><ellipse class="cls-43" cx="1612.75" cy="579.94" rx="172.89" ry="178.73"/><path class="cls-30" d="m1439.87,553.14s-117.09,20.48-104.41-38.37c12.67-58.84,67.46-45.8,67.46-45.8,0,0-70.34-37.21-31.63-67.1,40.04-30.99,68.58,10.46,68.58,10.46,0,0-64.27-84.99,0-84.99s64.27,34.9,64.27,34.9c0,0-41.9-122.7,25.56-103.1,67.46,19.6,41.9,76.95,41.9,76.95,0,0,6.87-109.21,55.38-89.61,48.51,19.6,16.29,96.11,16.29,96.11,0,0,36.47-80.15,72.31-58.35,35.83,21.8-13.26,86.7-13.26,86.7,0,0,62.24-72.77,83.33-29.23,21.09,43.54-34.82,72.77-34.82,72.77,0,0,82.21-55.6,92.75-14.15,10.54,41.39-40.04,68.64-40.04,68.64,0,0,93.13-28.57,78.38,30.27s-101.38,37.98-101.38,37.98c-1.01,7.32-124.33-136.24-300.25-30.11-22.1,13.32-27.63,29.06-40.36,46.02h-.05Z"/><path class="cls-64" d="m1559.56,600.53c-23.06-29.83-38.44,0-38.44,0"/><path class="cls-64" d="m1665.89,600.53s15.39-29.83,38.44,0"/><path class="cls-37" d="m1467.08,432.59s-15.12-71.56,25.24-45.74c31.84,20.37-3.19,31.16-2.45,31.65"/><path class="cls-37" d="m1513.51,328.22s.96-63.63,25.98-44.75c24.97,18.88.96,29.83.96,29.83"/><path class="cls-37" d="m1766.15,430.83s44.46-32.04,32.91,2.75c-11.55,34.79-24.28,19.87-24.28,19.87"/><path class="cls-37" d="m1398.12,506.02s-14.43,21.63-25.98,2.09c-14.32-24.16,15.55-23.23,25.98-21.19l19.22,22.18"/><path class="cls-37" d="m1645.23,367.96s13.36-38.75,30.72-35.78c17.36,2.97,20.13,11.78,19.22,17.83s-19.06,31.87-24.92,18c-5.8-13.93,5.64-15.96,5.64-15.96"/><path class="cls-33" d="m1525.22,603.34l5.38,16.13c.59-.44,10.65-11.56,21.24,2.64l3.62-17.72c1.54-1.49-15.33-25.71-30.24-1.05h0Z"/><path class="cls-32" d="m1669.67,602.95l4.42,16.57s10.01-11.83,20.5,1.32l6.02-18.22s-16.35-25.38-30.88.28l-.05.06Z"/><path class="cls-62" d="m1582.03,573.45s31.2-36.77,61.39,0"/><path class="cls-62" d="m1564.99,565.3s45.9-65.45,95.47,0"/><ellipse class="cls-38" cx="1671.7" cy="519.72" rx="11.18" ry="7.82"/><ellipse class="cls-45" cx="1687.51" cy="511.91" rx="4.58" ry="4.73"/><ellipse class="cls-57" cx="1530.28" cy="650.9" rx="13.36" ry="8.53"/><ellipse class="cls-57" cx="1696.19" cy="650.9" rx="13.36" ry="8.53"/><ellipse class="cls-28" cx="1540.34" cy="631.14" rx="10.01" ry="14.09"/><ellipse class="cls-28" cx="1685.12" cy="631.14" rx="10.01" ry="14.09"/><path class="cls-31" d="m1580.49,671.81c9.32,23.83,43.13,65.78,66.4,0h-66.4Z"/><path class="cls-54" d="m1588.58,676.88h51.54c-.75,1.71-2.29,7.87-5.59,7.16-5.32-1.21-6.82.28-6.82.28,0,0-5.91,2.59-11.77,0,0,0-6.23,2.97-10.44.11,0,0-4.74,3.19-12.19,0-.69-.72-3.73-5.94-4.79-7.54h.05Z"/><ellipse class="cls-36" cx="1542.68" cy="624.09" rx="2.34" ry="7.05"/><ellipse class="cls-36" cx="1682.83" cy="624.09" rx="2.34" ry="7.05"/><path class="cls-54" d="m1606.31,699.23s2.66-1.65,5.11-.06c0,0,3.35-2.31,7.08,0,0,0,3.83-2.09,7.24-.44-.64.88-9.69,8.97-19.43.55v-.06Z"/><path class="cls-43" d="m1525.96,734.95h0c-7.03-15.74-169.73-79.95-144.97-27.33,17.78,37.82,139.91,97.67,139.91,97.67,6.02-18.05-34.72,55.21-15.55,98.2,10.06,22.68,14.16,27.08,25.61,30.88,0,0,18.16,0,18.16.06-.85.88-32.37,76.95,3.57,82.29,36.95,5.5,40.15-72.44,40.09-74.37l2.66,1.38c1.17.44,17.46,7.21,27.79-2.81h.05c.11,2.42,4.31,77.01,37.96,72.99,37.59-4.46,7.61-79.27,7.61-79.27h0c1.17.5,22.04,5.17,32.91-6.83,19.01-20.97,5.96-116.04-2.18-125.5,0,0,129.4-70.7,139.4-89.7,6-53-124.81,12.14-134.71,18.42h0c-23.8,21.3-115.7,36.55-178.16,3.8l-.16.11Z"/><path class="cls-41" d="m1501.21,861l83.17,58.13,7.72,10.95,5.32,8.31c2.29,3.85,11.29,18.33,20.87.44,8.79-16.46,13.95-17.94,13.95-17.94l81.89-56.15-80.13,52.24s-28.75,9.8-49.62,0l-83.17-58.13v2.15h0Z"/><path class="cls-29" d="m1579.26,931.68s3.25,6.83,4.9,3.52c1.86-3.69,3.41-7.21,3.41-7.21"/><path class="cls-47" d="m1659.03,920.56s6.92,4.57,8.57,1.32c1.86-3.69,1.81-3.58,1.81-3.58"/><ellipse class="cls-34" cx="1495.88" cy="541.47" rx="9.69" ry="5.23"/><ellipse class="cls-44" cx="1561.16" cy="703.02" rx="5.59" ry="9.69"/><ellipse class="cls-44" cx="1486.19" cy="546.7" rx="4.05" ry="4.18"/><path class="cls-30" d="m1506.69,492.59s13.31,64.51,38.44,48.83c25.61-15.96,19.27-51.14,19.27-51.14,0,0,6.02,43.1,29.39,33.19,23.37-9.91,27.63-36.27,27.63-36.27-.59,2.37-7.03,32.42,16.72,32.42,17.04,0,29.98-44.04,29.98-44.04,0,0-78.11-23.72-161.44,16.95v.06Z"/><line class="cls-68" x1="1602.27" y1="674.79" x2="1605.25" y2="687.94"/><line class="cls-68" x1="1616" y1="674.9" x2="1616" y2="686.95"/><line class="cls-68" x1="1629.9" y1="674.9" x2="1629.9" y2="685.85"/><line class="cls-68" x1="1618.45" y1="696.25" x2="1620.21" y2="703.02"/><line class="cls-68" x1="1611.48" y1="696.25" x2="1611.48" y2="704.24"/><ellipse class="cls-65" cx="1608.76" cy="896.51" rx=".69" ry=".72"/><path class="cls-51" d="m1585.49,914.73c6.5,11.34,13.15,8.37,13.15,8.37,5.06,6.5,5.7,5.61,5.7,5.61,10.54,4.9,17.52-3.69,17.52-3.69,10.49-.66,8.79,1.54,10.6.5-3.94-.94,13.47,0,16.4-14.81,2.93-14.92,3.67-16.02,3.67-16.02"/><path class="cls-51" d="m1555.68,889.68s-4.74,2.31-15.55-.99c-15.71-4.79-22.95-25.87-20.98-25.49"/><path class="cls-35" d="m1562.38,826.88c-15.02,25.1-17.46,119.89,21.35,103.32,28.59-12.22,21.83-96.66,21.83-96.66"/><path class="cls-51" d="m1706.95,863.21s-8.89,24.5-25.66,18.16"/><path class="cls-35" d="m1620.79,832.88c-6.76,12.5,31.52,140.37,63.04,63.74,6.12-14.92-13.05-48.11-11.5-66.83"/><path class="cls-59" d="m1539.81,740.35l-16.88,61.16s-24.6,51.36-15.55,55.82c9.05,4.46,147.7,33.08,204.83,0,0,0-5.75-57.74-17.25-57.25l-9.9-58.13-4.05.83,11.02,57.8s-103.56,18-164.26-4.02l16.13-54.55s-4.1-1.65-4.1-1.65Z"/><path class="cls-66" d="m1593.64,937.35s-8.2,3.3-4.26,6.44c3.09,2.48,2.5-1.05,2.5-1.05l-.85-2.04"/><ellipse class="cls-66" cx="1625.59" cy="934.88" rx=".48" ry=".5"/><ellipse class="cls-66" cx="1626.28" cy="939.55" rx=".27" ry=".28"/><ellipse class="cls-66" cx="1622.23" cy="940.71" rx=".27" ry=".28"/><ellipse class="cls-66" cx="1620.21" cy="942.97" rx=".21" ry=".22"/><ellipse class="cls-66" cx="1627.24" cy="931.24" rx=".69" ry=".11"/><ellipse class="cls-66" cx="1588.85" cy="933.66" rx=".27" ry=".28"/><ellipse class="cls-66" cx="1588.85" cy="936.03" rx=".27" ry=".28"/><ellipse class="cls-66" cx="1587.14" cy="938.67" rx=".43" ry=".44"/><ellipse class="cls-66" cx="1623.94" cy="942.03" rx=".16" ry=".17"/><ellipse class="cls-66" cx="1623.62" cy="937.35" rx=".16" ry=".17"/><ellipse class="cls-66" cx="1591.78" cy="937.19" rx=".11" ry=".33"/><ellipse class="cls-66" cx="1628.09" cy="933.55" rx=".16" ry=".17"/><ellipse class="cls-66" cx="1627.82" cy="937.3" rx=".16" ry=".17"/><ellipse class="cls-66" cx="1596.46" cy="943.24" rx=".32" ry=".33"/><ellipse class="cls-66" cx="1597.74" cy="945.94" rx=".37" ry=".39"/><ellipse class="cls-66" cx="1618.56" cy="945.33" rx=".27" ry=".28"/><ellipse class="cls-66" cx="1594.39" cy="941.32" rx=".37" ry=".39"/><ellipse class="cls-66" cx="1629.31" cy="928.44" rx=".48" ry=".5"/><ellipse class="cls-66" cx="1629.95" cy="930.97" rx=".16" ry=".17"/><path class="cls-66" d="m1624.04,934.88c-1.06.11,3.51,2.64,3.3,4.02-.48,2.86-3.14,0-2.5-.66"/><path class="cls-53" d="m1538.32,963.39s21.99,13.43,52.61,10.07c0,0-12.19,49.82-37.43,44.7-18.9-3.85-20.66-23.23-19.7-33.69.32-3.47,4.53-21.14,4.53-21.14v.06Z"/><line class="cls-67" x1="1547.85" y1="966.69" x2="1534.75" y2="1000.66"/><line class="cls-67" x1="1562.28" y1="971.98" x2="1547.85" y2="1015.79"/><line class="cls-67" x1="1576.28" y1="973.9" x2="1567.87" y2="1015.79"/><path class="cls-67" d="m1534.8,998.67s4.53,13.76,37.33,13.93"/><path class="cls-67" d="m1532.78,984.42s19.17,17.06,50.53,12.77"/><path class="cls-67" d="m1534.11,977.81s25.13,16.07,50.8,12.99"/><path class="cls-67" d="m1535.66,970.66s25.98,16.68,53.19,11.17"/><path class="cls-67" d="m1533.58,992.12s15.76,14.86,44.19,12.88"/><path class="cls-26" d="m1537.31,961.41s.91-4.4,1.22-4.4,31.52,15.08,53.83,9.69l-.8,5.28s-40.31,3.52-54.26-10.57Z"/><path class="cls-53" d="m1626.39,972.2s25.5,2.04,51.49-14.97c0,0,13.2,49.21-11.61,56.15-18.58,5.17-31.36-10.35-34.93-20.15-1.22-3.25-4.95-21.03-4.95-21.03h0Z"/><line class="cls-67" x1="1636.34" y1="970.77" x2="1639.11" y2="1007.21"/><line class="cls-67" x1="1651.57" y1="968.95" x2="1657.32" y2="1014.8"/><line class="cls-67" x1="1664.94" y1="964.27" x2="1674.31" y2="1007.21"/><path class="cls-67" d="m1638.31,1005.44s9.9,10.29,39.4-4.57"/><path class="cls-67" d="m1630.43,993.61s24.49,6.55,50.8-11.61"/><path class="cls-67" d="m1628.78,987s29.44,2.92,51.12-11.56"/><path class="cls-67" d="m1627.08,979.9s30.46,3.08,52.5-14.31"/><path class="cls-67" d="m1634.43,1000.1s20.5,6.11,45.15-8.64"/><path class="cls-26" d="m1624.63,970.88s-1.06-4.4-.8-4.51,34.72-.88,52.45-15.91l1.54,5.12s-34.66,21.58-53.19,15.36v-.05Z"/><path class="cls-66" d="m1607.27,785.04s-9.64,4.79-5.01,9.3c3.62,3.58,2.93-1.54,2.93-1.54l-1.01-2.92"/><path class="cls-66" d="m1611,777.89c-1.28.17,4.21,4.57,3.94,7.05-.59,5.01-3.73,0-2.98-1.1"/><ellipse class="cls-38" cx="1569.52" cy="787.13" rx="6.92" ry="4.79"/><ellipse class="cls-45" cx="1659.88" cy="766.93" rx="2.24" ry="4.51"/><ellipse class="cls-45" cx="1579.26" cy="777.89" rx="2.82" ry="2.92"/><path class="cls-52" d="m1521.94,801.48s-13.65-.42-28-3.88c-30.86-7.42-22.44-18.63-21.03-24.41"/><path class="cls-52" d="m1698.64,801.76s24.96.41,32.69-10.35c7.72-10.76,10.7-19.07,10.7-19.07h0"/><path class="cls-67" d="m1527.72,627.01s-5.06-9.03-2.88-16.62l3.67,13.93-.85,2.7h.05Z"/><path class="cls-67" d="m1532.73,620.73s-3.67-9.91-3.41-11.83c0,0,4.63,9.25,5.22,9.08s-1.86,2.75-1.86,2.75h.05Z"/><path class="cls-67" d="m1696.94,624.25s5.06-9.03,2.88-16.62l-3.67,13.93.85,2.7h-.05Z"/><path class="cls-67" d="m1691.93,618.03s3.67-9.91,3.41-11.83c0,0-4.63,9.25-5.22,9.08s1.86,2.75,1.86,2.75h-.05Z"/><path class="cls-63" d="m1568.56,676.88s14.54,0,10.17-16.35"/><path class="cls-63" d="m1648.48,660.53s-3.51,16.35,9.16,16.35"/></g></svg>