<?xml version="1.0" encoding="UTF-8"?><svg id="Layer_1" xmlns="http://www.w3.org/2000/svg" width="4cm" height="5.5cm" viewBox="0 0 113.39 155.91"><defs><style>.cls-1,.cls-2,.cls-3,.cls-4,.cls-5,.cls-6,.cls-7,.cls-8,.cls-9,.cls-10,.cls-11,.cls-12,.cls-13,.cls-14,.cls-15,.cls-16,.cls-17,.cls-18,.cls-19,.cls-20,.cls-21,.cls-22,.cls-23,.cls-24,.cls-25,.cls-26,.cls-27,.cls-28,.cls-29,.cls-30,.cls-31,.cls-32{stroke-miterlimit:10;}.cls-1,.cls-2,.cls-3,.cls-4,.cls-5,.cls-7,.cls-32{stroke-width:.5px;}.cls-1,.cls-3,.cls-4,.cls-14,.cls-18{fill:#ffe3bf;}.cls-1,.cls-5,.cls-6,.cls-30,.cls-32{stroke:#231f20;}.cls-2,.cls-7{stroke:#ea9c93;}.cls-2,.cls-15{fill:#fff;}.cls-3{stroke:#dbb38a;}.cls-4,.cls-14,.cls-27{stroke:#c49a6c;}.cls-5{fill:#231f20;}.cls-6,.cls-26,.cls-27,.cls-28,.cls-29,.cls-31,.cls-32{fill:none;}.cls-6,.cls-30{stroke-width:.75px;}.cls-7,.cls-24{fill:#f7a59a;}.cls-8{fill:#00aeef;}.cls-8,.cls-9{stroke:#00aeef;}.cls-9{fill:#00b0f0;}.cls-10{fill:#fcd5ce;}.cls-10,.cls-28{stroke:#8a606b;}.cls-11{fill:#987954;stroke:#937551;}.cls-12{stroke:#6d6e71;}.cls-12,.cls-16{fill:#f1f2f2;}.cls-13{fill:#f0caa2;stroke:#f0caa2;}.cls-15{stroke:#fff;}.cls-16{stroke:#e6e7e8;}.cls-17{fill:#eac59e;stroke:#eac59e;}.cls-18{stroke:#ba9266;}.cls-19{fill:#f06ca8;stroke:#f06ca8;}.cls-20{fill:#dcb995;stroke:#dcb995;}.cls-21{fill:#cbac8a;stroke:#cbac8a;}.cls-22{fill:#956b4e;stroke:#977853;}.cls-23{fill:#3c2415;}.cls-23,.cls-29{stroke:#3c2415;}.cls-24{stroke:#f7a59a;}.cls-25{fill:#f59aaa;stroke:#f59aaa;}.cls-26{stroke:#fed5aa;}.cls-30{fill:#eb4498;}.cls-31{stroke:#bcbec0;stroke-width:.25px;}</style></defs><circle class="cls-14" cx="57.45" cy="68.02" r="34.75"/><path class="cls-12" d="m22.71,62.82S-.82,66.79,1.72,55.35s13.56-8.9,13.56-8.9c0,0-14.14-7.23-6.36-13.05s13.78,2.03,13.78,2.03c0,0-12.91-16.53,0-16.53s12.91,6.78,12.91,6.78c0,0-8.42-23.86,5.14-20.04s8.42,14.96,8.42,14.96c0,0,1.38-21.23,11.13-17.42s3.28,18.69,3.28,18.69c0,0,7.33-15.58,14.53-11.34s-2.67,16.85-2.67,16.85c0,0,12.51-14.15,16.75-5.68s-7,14.15-7,14.15c0,0,16.52-10.8,18.64-2.75s-8.05,13.35-8.05,13.35c0,0,18.72-5.56,15.75,5.88s-20.38,7.38-20.38,7.38c-.2,1.42-24.99-26.49-60.35-5.85-4.44,2.59-5.56,5.65-8.11,8.95Z"/><path class="cls-29" d="m46.77,72.03c-4.64-5.8-7.73,0-7.73,0"/><path class="cls-29" d="m68.14,72.03s3.09-5.8,7.73,0"/><path class="cls-16" d="m28.18,39.37s-3.04-13.91,5.07-8.89c6.4,3.96-.65,6.06-.49,6.15"/><path class="cls-16" d="m37.51,19.09s.19-12.37,5.22-8.7.19,5.8.19,5.8"/><path class="cls-16" d="m88.28,39.03s8.93-6.23,6.61.53-4.88,3.86-4.88,3.86"/><path class="cls-16" d="m14.32,53.65s-2.89,4.2-5.22.41c-2.88-4.7,3.13-4.52,5.22-4.12l3.86,4.31"/><path class="cls-16" d="m63.98,26.81s2.69-7.54,6.17-6.96,4.05,2.29,3.86,3.46-3.83,6.2-5,3.49,1.14-3.1,1.14-3.1"/><path class="cls-9" d="m39.86,72.57l1.08,3.14c.12-.09,2.14-2.25,4.27.51l.73-3.44c.32-.28-3.08-4.99-6.08-.21Z"/><path class="cls-8" d="m68.89,72.5l.89,3.22s2.02-2.31,4.12.26l1.2-3.54s-3.28-4.93-6.21.06Z"/><path class="cls-26" d="m51.28,66.76s6.27-7.15,12.34,0"/><path class="cls-26" d="m47.86,65.18s9.22-12.73,19.19,0"/><ellipse class="cls-13" cx="69.3" cy="56.31" rx="2.25" ry="1.52"/><circle class="cls-20" cx="72.48" cy="54.8" r=".92"/><ellipse class="cls-25" cx="40.88" cy="81.81" rx="2.68" ry="1.66"/><ellipse class="cls-25" cx="74.22" cy="81.81" rx="2.68" ry="1.66"/><ellipse class="cls-23" cx="42.9" cy="77.98" rx="2.02" ry="2.74"/><ellipse class="cls-23" cx="72" cy="77.98" rx="2.02" ry="2.74"/><path class="cls-10" d="m50.97,85.88c1.87,4.64,8.67,12.79,13.35,0h-13.35Z"/><path class="cls-24" d="m52.6,86.87h10.36c-.15.34-.46,1.53-1.12,1.39-1.07-.23-1.37.06-1.37.06,0,0-1.18.51-2.37,0,0,0-1.25.57-2.1.02,0,0-.96.62-2.45,0-.14-.14-.75-1.16-.96-1.47Z"/><ellipse class="cls-15" cx="43.38" cy="76.61" rx=".47" ry="1.37"/><ellipse class="cls-15" cx="71.53" cy="76.61" rx=".47" ry="1.37"/><path class="cls-24" d="m56.16,91.21s.53-.32,1.03-.01c0,0,.67-.45,1.42,0,0,0,.77-.4,1.46-.09-.13.17-1.95,1.74-3.91.1Z"/><path class="cls-14" d="m40.01,98.16s0,0,0,0c-1.41-3.06-22.3,15.16-17.32,25.38,3.58,7.35,16.31-11.71,16.31-11.71,1.21-3.51-6.98,10.73-3.13,19.09,2.03,4.41,2.85,5.27,5.15,6.01,0,0,3.65.01,3.64.01-.18.17-6.51,14.96.72,16,7.43,1.07,8.07-14.09,8.05-14.46,0,0,.53.27.53.27.23.08,3.51,1.4,5.58-.54,0,0,.01-.01.02,0,.03.48.87,14.97,7.63,14.19,7.56-.87,1.53-15.4,1.53-15.4,0,0,0,0,0,0,.24.1,4.43,1.01,6.62-1.33,3.82-4.08,1.2-22.55-.44-24.4,0,0,12.3,16.06,16.85,13.14,7.82-5.03-13.92-28.21-15.91-27,0,0,0,0,0,0-4.78,4.14-23.26,7.11-35.8.73Z"/><path class="cls-19" d="m35.04,122.67l16.71,11.3,1.56,2.13,1.07,1.61c.46.75,2.27,3.57,4.2.08,1.77-3.2,2.8-3.48,2.8-3.48l16.46-10.91-16.1,10.16s-5.78,1.91-9.98,0l-16.71-11.3v.42Z"/><path class="cls-11" d="m50.72,136.4s.66,1.32.99.68c.37-.71.69-1.4.69-1.4"/><path class="cls-22" d="m66.76,134.24s1.39.89,1.72.25c.37-.71.36-.69.36-.69"/><ellipse class="cls-17" cx="33.96" cy="60.54" rx="1.95" ry="1.02"/><ellipse class="cls-21" cx="47.08" cy="91.95" rx="1.12" ry="1.89"/><circle class="cls-21" cx="32.02" cy="61.56" r=".82"/><path class="cls-12" d="m36.14,51.05s2.67,12.54,7.73,9.49,3.88-9.94,3.88-9.94c0,0,1.21,8.38,5.91,6.46s5.55-7.05,5.55-7.05c-.12.46-1.41,6.31,3.36,6.31,3.43,0,6.02-8.56,6.02-8.56,0,0-15.7-4.61-32.45,3.29Z"/><line class="cls-2" x1="55.34" y1="86.47" x2="55.94" y2="89.02"/><line class="cls-2" x1="58.11" y1="86.48" x2="58.11" y2="88.83"/><line class="cls-2" x1="60.9" y1="86.48" x2="60.9" y2="88.61"/><line class="cls-7" x1="58.6" y1="90.63" x2="58.95" y2="91.95"/><line class="cls-2" x1="57.2" y1="90.63" x2="57.2" y2="92.18"/><circle class="cls-27" cx="56.65" cy="129.56" r=".14"/><path class="cls-3" d="m51.97,133.11c1.3,2.21,2.64,1.62,2.64,1.62,1.01,1.26,1.15,1.09,1.15,1.09,2.12.95,3.52-.72,3.52-.72,2.11-.13,1.77.3,2.13.1-.79-.18,2.71,0,3.29-2.88.59-2.9.74-3.11.74-3.11"/><path class="cls-3" d="m45.99,128.24s-.95.45-3.12-.19c-3.16-.93-4.61-5.03-4.21-4.96"/><path class="cls-18" d="m47.33,116.03c-3.02,4.88-3.51,23.31,4.29,20.08,5.75-2.38,4.38-18.79,4.38-18.79"/><path class="cls-3" d="m76.38,123.09s-1.78,4.76-5.16,3.53"/><path class="cls-18" d="m59.07,117.19c-1.36,2.43,6.34,27.29,12.66,12.39,1.23-2.9-2.62-9.35-2.31-12.99"/><path class="cls-30" d="m42.79,99.21l-3.4,11.89s-4.95,9.98-3.13,10.85,29.69,6.43,41.17,0c0,0-1.16-11.22-3.47-11.13l-1.99-11.3-.81.16,2.21,11.24s-20.81,3.5-33.01-.78l3.24-10.61-.82-.32Z"/><path class="cls-31" d="m53.62,137.5s-1.65.64-.86,1.25c.62.48.5-.21.5-.21l-.17-.39"/><circle class="cls-31" cx="60.03" cy="137.03" r=".09"/><circle class="cls-31" cx="60.18" cy="137.93" r=".05"/><circle class="cls-31" cx="59.36" cy="138.15" r=".05"/><circle class="cls-31" cx="58.96" cy="138.59" r=".05"/><ellipse class="cls-31" cx="60.37" cy="136.32" rx=".14" ry=".02"/><circle class="cls-31" cx="52.65" cy="136.79" r=".06"/><circle class="cls-31" cx="52.65" cy="137.25" r=".06"/><circle class="cls-31" cx="52.31" cy="137.76" r=".09"/><circle class="cls-31" cx="59.7" cy="138.42" r=".03"/><circle class="cls-31" cx="59.64" cy="137.5" r=".03"/><ellipse class="cls-31" cx="53.24" cy="137.47" rx=".02" ry=".07"/><circle class="cls-31" cx="60.54" cy="136.76" r=".03"/><circle class="cls-31" cx="60.48" cy="137.5" r=".03"/><circle class="cls-31" cx="54.18" cy="138.66" r=".06"/><circle class="cls-31" cx="54.43" cy="139.18" r=".07"/><circle class="cls-31" cx="58.62" cy="139.06" r=".05"/><circle class="cls-31" cx="53.76" cy="138.28" r=".07"/><circle class="cls-31" cx="60.79" cy="135.78" r=".09"/><circle class="cls-31" cx="60.91" cy="136.27" r=".03"/><path class="cls-31" d="m59.72,137.02c-.22.02.71.51.66.79-.1.56-.63,0-.5-.13"/><path class="cls-6" d="m42.5,142.57s4.42,2.62,10.57,1.96c0,0-2.46,9.69-7.52,8.69-3.8-.74-4.15-4.52-3.96-6.55.07-.68.91-4.11.91-4.11Z"/><line class="cls-1" x1="44.41" y1="143.21" x2="41.78" y2="149.81"/><line class="cls-1" x1="47.31" y1="144.24" x2="44.41" y2="152.75"/><line class="cls-1" x1="50.12" y1="144.62" x2="48.43" y2="152.75"/><path class="cls-32" d="m41.79,149.42s.91,2.67,7.5,2.7"/><path class="cls-32" d="m41.38,146.66s3.85,3.32,10.15,2.49"/><path class="cls-32" d="m41.65,145.37s5.05,3.13,10.21,2.53"/><path class="cls-32" d="m41.96,143.98s5.23,3.24,10.69,2.17"/><path class="cls-32" d="m41.54,148.16s3.17,2.89,8.88,2.5"/><path class="cls-5" d="m42.3,142.19s.18-.86.25-.86,6.34,2.93,10.82,1.88l-.16,1.03s-8.1.69-10.91-2.05Z"/><path class="cls-6" d="m60.2,144.28s5.12.39,10.35-2.91c0,0,2.65,9.57-2.33,10.92-3.74,1.01-6.3-2.01-7.02-3.92-.24-.64-1-4.09-1-4.09Z"/><line class="cls-1" x1="62.2" y1="144.01" x2="62.75" y2="151.09"/><line class="cls-1" x1="65.25" y1="143.64" x2="66.42" y2="152.57"/><line class="cls-1" x1="67.94" y1="142.74" x2="69.82" y2="151.09"/><path class="cls-32" d="m62.59,150.74s1.99,2,7.92-.89"/><path class="cls-32" d="m61,148.44s4.93,1.28,10.2-2.26"/><path class="cls-32" d="m60.67,147.16s5.92.57,10.27-2.25"/><path class="cls-32" d="m60.34,145.78s6.12.6,10.55-2.78"/><path class="cls-32" d="m61.81,149.71s4.12,1.19,9.07-1.68"/><path class="cls-5" d="m59.85,144.02s-.22-.85-.16-.88,6.98-.17,10.54-3.09l.31.99s-6.96,4.2-10.69,2.98Z"/><path class="cls-31" d="m56.35,107.9s-1.93.93-1.01,1.81c.73.7.59-.3.59-.3l-.2-.57"/><path class="cls-31" d="m57.11,106.5c-.26.03.85.89.79,1.37-.11.98-.75,0-.6-.22"/><ellipse class="cls-13" cx="48.76" cy="108.31" rx="1.39" ry=".94"/><ellipse class="cls-20" cx="66.93" cy="104.37" rx=".45" ry=".88"/><circle class="cls-20" cx="50.72" cy="106.5" r=".57"/><path class="cls-4" d="m39.66,106.75s.08,2.66-.43,5.47c-1.11,6.08-3.46,4.59-4.63,4.37"/><path class="cls-4" d="m74.22,107.4s-.42,4.84,1.64,6.47,3.68,2.33,3.68,2.33h0"/><path class="cls-32" d="m40.36,77.17s-1.01-1.75-.58-3.23l.74,2.71-.17.53Z"/><path class="cls-32" d="m41.37,75.95s-.74-1.93-.68-2.3c0,0,.93,1.79,1.05,1.76s-.37.54-.37.54Z"/><path class="cls-32" d="m74.37,76.64s1.01-1.75.58-3.23l-.74,2.71.17.53Z"/><path class="cls-32" d="m73.37,75.42s.74-1.93.68-2.3c0,0-.93,1.79-1.05,1.76s.37.54.37.54Z"/><path class="cls-28" d="m48.57,86.87s2.92,0,2.05-3.18"/><path class="cls-28" d="m64.64,83.69s-.7,3.18,1.84,3.18"/></svg>