<?xml version="1.0" encoding="UTF-8"?><svg id="Layer_1" xmlns="http://www.w3.org/2000/svg" viewBox="0 0 1920 1080"><defs><style>.cls-1,.cls-2,.cls-3,.cls-4,.cls-5,.cls-6,.cls-7,.cls-8,.cls-9,.cls-10,.cls-11,.cls-12,.cls-13,.cls-14,.cls-15,.cls-16,.cls-17,.cls-18,.cls-19,.cls-20{isolation:isolate;}.cls-1,.cls-2,.cls-3,.cls-21,.cls-22,.cls-23,.cls-24,.cls-25,.cls-26,.cls-27,.cls-28,.cls-29,.cls-30,.cls-31,.cls-32,.cls-33,.cls-34,.cls-35,.cls-36,.cls-37,.cls-38,.cls-39,.cls-40,.cls-41,.cls-42,.cls-43,.cls-44,.cls-45,.cls-46,.cls-47,.cls-48,.cls-49,.cls-50,.cls-51,.cls-52,.cls-53,.cls-54,.cls-55,.cls-5,.cls-6,.cls-56,.cls-57,.cls-58,.cls-59,.cls-60,.cls-61,.cls-62,.cls-63,.cls-64,.cls-65,.cls-66,.cls-7,.cls-8,.cls-9,.cls-11,.cls-12,.cls-13,.cls-14,.cls-15,.cls-16,.cls-17,.cls-67,.cls-19,.cls-20{stroke-miterlimit:10;}.cls-1,.cls-3,.cls-4,.cls-5,.cls-6,.cls-7,.cls-10,.cls-11,.cls-16,.cls-19{stroke:#913995;}.cls-1,.cls-3,.cls-4,.cls-5,.cls-6,.cls-7,.cls-16,.cls-19{fill:#fad5e5;}.cls-1,.cls-3,.cls-53,.cls-5,.cls-6,.cls-7,.cls-8,.cls-9,.cls-11,.cls-12,.cls-13,.cls-14,.cls-15,.cls-16,.cls-17,.cls-19,.cls-20{stroke-width:.25px;}.cls-1,.cls-14{opacity:.79;}.cls-2{fill:#cc7bac;}.cls-2,.cls-57{stroke:#470027;}.cls-3,.cls-4,.cls-20{opacity:.74;}.cls-4{stroke-miterlimit:10;stroke-width:.25px;}.cls-68,.cls-44,.cls-48,.cls-52{fill:#231f20;}.cls-21{fill:#3c2415;}.cls-21,.cls-22,.cls-23,.cls-24,.cls-25,.cls-26,.cls-27,.cls-28,.cls-29,.cls-30,.cls-31,.cls-32,.cls-33,.cls-34,.cls-35,.cls-36,.cls-37,.cls-38,.cls-39,.cls-40,.cls-41,.cls-42,.cls-43,.cls-44,.cls-45,.cls-46,.cls-47,.cls-59,.cls-60,.cls-61,.cls-62,.cls-63,.cls-64,.cls-65,.cls-66{stroke-width:4px;}.cls-21,.cls-65{stroke:#3c2415;}.cls-22{fill:#987954;stroke:#937551;}.cls-23{stroke:#6d6e71;}.cls-23,.cls-27,.cls-50{fill:#f1f2f2;}.cls-24{fill:#fcd5ce;}.cls-24,.cls-66{stroke:#8a606b;}.cls-25{fill:#00b0f0;}.cls-25,.cls-26{stroke:#00aeef;}.cls-26{fill:#00aeef;}.cls-27{stroke:#e6e7e8;}.cls-28{stroke:#fff;}.cls-28,.cls-31,.cls-49,.cls-51{fill:#fff;}.cls-29{fill:#f0caa2;stroke:#f0caa2;}.cls-30{fill:#eb4498;}.cls-30,.cls-31,.cls-33,.cls-44,.cls-45,.cls-48,.cls-49,.cls-50,.cls-52,.cls-56,.cls-60{stroke:#231f20;}.cls-32,.cls-35,.cls-36,.cls-37{fill:#ffe3bf;}.cls-32,.cls-42,.cls-62{stroke:#414042;}.cls-33{fill:#74625e;}.cls-34{fill:#f06ca8;stroke:#f06ca8;}.cls-35{stroke:#dbb38a;}.cls-36,.cls-63{stroke:#c49a6c;}.cls-37{stroke:#ba9266;}.cls-38{fill:#eac59e;stroke:#eac59e;}.cls-39{fill:#cbac8a;stroke:#cbac8a;}.cls-40{fill:#dcb995;stroke:#dcb995;}.cls-41{fill:#b46c7d;stroke:#b46c7d;}.cls-42{fill:#58595b;}.cls-43{fill:#956b4e;stroke:#977853;}.cls-45{fill:#414042;}.cls-46{fill:#f7a59a;stroke:#f7a59a;}.cls-47{fill:#f59aaa;stroke:#f59aaa;}.cls-48{stroke-width:.5px;}.cls-49,.cls-50,.cls-51,.cls-52{stroke-width:1px;}.cls-51,.cls-64{stroke:#bcbec0;}.cls-53{fill:#601734;stroke:#4c4b4c;}.cls-54,.cls-55,.cls-56,.cls-59,.cls-60,.cls-61,.cls-62,.cls-63,.cls-64,.cls-65,.cls-66{fill:none;}.cls-54,.cls-55,.cls-67{stroke-width:.75px;}.cls-54,.cls-67{stroke:#b2b7ba;}.cls-55{stroke:#6e767e;}.cls-5,.cls-15{opacity:.77;}.cls-6,.cls-17,.cls-18{opacity:.78;}.cls-56{stroke-width:20px;}.cls-57{fill:#a5304f;}.cls-58{fill:#741833;stroke:#4f072f;}.cls-59{stroke:#fed5aa;}.cls-61{stroke:#ea9c93;}.cls-7,.cls-12{opacity:.82;}.cls-8{fill:#fee7e2;}.cls-8,.cls-9,.cls-10,.cls-11,.cls-16{opacity:.76;}.cls-8,.cls-9,.cls-12,.cls-13,.cls-14,.cls-15,.cls-17,.cls-18,.cls-20{stroke:#f04925;}.cls-9,.cls-12,.cls-13,.cls-14,.cls-15,.cls-17,.cls-18,.cls-20{fill:#fbd0c9;}.cls-10{stroke-miterlimit:10;stroke-width:.25px;}.cls-10,.cls-11{fill:#fdeff5;}.cls-13,.cls-19{opacity:.72;}.cls-18{stroke-miterlimit:10;stroke-width:.25px;}.cls-67{fill:#efecea;}</style></defs><polygon class="cls-2" points="1.67 1078.7 1919.32 1077.77 1919.32 914.56 778.43 764.03 1.67 916.42 1.67 1078.7"/><path class="cls-51" d="m688.03,1012.99h-64.18s-11.12-59.24,0-73.11l11.12-13.83s23.64-21.44,26.55-53.78c2.92-32.35,40.08-61.06,40.08-61.06l42.7-40.34,292.46,16.19,51.88,134.29,36.62,103.97s-36.02,24.14-66.47,21.82c-30.44-2.33-109.72,1.48-140.88-6.09-31.16-7.57-122.79,8.5-159.61,0-36.83-8.5-70.19-28.08-70.19-28.08h-.08Z"/><polygon class="cls-53" points="1920 37.97 787.73 166.46 -.65 39.79 -.65 0 1920 0 1920 37.97"/><polygon class="cls-57" points="787.73 166.46 779.57 761.24 1920 914.56 1920 37.97 787.73 166.46"/><polygon class="cls-58" points="-.65 39.79 2.35 916.42 779.11 764.03 787.73 168.32 -.65 39.79"/><g><circle class="cls-36" cx="365.04" cy="630.59" r="137.29"/><path class="cls-23" d="m227.75,610s-92.98,15.73-82.91-29.47c10.06-45.2,53.57-35.18,53.57-35.18,0,0-55.85-28.58-25.12-51.54,31.8-23.8,54.46,8.03,54.46,8.03,0,0-51.03-65.28,0-65.28s51.03,26.81,51.03,26.81c0,0-33.28-94.25,20.3-79.19,53.57,15.05,33.28,59.11,33.28,59.11,0,0,5.45-83.89,43.97-68.83s12.94,73.82,12.94,73.82c0,0,28.96-61.56,57.42-44.82,28.46,16.74-10.53,66.59-10.53,66.59,0,0,49.43-55.9,66.17-22.45,16.74,33.44-27.65,55.9-27.65,55.9,0,0,65.28-42.7,73.66-10.87,8.37,31.8-31.8,52.73-31.8,52.73,0,0,73.95-21.94,62.24,23.26-11.71,45.2-80.5,29.17-80.5,29.17-.8,5.62-98.73-104.65-238.43-23.13-17.55,10.23-21.94,22.32-32.05,35.35h-.04Z"/><path class="cls-65" d="m322.8,646.41c-18.31-22.92-30.53,0-30.53,0"/><path class="cls-65" d="m407.24,646.41s12.22-22.92,30.53,0"/><path class="cls-27" d="m249.36,517.4s-12.01-54.97,20.04-35.14c25.28,15.64-2.54,23.93-1.94,24.31"/><path class="cls-27" d="m286.23,437.24s.76-48.88,20.63-34.38c19.83,14.5.76,22.92.76,22.92"/><path class="cls-27" d="m486.86,516.05s35.31-24.61,26.13,2.11c-9.18,26.72-19.28,15.26-19.28,15.26"/><path class="cls-27" d="m194.6,573.81s-11.46,16.62-20.63,1.61c-11.37-18.56,12.35-17.84,20.63-16.28l15.26,17.04"/><path class="cls-27" d="m390.83,467.76s10.61-29.77,24.4-27.48c13.78,2.28,15.98,9.05,15.26,13.7s-15.14,24.48-19.79,13.83c-4.61-10.7,4.48-12.26,4.48-12.26"/><path class="cls-25" d="m295.53,648.56l4.27,12.39c.47-.34,8.46-8.88,16.87,2.03l2.88-13.61c1.23-1.14-12.18-19.75-24.02-.8h0Z"/><path class="cls-26" d="m410.24,648.27l3.51,12.73s7.95-9.09,16.28,1.01l4.78-14s-12.98-19.49-24.52.21l-.04.04Z"/><path class="cls-59" d="m340.64,625.6s24.78-28.24,48.75,0"/><path class="cls-59" d="m327.11,619.35s36.45-50.27,75.81,0"/><ellipse class="cls-29" cx="411.85" cy="584.34" rx="8.88" ry="6"/><circle class="cls-40" cx="424.4" cy="578.33" r="3.64"/><ellipse class="cls-47" cx="299.55" cy="685.09" rx="10.61" ry="6.55"/><ellipse class="cls-47" cx="431.3" cy="685.09" rx="10.61" ry="6.55"/><ellipse class="cls-21" cx="307.54" cy="669.91" rx="7.95" ry="10.82"/><ellipse class="cls-21" cx="422.5" cy="669.91" rx="7.95" ry="10.82"/><path class="cls-24" d="m339.42,701.16c7.4,18.31,34.25,50.53,52.73,0h-52.73Z"/><path class="cls-46" d="m345.85,705.05h40.93c-.59,1.31-1.82,6.05-4.44,5.5-4.23-.93-5.41.21-5.41.21,0,0-4.69,1.99-9.34,0,0,0-4.95,2.28-8.29.08,0,0-3.76,2.45-9.68,0-.55-.55-2.96-4.57-3.81-5.79h.04Z"/><ellipse class="cls-28" cx="309.4" cy="664.5" rx="1.86" ry="5.41"/><ellipse class="cls-28" cx="420.68" cy="664.5" rx="1.86" ry="5.41"/><path class="cls-46" d="m359.93,722.22s2.11-1.27,4.06-.04c0,0,2.66-1.78,5.62,0,0,0,3.04-1.61,5.75-.34-.51.68-7.7,6.89-15.43.42v-.04Z"/><path class="cls-36" d="m296.12,749.66h0c-5.58-12.09-88.12,59.87-68.45,100.29,14.12,29.05,64.44-46.26,64.44-46.26,4.78-13.87-27.57,42.41-12.35,75.43,7.99,17.42,11.25,20.8,20.34,23.72,0,0,14.42,0,14.42.04-.68.68-25.71,59.11,2.83,63.21,29.34,4.23,31.88-55.64,31.84-57.12l2.11,1.06c.93.34,13.87,5.54,22.07-2.16h.04c.08,1.86,3.42,59.15,30.15,56.07,29.85-3.42,6.05-60.89,6.05-60.89h0c.93.38,17.5,3.97,26.13-5.24,15.09-16.11,4.74-89.13-1.73-96.4,0,0,48.58,63.47,66.59,51.92,30.91-19.87-55.01-111.5-62.87-106.68h0c-18.9,16.36-91.88,28.08-141.48,2.92l-.13.08Z"/><path class="cls-34" d="m276.46,846.48l66.04,44.65,6.13,8.41,4.23,6.38c1.82,2.96,8.96,14.08,16.57.34,6.98-12.64,11.08-13.78,11.08-13.78l65.03-43.13-63.63,40.13s-22.83,7.53-39.41,0l-66.04-44.65v1.65h0Z"/><path class="cls-22" d="m338.45,900.77s2.58,5.24,3.89,2.71c1.48-2.83,2.71-5.54,2.71-5.54"/><path class="cls-43" d="m401.78,892.23s5.5,3.51,6.81,1.01c1.48-2.83,1.44-2.75,1.44-2.75"/><ellipse class="cls-38" cx="272.23" cy="601.04" rx="7.7" ry="4.02"/><ellipse class="cls-39" cx="324.07" cy="725.13" rx="4.44" ry="7.44"/><circle class="cls-39" cx="264.54" cy="605.05" r="3.21"/><path class="cls-23" d="m280.82,563.49s10.57,49.55,30.53,37.5c20.34-12.26,15.31-39.28,15.31-39.28,0,0,4.78,33.11,23.34,25.5,18.56-7.61,21.94-27.86,21.94-27.86-.47,1.82-5.58,24.9,13.28,24.9,13.53,0,23.8-33.83,23.8-33.83,0,0-62.03-18.22-128.2,13.02v.04Z"/><line class="cls-61" x1="356.71" y1="703.44" x2="359.08" y2="713.55"/><line class="cls-61" x1="367.62" y1="703.53" x2="367.62" y2="712.79"/><line class="cls-61" x1="378.66" y1="703.53" x2="378.66" y2="711.94"/><line class="cls-61" x1="369.57" y1="719.93" x2="370.96" y2="725.13"/><line class="cls-61" x1="364.03" y1="719.93" x2="364.03" y2="726.06"/><circle class="cls-63" cx="361.87" cy="873.76" r=".55"/><path class="cls-35" d="m343.39,887.75c5.16,8.71,10.44,6.43,10.44,6.43,4.02,4.99,4.52,4.31,4.52,4.31,8.37,3.76,13.91-2.83,13.91-2.83,8.33-.51,6.98,1.18,8.41.38-3.13-.72,10.7,0,13.02-11.37,2.33-11.46,2.92-12.3,2.92-12.3"/><path class="cls-35" d="m319.72,868.51s-3.76,1.78-12.35-.76c-12.47-3.68-18.22-19.87-16.66-19.58"/><path class="cls-37" d="m325.04,820.27c-11.92,19.28-13.87,92.09,16.96,79.36,22.71-9.39,17.34-74.25,17.34-74.25"/><path class="cls-35" d="m439.84,848.17s-7.06,18.82-20.38,13.95"/><path class="cls-37" d="m371.43,824.88c-5.37,9.6,25.03,107.82,50.06,48.96,4.86-11.46-10.36-36.95-9.13-51.33"/><path class="cls-30" d="m307.12,753.8l-13.4,46.98s-19.53,39.45-12.35,42.87c7.19,3.42,117.29,25.41,162.66,0,0,0-4.57-44.35-13.7-43.97l-7.86-44.65-3.21.63,8.75,44.4s-82.24,13.83-130.44-3.09l12.81-41.9s-3.26-1.27-3.26-1.27Z"/><path class="cls-64" d="m349.86,905.13s-6.51,2.54-3.38,4.95c2.45,1.9,1.99-.8,1.99-.8l-.68-1.56"/><circle class="cls-64" cx="375.23" cy="903.23" r=".38"/><circle class="cls-64" cx="375.78" cy="906.82" r=".21"/><circle class="cls-64" cx="372.57" cy="907.71" r=".21"/><circle class="cls-64" cx="370.96" cy="909.44" r=".17"/><ellipse class="cls-64" cx="376.54" cy="900.44" rx=".55" ry=".08"/><circle class="cls-64" cx="346.06" cy="902.3" r=".21"/><circle class="cls-64" cx="346.06" cy="904.11" r=".21"/><circle class="cls-64" cx="344.7" cy="906.14" r=".34"/><circle class="cls-64" cx="373.92" cy="908.72" r=".13"/><circle class="cls-64" cx="373.67" cy="905.13" r=".13"/><ellipse class="cls-64" cx="348.38" cy="905" rx=".08" ry=".25"/><circle class="cls-64" cx="377.22" cy="902.21" r=".13"/><circle class="cls-64" cx="377.01" cy="905.09" r=".13"/><circle class="cls-64" cx="352.1" cy="909.65" r=".25"/><circle class="cls-64" cx="353.12" cy="911.72" r=".3"/><circle class="cls-64" cx="369.65" cy="911.26" r=".21"/><circle class="cls-64" cx="350.45" cy="908.17" r=".3"/><circle class="cls-64" cx="378.19" cy="898.28" r=".38"/><circle class="cls-64" cx="378.7" cy="900.22" r=".13"/><path class="cls-64" d="m374,903.23c-.85.08,2.79,2.03,2.62,3.09-.38,2.2-2.49,0-1.99-.51"/><path class="cls-60" d="m305.93,925.13s17.46,10.32,41.77,7.74c0,0-9.68,38.27-29.72,34.33-15.01-2.96-16.41-17.84-15.64-25.88.25-2.66,3.59-16.24,3.59-16.24v.04Z"/><line class="cls-60" x1="313.5" y1="927.66" x2="303.1" y2="953.75"/><line class="cls-60" x1="324.96" y1="931.72" x2="313.5" y2="965.38"/><line class="cls-60" x1="336.08" y1="933.2" x2="329.4" y2="965.38"/><path class="cls-60" d="m303.14,952.23s3.59,10.57,29.64,10.7"/><path class="cls-60" d="m301.53,941.28s15.22,13.11,40.13,9.81"/><path class="cls-60" d="m302.59,936.21s19.96,12.35,40.34,9.98"/><path class="cls-60" d="m303.82,930.71s20.63,12.81,42.24,8.58"/><path class="cls-60" d="m302.17,947.2s12.52,11.42,35.09,9.89"/><path class="cls-44" d="m305.13,923.61s.72-3.38.97-3.38,25.03,11.59,42.75,7.44l-.63,4.06s-32.01,2.71-43.09-8.12Z"/><path class="cls-60" d="m375.87,931.89s20.25,1.56,40.89-11.5c0,0,10.49,37.8-9.22,43.13-14.76,3.97-24.9-7.95-27.74-15.48-.97-2.49-3.93-16.15-3.93-16.15h0Z"/><line class="cls-60" x1="383.77" y1="930.79" x2="385.97" y2="958.78"/><line class="cls-60" x1="395.86" y1="929.4" x2="400.43" y2="964.62"/><line class="cls-60" x1="406.48" y1="925.8" x2="413.92" y2="958.78"/><path class="cls-60" d="m385.34,957.43s7.86,7.91,31.29-3.51"/><path class="cls-60" d="m379.08,948.34s19.45,5.03,40.34-8.92"/><path class="cls-60" d="m377.77,943.27s23.38,2.24,40.59-8.88"/><path class="cls-60" d="m376.42,937.81s24.19,2.37,41.69-10.99"/><path class="cls-60" d="m382.25,953.33s16.28,4.69,35.86-6.64"/><path class="cls-44" d="m374.47,930.88s-.85-3.38-.63-3.47,27.57-.68,41.65-12.22l1.23,3.93s-27.53,16.57-42.24,11.8v-.04Z"/><path class="cls-64" d="m360.69,788.13s-7.65,3.68-3.97,7.15c2.88,2.75,2.33-1.18,2.33-1.18l-.8-2.24"/><path class="cls-64" d="m363.65,782.64c-1.01.13,3.34,3.51,3.13,5.41-.47,3.85-2.96,0-2.37-.85"/><ellipse class="cls-29" cx="330.71" cy="789.74" rx="5.5" ry="3.68"/><ellipse class="cls-40" cx="402.46" cy="774.22" rx="1.78" ry="3.47"/><circle class="cls-40" cx="338.45" cy="782.64" r="2.24"/><path class="cls-36" d="m294.73,783.61s.34,10.49-1.69,21.65c-4.36,24.02-13.66,18.1-18.31,17.29"/><path class="cls-36" d="m431.3,786.19s-1.65,19.11,6.47,25.58,14.54,9.18,14.54,9.18h0"/><path class="cls-60" d="m297.52,666.74s-4.02-6.93-2.28-12.77l2.92,10.7-.68,2.07h.04Z"/><path class="cls-60" d="m301.49,661.92s-2.92-7.61-2.71-9.09c0,0,3.68,7.1,4.14,6.98s-1.48,2.11-1.48,2.11h.04Z"/><path class="cls-60" d="m431.89,664.63s4.02-6.93,2.28-12.77l-2.92,10.7.68,2.07h-.04Z"/><path class="cls-60" d="m427.91,659.85s2.92-7.61,2.71-9.09c0,0-3.68,7.1-4.14,6.98s1.48,2.11,1.48,2.11h-.04Z"/><path class="cls-66" d="m329.95,705.05s11.54,0,8.08-12.56"/><path class="cls-66" d="m393.41,692.49s-2.79,12.56,7.27,12.56"/></g><g><ellipse class="cls-67" cx="953.77" cy="346.71" rx="168.11" ry="172.55"/><path class="cls-55" d="m935.38,3.47s17.72,6.98,0,12.05c-17.72,5.07-8.16,11.88,0,12.3,8.16.42,14.88,14.42-1.06,16.53s-9.85,14.42.38,14.42,17.72,8.88,5.45,12.73c-12.26,3.85-17.42,8.88-4.61,14.42,12.81,5.54,20.97,5.07,4.61,13.57s-12.6,8.03-3.26,14.42c9.34,6.38,10.74,8.88,3.26,14-7.48,5.12-12.6,9.77-3.26,13.57,9.34,3.81,12.26,5.92,7.23,13.49-5.03,7.53-13.28,6.68-2.07,14.5,11.2,7.82-1.48-19.15-1.48-19.15,0,0-13.02-6.22.25-15.73,13.28-9.51-2.28-13.36-2.28-13.36,0,0-15.05-3.17-2.79-12.9,12.26-9.68,1.18-12.39,1.18-12.39,0,0-9.05-6.51,0-13.02s0-14,0-14c0,0-14.97-8.75-1.94-14,13.02-5.24-1.27-14.33-1.27-14.33,0,0-14.8-5.58,1.27-16.87,16.07-11.29-10.78-8.16-1.27-11.12l1.73-9.05-.08-.08Z"/><path class="cls-54" d="m834.84,229.34s-66.13,86.89-18.52,206.67"/><path class="cls-54" d="m849.17,215.93s-68.24,97.71-24.86,233.48"/><path class="cls-54" d="m1053.73,478.67c15.77-146-11.88-275.17-11.88-275.17-127.9-9.43-180.54,2.83-180.54,2.83,0,0-71.54,121.35-26.47,257.37,0,0,100.17,20.55,238.85,3.97"/><path class="cls-54" d="m870.82,200.25s-66.93,134.71-24.44,273.01"/><path class="cls-54" d="m856.31,482.18c-34.21-149.55,23.59-287.47,23.59-287.47,0,0,70.4-5.24,142.87,0,0,0,31.25,145.79,9.77,300.46"/><path class="cls-54" d="m889.59,190.18s-54.76,133.7-21.73,300.67"/><path class="cls-54" d="m899.4,186.25s-47.86,146.38-19.53,312.38"/><path class="cls-54" d="m911.92,181.69s-39.96,168.7-19.79,321.93"/><path class="cls-54" d="m926.88,178.77s-41.73,174.71-20.59,330.64"/><path class="cls-54" d="m936.9,176.91s-25.24,313.48-17.63,335.72"/><path class="cls-54" d="m949.25,176.91s-12.35,301.72-14.71,337.45"/><path class="cls-54" d="m966.33,176.91s-10.44,301.72-12.6,342.36"/><path class="cls-54" d="m976.94,178.77s10.4,151.71-6.81,335.59"/><path class="cls-54" d="m991.36,181.69s21.56,158.85-1.27,330.94"/><path class="cls-54" d="m1058.21,213.9s32.68,128.75,15.43,253.73"/><path class="cls-54" d="m1073.69,229.34s36.11,86.38,21.65,202.32"/><path class="cls-54" d="m1088.95,248.32s26.34,50.53,22.49,143.25"/><path class="cls-54" d="m885.15,190.18s48.62-10.74,122.32-3.93c0,0,28.37,158.73,3.81,319.4"/><path class="cls-54" d="m845.49,215.93s165.58-16.11,213.82,2.28"/><path class="cls-54" d="m832.26,230.73s141.35-27.19,246.46,3.42"/><path class="cls-54" d="m819.95,243.46s152.93-33.02,266.25,1.4"/><path class="cls-54" d="m809.89,257.92s155.09-45.41,286.46,2.75"/><path class="cls-54" d="m803.5,275.21s133.44-51.92,296.86-3.47"/><path class="cls-54" d="m799.06,286.38s154.71-47.82,308.49,0"/><path class="cls-54" d="m794.58,299.36s174.03-46.26,319.74,6.85"/><path class="cls-54" d="m791.45,312.89s171.62-42.28,325.61,7.06"/><path class="cls-54" d="m789.47,326.75s180.71-37.67,329.25,5.92"/><path class="cls-54" d="m787.48,339.27s178.85-25.12,331.19,3.38"/><path class="cls-54" d="m787.48,352.04s196.06-12.77,331.19,5.24"/><path class="cls-54" d="m787.48,367.01s178.85-3.68,329.55,6.3"/><path class="cls-54" d="m791.2,380.37s126.63,5.67,323.2,9.47"/><path class="cls-54" d="m795.64,397.45s164.43,23.59,315.42,10.23"/><path class="cls-54" d="m805.58,423.2s154.5,20.8,293.14,5.62"/><path class="cls-54" d="m816.95,440.79s141.01,26.76,273.27,6.72"/><path class="cls-54" d="m851.54,483.66s108.54,21.99,205.28-5.03"/><path class="cls-54" d="m881.09,503.62s104.69,11.97,133.86,2.03"/><path class="cls-8" d="m716.28,208.79l-7.27,12.9c-.97,1.69-3.09,2.28-4.74,1.31l-7.02-4.14c-1.65-.97-2.24-3.17-1.27-4.86l7.27-12.9c.97-1.69,3.09-2.28,4.74-1.31l7.02,4.14c1.65.97,2.24,3.17,1.27,4.86Z"/><path class="cls-13" d="m783.84,268.45l-2.28,4.06c-1.27,2.24-4.02,3-6.17,1.69l-2.07-1.23c-2.16-1.27-2.92-4.14-1.65-6.34l2.28-4.06c1.27-2.24,4.02-3,6.17-1.69l2.07,1.23c2.16,1.27,2.92,4.14,1.65,6.34Z"/><path class="cls-15" d="m768.24,378.08l.68,4.65c.38,2.54-1.35,4.9-3.81,5.29l-2.37.38c-2.49.38-4.78-1.35-5.16-3.93l-.68-4.65c-.38-2.54,1.35-4.9,3.81-5.29l2.37-.38c2.49-.38,4.78,1.35,5.16,3.93Z"/><path class="cls-15" d="m793.99,248.83l-2.62,3.85c-1.44,2.11-4.27,2.62-6.3,1.18l-1.94-1.4c-2.07-1.48-2.58-4.36-1.14-6.47l2.62-3.85c1.44-2.11,4.27-2.62,6.3-1.18l1.94,1.4c2.07,1.48,2.58,4.36,1.14,6.47Z"/><path class="cls-12" d="m805.75,230.44l-3,3.51c-1.65,1.94-4.52,2.11-6.38.42l-1.78-1.61c-1.86-1.69-2.07-4.65-.42-6.55l3-3.51c1.65-1.94,4.52-2.11,6.38-.42l1.78,1.61c1.86,1.69,2.07,4.65.42,6.55Z"/><path class="cls-15" d="m822.62,213.86l-3.21,3.3c-1.78,1.82-4.65,1.82-6.43,0l-1.69-1.73c-1.78-1.82-1.78-4.78,0-6.6l3.21-3.3c1.78-1.82,4.65-1.82,6.43,0l1.69,1.73c1.78,1.82,1.78,4.78,0,6.6Z"/><path class="cls-9" d="m840.16,198.72l-3.59,2.88c-1.99,1.56-4.82,1.18-6.34-.85l-1.48-1.94c-1.52-2.03-1.18-4.95.8-6.51l3.59-2.88c1.99-1.56,4.82-1.18,6.34.85l1.48,1.94c1.52,2.03,1.18,4.95-.8,6.51Z"/><path class="cls-17" d="m857.37,185.15l-3.76,2.66c-2.07,1.48-4.86.97-6.3-1.14l-1.35-2.03c-1.44-2.11-.93-4.99,1.14-6.47l3.76-2.66c2.07-1.48,4.86-.97,6.3,1.14l1.35,2.03c1.44,2.11.93,4.99-1.14,6.47Z"/><path class="cls-15" d="m875.81,175.09l-4.14,2.03c-2.24,1.1-4.95.13-6.05-2.2l-1.01-2.2c-1.1-2.33-.13-5.07,2.11-6.22l4.14-2.03c2.24-1.1,4.95-.13,6.05,2.2l1.01,2.2c1.1,2.33.13,5.07-2.11,6.22Z"/><path class="cls-17" d="m897.5,165.45l-4.4,1.27c-2.41.72-4.9-.72-5.58-3.21l-.63-2.37c-.68-2.45.72-5.03,3.13-5.75l4.4-1.27c2.41-.72,4.9.72,5.58,3.21l.63,2.37c.68,2.45-.72,5.03-3.13,5.75Z"/><path class="cls-20" d="m920.71,161.01l-4.57.47c-2.49.25-4.69-1.61-4.95-4.19l-.21-2.45c-.25-2.54,1.56-4.82,4.06-5.07l4.57-.47c2.49-.25,4.69,1.61,4.95,4.19l.21,2.45c.25,2.54-1.56,4.82-4.06,5.07Z"/><path class="cls-14" d="m964.89,158.94l-4.57-.25c-2.49-.17-4.4-2.37-4.27-4.9l.13-2.45c.13-2.58,2.28-4.52,4.78-4.36l4.57.25c2.49.17,4.4,2.37,4.27,4.9l-.13,2.45c-.13,2.58-2.28,4.52-4.78,4.36Z"/><path class="cls-9" d="m992.04,161.39l-4.57-.25c-2.49-.17-4.4-2.37-4.27-4.9l.13-2.45c.13-2.58,2.28-4.52,4.78-4.36l4.57.25c2.49.17,4.4,2.37,4.27,4.9l-.13,2.45c-.13,2.58-2.28,4.52-4.78,4.36Z"/><path class="cls-20" d="m1015.67,168.37l-4.4-1.27c-2.41-.72-3.81-3.26-3.13-5.75l.63-2.37c.68-2.45,3.17-3.89,5.58-3.21l4.4,1.27c2.41.72,3.81,3.26,3.13,5.75l-.63,2.37c-.68,2.45-3.17,3.89-5.58,3.21Z"/><path class="cls-15" d="m1035.34,177.08l-3.97-2.37c-2.16-1.27-2.92-4.14-1.65-6.34l1.18-2.11c1.27-2.24,4.02-3,6.17-1.69l3.97,2.37c2.16,1.27,2.92,4.14,1.65,6.34l-1.18,2.11c-1.27,2.24-4.02,3-6.17,1.69Z"/><path class="cls-15" d="m1114.53,260.12l-1.99-4.23c-1.1-2.33-.13-5.07,2.11-6.22l2.16-1.06c2.24-1.1,4.95-.13,6.05,2.2l1.99,4.23c1.1,2.33.13,5.07-2.11,6.22l-2.16,1.06c-2.24,1.1-4.95.13-6.05-2.2Z"/><path class="cls-15" d="m1110.98,229.13l2.62,3.85c1.44,2.11.93,4.99-1.14,6.47l-1.94,1.4c-2.07,1.48-4.86.97-6.3-1.14l-2.62-3.85c-1.44-2.11-.93-4.99,1.14-6.47l1.94-1.4c2.07-1.48,4.86-.97,6.3,1.14Z"/><path class="cls-15" d="m1090.89,221.47l-2.92-3.59c-1.61-1.99-1.35-4.9.59-6.55l1.82-1.56c1.9-1.65,4.78-1.4,6.38.59l2.92,3.59c1.61,1.99,1.35,4.9-.59,6.55l-1.82,1.56c-1.9,1.65-4.78,1.4-6.38-.59Z"/><path class="cls-15" d="m1076.26,205.45l-3.21-3.3c-1.78-1.82-1.78-4.78,0-6.6l1.69-1.73c1.78-1.82,4.65-1.82,6.43,0l3.21,3.3c1.78,1.82,1.78,4.78,0,6.6l-1.69,1.73c-1.78,1.82-4.65,1.82-6.43,0Z"/><path class="cls-15" d="m1057.32,190.78l-3.76-2.66c-2.07-1.48-2.58-4.36-1.14-6.47l1.35-2.03c1.44-2.11,4.27-2.62,6.3-1.18l3.76,2.66c2.07,1.48,2.58,4.36,1.14,6.47l-1.35,2.03c-1.44,2.11-4.27,2.62-6.3,1.18Z"/><path class="cls-13" d="m1139.98,295.17l1.06,4.57c.59,2.49-.93,4.99-3.38,5.58l-2.33.55c-2.45.59-4.86-.97-5.45-3.47l-1.06-4.57c-.59-2.49.93-4.99,3.38-5.58l2.33-.55c2.45-.59,4.86.97,5.45,3.47Z"/><rect class="cls-13" x="1136.64" y="338.64" width="11.46" height="14" rx="1.9" ry="1.9"/><path class="cls-13" d="m1145.78,319.27l.42,4.69c.21,2.54-1.61,4.82-4.1,5.07l-2.37.21c-2.49.25-4.69-1.65-4.9-4.19l-.42-4.69c-.21-2.54,1.61-4.82,4.1-5.07l2.37-.21c2.49-.25,4.69,1.65,4.9,4.19Z"/><path class="cls-13" d="m1132.92,272.08l1.78,4.31c.97,2.37-.13,5.07-2.45,6.09l-2.2.93c-2.33.97-4.95-.13-5.92-2.49l-1.78-4.31c-.97-2.37.13-5.07,2.45-6.09l2.2-.93c2.33-.97,4.95.13,5.92,2.49Z"/><rect class="cls-13" x="756.44" y="353.18" width="11.46" height="14" rx="1.9" ry="1.9"/><path class="cls-13" d="m768.03,334.79l-.3,4.69c-.17,2.58-2.33,4.48-4.82,4.31l-2.37-.17c-2.49-.17-4.4-2.37-4.23-4.95l.3-4.69c.17-2.58,2.33-4.48,4.82-4.31l2.37.17c2.49.17,4.4,2.37,4.23,4.95Z"/><path class="cls-13" d="m769.97,311.58l-.68,4.65c-.38,2.54-2.66,4.27-5.16,3.89l-2.37-.38c-2.49-.38-4.19-2.75-3.81-5.29l.68-4.65c.38-2.54,2.66-4.27,5.16-3.89l2.37.38c2.49.38,4.19,2.75,3.81,5.29Z"/><path class="cls-13" d="m774.88,288.95l-1.23,4.52c-.68,2.45-3.17,3.93-5.58,3.21l-2.28-.68c-2.41-.68-3.81-3.26-3.13-5.75l1.23-4.52c.68-2.45,3.17-3.93,5.58-3.21l2.28.68c2.41.68,3.81,3.26,3.13,5.75Z"/><path class="cls-8" d="m765.75,126.34l11.12-9.56c1.48-1.27,3.64-1.06,4.86.47l5.2,6.38c1.23,1.52,1.01,3.76-.42,4.99l-11.12,9.56c-1.48,1.27-3.64,1.06-4.86-.47l-5.2-6.38c-1.23-1.52-1.01-3.76.42-4.99Z"/><path class="cls-8" d="m738.64,150.44l10.27-10.53c1.35-1.4,3.55-1.4,4.9,0l5.71,5.88c1.35,1.4,1.35,3.64,0,5.03l-10.27,10.53c-1.35,1.4-3.55,1.4-4.9,0l-5.71-5.88c-1.35-1.4-1.35-3.64,0-5.03Z"/><path class="cls-8" d="m715.85,180.5l8.29-12.22c1.1-1.61,3.26-1.99,4.82-.89l6.64,4.74c1.56,1.1,1.94,3.34.85,4.95l-8.29,12.22c-1.1,1.61-3.26,1.99-4.82.89l-6.64-4.74c-1.56-1.1-1.94-3.34-.85-4.95Z"/><path class="cls-13" d="m762.58,245.74l-2.28,4.06c-1.27,2.24-4.02,3-6.17,1.69l-2.07-1.23c-2.16-1.27-2.92-4.14-1.65-6.34l2.28-4.06c1.27-2.24,4.02-3,6.17-1.69l2.07,1.23c2.16,1.27,2.92,4.14,1.65,6.34Z"/><path class="cls-13" d="m737.76,333.9l-.3,4.69c-.17,2.58-2.33,4.48-4.82,4.31l-2.37-.17c-2.49-.17-4.4-2.37-4.23-4.95l.3-4.69c.17-2.58,2.33-4.48,4.82-4.31l2.37.17c2.49.17,4.4,2.37,4.23,4.95Z"/><path class="cls-13" d="m741.22,311.58l-.68,4.65c-.38,2.54-2.66,4.27-5.16,3.89l-2.37-.38c-2.49-.38-4.19-2.75-3.81-5.29l.68-4.65c.38-2.54,2.66-4.27,5.16-3.89l2.37.38c2.49.38,4.19,2.75,3.81,5.29Z"/><path class="cls-13" d="m745.71,290.14l-1.23,4.52c-.68,2.45-3.17,3.93-5.58,3.21l-2.28-.68c-2.41-.68-3.81-3.26-3.13-5.75l1.23-4.52c.68-2.45,3.17-3.93,5.58-3.21l2.28.68c2.41.68,3.81,3.26,3.13,5.75Z"/><path class="cls-13" d="m752.05,267.52l-1.65,4.36c-.93,2.41-3.55,3.59-5.88,2.62l-2.24-.89c-2.33-.93-3.47-3.64-2.58-6l1.65-4.36c.93-2.41,3.55-3.59,5.88-2.62l2.24.89c2.33.93,3.47,3.64,2.58,6Z"/><path class="cls-15" d="m775.18,227.56l-3,3.51c-1.65,1.94-4.52,2.11-6.38.42l-1.78-1.61c-1.86-1.69-2.07-4.65-.42-6.55l3-3.51c1.65-1.94,4.52-2.11,6.38-.42l1.78,1.61c1.86,1.69,2.07,4.65.42,6.55Z"/><path class="cls-12" d="m789.38,208.49l-3.21,3.3c-1.78,1.82-4.65,1.82-6.43,0l-1.69-1.73c-1.78-1.82-1.78-4.78,0-6.6l3.21-3.3c1.78-1.82,4.65-1.82,6.43,0l1.69,1.73c1.78,1.82,1.78,4.78,0,6.6Z"/><path class="cls-15" d="m804.73,192.68l-3.21,3.3c-1.78,1.82-4.65,1.82-6.43,0l-1.69-1.73c-1.78-1.82-1.78-4.78,0-6.6l3.21-3.3c1.78-1.82,4.65-1.82,6.43,0l1.69,1.73c1.78,1.82,1.78,4.78,0,6.6Z"/><path class="cls-9" d="m819.66,179.32l-3.59,2.88c-1.99,1.56-4.82,1.18-6.34-.85l-1.48-1.94c-1.52-2.03-1.18-4.95.8-6.51l3.59-2.88c1.99-1.56,4.82-1.18,6.34.85l1.48,1.94c1.52,2.03,1.18,4.95-.8,6.51Z"/><path class="cls-15" d="m875.55,143.8l-4.23,1.73c-2.33.97-4.95-.21-5.88-2.58l-.89-2.28c-.93-2.37.21-5.07,2.54-6.05l4.23-1.73c2.33-.97,4.95.21,5.88,2.58l.89,2.28c.93,2.37-.21,5.07-2.54,6.05Z"/><path class="cls-17" d="m897.5,137.42l-4.48.89c-2.45.47-4.82-1.18-5.29-3.68l-.47-2.41c-.47-2.54,1.14-4.95,3.59-5.45l4.48-.89c2.45-.47,4.82,1.18,5.29,3.68l.47,2.41c.47,2.54-1.14,4.95-3.59,5.45Z"/><path class="cls-20" d="m920.08,133.1l-4.57.47c-2.49.25-4.69-1.61-4.95-4.19l-.21-2.45c-.25-2.54,1.56-4.82,4.06-5.07l4.57-.47c2.49-.25,4.69,1.61,4.95,4.19l.21,2.45c.25,2.54-1.56,4.82-4.06,5.07Z"/><path class="cls-9" d="m837.37,166.04l-3.76,2.66c-2.07,1.48-4.86.97-6.3-1.14l-1.35-2.03c-1.44-2.11-.93-4.99,1.14-6.47l3.76-2.66c2.07-1.48,4.86-.97,6.3,1.14l1.35,2.03c1.44,2.11.93,4.99-1.14,6.47Z"/><path class="cls-17" d="m856.36,153.31l-3.97,2.37c-2.16,1.27-4.95.51-6.17-1.69l-1.18-2.11c-1.27-2.24-.51-5.07,1.65-6.34l3.97-2.37c2.16-1.27,4.95-.51,6.17,1.69l1.18,2.11c1.27,2.24.51,5.07-1.65,6.34Z"/><rect class="cls-13" x="726.21" y="352.38" width="11.46" height="14.8" rx="1.9" ry="1.9"/><path class="cls-13" d="m1162.35,319.74l.3,4.69c.17,2.58,2.33,4.48,4.82,4.31l2.37-.17c2.49-.17,4.4-2.37,4.23-4.95l-.3-4.69c-.17-2.58-2.33-4.48-4.82-4.31l-2.37.17c-2.49.17-4.4,2.37-4.23,4.95Z"/><path class="cls-13" d="m1158.88,297.41l.68,4.65c.38,2.54,2.66,4.27,5.16,3.89l2.37-.38c2.49-.38,4.19-2.75,3.81-5.29l-.68-4.65c-.38-2.54-2.66-4.27-5.16-3.89l-2.37.38c-2.49.38-4.19,2.75-3.81,5.29Z"/><path class="cls-13" d="m1154.44,275.97l1.23,4.52c.68,2.45,3.17,3.93,5.58,3.21l2.28-.68c2.41-.68,3.81-3.26,3.13-5.75l-1.23-4.52c-.68-2.45-3.17-3.93-5.58-3.21l-2.28.68c-2.41.68-3.81,3.26-3.13,5.75Z"/><path class="cls-13" d="m1148.06,257.12l1.65,4.36c.93,2.41,3.55,3.59,5.88,2.62l2.24-.89c2.33-.93,3.47-3.64,2.58-6l-1.65-4.36c-.93-2.41-3.55-3.59-5.88-2.62l-2.24.89c-2.33.93-3.47,3.64-2.58,6Z"/><rect class="cls-13" x="1162.52" y="338.21" width="11.46" height="14.8" rx="1.9" ry="1.9"/><path class="cls-13" d="m1138.29,235.85l2.28,4.06c1.27,2.24,4.02,3,6.17,1.69l2.07-1.23c2.16-1.27,2.92-4.14,1.65-6.34l-2.28-4.06c-1.27-2.24-4.02-3-6.17-1.69l-2.07,1.23c-2.16,1.27-2.92,4.14-1.65,6.34Z"/><path class="cls-15" d="m1127.3,218.26l3,3.51c1.65,1.94,4.52,2.11,6.38.42l1.78-1.61c1.86-1.69,2.07-4.65.42-6.55l-3-3.51c-1.65-1.94-4.52-2.11-6.38-.42l-1.78,1.61c-1.86,1.69-2.07,4.65-.42,6.55Z"/><path class="cls-12" d="m1114.36,202.11l3.21,3.3c1.78,1.82,4.65,1.82,6.43,0l1.69-1.73c1.78-1.82,1.78-4.78,0-6.6l-3.21-3.3c-1.78-1.82-4.65-1.82-6.43,0l-1.69,1.73c-1.78,1.82-1.78,4.78,0,6.6Z"/><path class="cls-15" d="m1098.08,186.51l3.21,3.3c1.78,1.82,4.65,1.82,6.43,0l1.69-1.73c1.78-1.82,1.78-4.78,0-6.6l-3.21-3.3c-1.78-1.82-4.65-1.82-6.43,0l-1.69,1.73c-1.78,1.82-1.78,4.78,0,6.6Z"/><path class="cls-9" d="m1081.51,169.76l3.55,2.96c1.94,1.61,4.78,1.31,6.38-.68l1.52-1.9c1.56-1.99,1.31-4.9-.63-6.55l-3.55-2.96c-1.94-1.61-4.78-1.31-6.38.68l-1.52,1.9c-1.56,1.99-1.31,4.9.63,6.55h0Z"/><path class="cls-9" d="m1063.45,157.58l3.93,2.41c2.16,1.31,4.95.63,6.22-1.56l1.23-2.11c1.31-2.2.59-5.07-1.52-6.38l-3.93-2.41c-2.16-1.31-4.95-.63-6.22,1.56l-1.23,2.11c-1.31,2.2-.59,5.07,1.52,6.38Z"/><path class="cls-15" d="m1004.68,133.57l4.48.89c2.45.47,4.82-1.18,5.29-3.68l.47-2.41c.47-2.54-1.14-4.95-3.59-5.45l-4.48-.89c-2.45-.47-4.82,1.18-5.29,3.68l-.47,2.41c-.47,2.54,1.14,4.95,3.59,5.45Z"/><rect class="cls-18" x="977.42" y="119.78" width="13.61" height="11.75" rx="1.9" ry="1.9" transform="translate(-.33 2.58) rotate(-.15)"/><path class="cls-20" d="m958.93,131.75l4.57-.47c2.49-.25,4.31-2.54,4.06-5.07l-.21-2.45c-.25-2.54-2.45-4.44-4.95-4.19l-4.57.47c-2.49.25-4.31,2.54-4.06,5.07l.21,2.45c.25,2.54,2.45,4.44,4.95,4.19Z"/><path class="cls-17" d="m1025.27,139.15l4.31,1.52c2.37.85,4.95-.47,5.75-2.88l.76-2.33c.8-2.41-.42-5.07-2.79-5.92l-4.31-1.52c-2.37-.85-4.95.47-5.75,2.88l-.76,2.33c-.8,2.41.42,5.07,2.79,5.92Z"/><path class="cls-13" d="m1044.38,146.51l4.74,2.58c2.2,1.18,4.95.34,6.13-1.94l1.14-2.16c1.18-2.28.34-5.07-1.86-6.3l-4.74-2.58c-2.2-1.18-4.95-.34-6.13,1.94l-1.14,2.16c-1.18,2.28-.34,5.07,1.86,6.3Z"/><rect class="cls-8" x="665.45" y="346.25" width="15.01" height="21.99" rx="1.44" ry="1.44"/><path class="cls-8" d="m680.34,249.25l5.29-13.87c.68-1.82,2.71-2.75,4.48-2.03l7.53,3c1.78.72,2.66,2.79,1.94,4.61l-5.29,13.87c-.68,1.82-2.71,2.75-4.48,2.03l-7.53-3c-1.78-.72-2.66-2.79-1.94-4.61Z"/><path class="cls-8" d="m671.63,287.18l2.92-14.59c.38-1.9,2.2-3.17,4.1-2.75l7.95,1.69c1.86.38,3.09,2.28,2.71,4.19l-2.92,14.59c-.38,1.9-2.2,3.17-4.1,2.75l-7.95-1.69c-1.86-.38-3.09-2.28-2.71-4.19Z"/><path class="cls-8" d="m667.19,326.54l1.48-14.8c.21-1.94,1.9-3.38,3.81-3.17l8.03.85c1.9.21,3.3,1.94,3.09,3.89l-1.48,14.8c-.21,1.94-1.9,3.38-3.81,3.17l-8.03-.85c-1.9-.21-3.3-1.94-3.09-3.89Z"/><path class="cls-8" d="m1199.05,185.36l-8.29-12.22c-1.1-1.61-3.26-1.99-4.82-.89l-6.64,4.74c-1.56,1.14-1.94,3.34-.85,4.95l8.29,12.22c1.1,1.61,3.26,1.99,4.82.89l6.64-4.74c1.56-1.14,1.94-3.34.85-4.95Z"/><path class="cls-8" d="m1124.51,105.92l-11.92-8.5c-1.56-1.1-3.72-.72-4.82.89l-4.61,6.81c-1.1,1.61-.72,3.81.85,4.95l11.92,8.5c1.56,1.1,3.72.72,4.82-.89l4.61-6.81c1.1-1.61.72-3.81-.85-4.95Z"/><path class="cls-8" d="m1152.75,130.44l-11.2-9.47c-1.48-1.23-3.64-1.01-4.86.51l-5.16,6.43c-1.23,1.52-1.01,3.76.47,4.99l11.2,9.47c1.48,1.23,3.64,1.01,4.86-.51l5.16-6.43c1.23-1.52,1.01-3.76-.47-4.99Z"/><path class="cls-8" d="m1178.63,155.98l-9.47-11.25c-1.27-1.48-3.42-1.65-4.86-.38l-6.13,5.41c-1.44,1.27-1.61,3.51-.34,4.99l9.47,11.25c1.27,1.48,3.42,1.65,4.86.38l6.13-5.41c1.44-1.27,1.61-3.51.34-4.99Z"/><path class="cls-8" d="m795.34,103.29l11.88-8.5c1.56-1.14,3.72-.72,4.82.89l4.65,6.81c1.1,1.61.72,3.81-.85,4.95l-11.88,8.5c-1.56,1.14-3.72.72-4.82-.89l-4.65-6.81c-1.1-1.61-.72-3.81.85-4.95Z"/><path class="cls-8" d="m897.16,62.58l14.42-1.44c1.9-.17,3.59,1.23,3.76,3.21l.76,8.29c.17,1.94-1.23,3.68-3.13,3.89l-14.42,1.44c-1.9.17-3.59-1.23-3.76-3.21l-.76-8.29c-.17-1.94,1.23-3.68,3.13-3.89Z"/><path class="cls-8" d="m862.15,69.89l14.12-3.38c1.86-.47,3.72.72,4.14,2.66l1.86,8.08c.42,1.9-.72,3.81-2.58,4.27l-14.12,3.38c-1.86.47-3.72-.72-4.14-2.66l-1.86-8.08c-.42-1.9.72-3.81,2.58-4.27Z"/><path class="cls-8" d="m827.99,83.34l13.45-5.54c1.78-.72,3.81.17,4.48,1.99l3,7.74c.72,1.82-.17,3.89-1.94,4.61l-13.45,5.54c-1.78.72-3.81-.17-4.48-1.99l-3-7.74c-.72-1.82.17-3.89,1.94-4.61Z"/><rect class="cls-8" x="1219.98" y="319.48" width="15.01" height="21.99" rx="1.44" ry="1.44"/><path class="cls-8" d="m1218.42,221.68l-6.26-13.45c-.85-1.78-2.88-2.54-4.61-1.65l-7.31,3.59c-1.73.85-2.45,2.96-1.61,4.74l6.26,13.45c.85,1.78,2.88,2.54,4.61,1.65l7.31-3.59c1.73-.85,2.45-2.96,1.61-4.74Z"/><path class="cls-8" d="m1229.16,262.27l-3.93-14.33c-.51-1.9-2.41-3-4.27-2.45l-7.78,2.24c-1.82.55-2.92,2.49-2.41,4.4l3.93,14.33c.51,1.9,2.41,3,4.27,2.45l7.78-2.24c1.82-.55,2.92-2.49,2.41-4.4Z"/><path class="cls-8" d="m1232.58,300.07l-1.48-14.8c-.21-1.94-1.9-3.38-3.81-3.17l-8.03.85c-1.9.21-3.3,1.94-3.09,3.89l1.48,14.8c.21,1.94,1.9,3.38,3.81,3.17l8.03-.85c1.9-.21,3.3-1.94,3.09-3.89Z"/><path class="cls-8" d="m1089.92,83.63l-13.32-5.88c-1.78-.76-3.81.04-4.52,1.86l-3.17,7.65c-.76,1.82.04,3.89,1.82,4.65l13.32,5.88c1.78.76,3.81-.04,4.52-1.86l3.17-7.65c.76-1.82-.04-3.89-1.82-4.65Z"/><rect class="cls-8" x="959.52" y="59.49" width="21.44" height="15.43" rx="1.44" ry="1.44"/><path class="cls-8" d="m1018.42,62.92l-14.42-1.65c-1.9-.21-3.59,1.18-3.81,3.13l-.89,8.24c-.21,1.94,1.14,3.72,3.04,3.93l14.42,1.65c1.9.21,3.59-1.18,3.81-3.13l.89-8.24c.21-1.94-1.14-3.72-3.04-3.93Z"/><path class="cls-8" d="m1055.88,70.15l-14.12-3.42c-1.86-.47-3.72.72-4.14,2.62l-1.86,8.08c-.42,1.9.72,3.81,2.58,4.27l14.12,3.42c1.86.47,3.72-.72,4.14-2.62l1.86-8.08c.42-1.9-.72-3.81-2.58-4.27Z"/><path class="cls-8" d="m672.26,208.41l-6.81,13.15c-.89,1.73-3,2.41-4.69,1.48l-7.15-3.89c-1.69-.93-2.33-3.09-1.44-4.82l6.81-13.15c.89-1.73,3-2.41,4.69-1.48l7.15,3.89c1.69.93,2.33,3.09,1.44,4.82Z"/><rect class="cls-8" x="623.81" y="349.04" width="15.01" height="21.99" rx="1.44" ry="1.44"/><path class="cls-8" d="m638.69,252l5.29-13.87c.68-1.82,2.71-2.75,4.48-2.03l7.53,3c1.78.72,2.66,2.79,1.94,4.61l-5.29,13.87c-.68,1.82-2.71,2.75-4.48,2.03l-7.53-3c-1.78-.72-2.66-2.79-1.94-4.61Z"/><path class="cls-8" d="m630.02,289.93l2.92-14.59c.38-1.9,2.2-3.17,4.1-2.75l7.95,1.69c1.86.38,3.09,2.28,2.71,4.19l-2.92,14.59c-.38,1.9-2.2,3.17-4.1,2.75l-7.95-1.69c-1.86-.38-3.09-2.28-2.71-4.19Z"/><path class="cls-8" d="m625.58,329.29l1.48-14.8c.21-1.94,1.9-3.38,3.81-3.17l8.03.85c1.9.21,3.3,1.94,3.09,3.89l-1.48,14.8c-.21,1.94-1.9,3.38-3.81,3.17l-8.03-.85c-1.9-.21-3.3-1.94-3.09-3.89Z"/><path class="cls-8" d="m690.61,174.33l-7.27,12.9c-.97,1.69-3.09,2.28-4.74,1.31l-7.02-4.14c-1.65-.97-2.24-3.17-1.27-4.86l7.27-12.9c.97-1.69,3.09-2.28,4.74-1.31l7.02,4.14c1.65.97,2.24,3.17,1.27,4.86Z"/><path class="cls-8" d="m717.55,118.69l10.27-10.53c1.35-1.4,3.55-1.4,4.9,0l5.71,5.88c1.35,1.4,1.35,3.64,0,5.03l-10.27,10.53c-1.35,1.4-3.55,1.4-4.9,0l-5.71-5.88c-1.35-1.4-1.35-3.64,0-5.03Z"/><path class="cls-8" d="m692.26,145.37l9.56-11.2c1.27-1.48,3.47-1.61,4.86-.34l6.09,5.5c1.44,1.31,1.56,3.55.3,5.03l-9.56,11.2c-1.27,1.48-3.47,1.61-4.86.34l-6.09-5.5c-1.44-1.31-1.56-3.55-.3-5.03Z"/><path class="cls-8" d="m744.61,92.94l11.12-9.56c1.48-1.27,3.64-1.06,4.86.47l5.2,6.38c1.23,1.52,1.01,3.76-.42,4.99l-11.12,9.56c-1.48,1.27-3.64,1.06-4.86-.47l-5.2-6.38c-1.23-1.52-1.01-3.76.42-4.99Z"/><path class="cls-8" d="m774.2,69.89l11.88-8.5c1.56-1.14,3.72-.72,4.82.89l4.65,6.81c1.1,1.61.72,3.81-.85,4.95l-11.88,8.5c-1.56,1.14-3.72.72-4.82-.89l-4.65-6.81c-1.1-1.61-.72-3.81.85-4.95Z"/><path class="cls-8" d="m803.21,50.15l13.07-6.43c1.73-.85,3.81-.08,4.61,1.65l3.51,7.48c.85,1.78.08,3.89-1.61,4.74l-13.07,6.43c-1.73.85-3.81.08-4.61-1.65l-3.51-7.48c-.85-1.78-.08-3.89,1.61-4.74Z"/><path class="cls-8" d="m834.96,35.73l13.95-4.06c1.82-.55,3.76.55,4.27,2.45l2.2,7.99c.51,1.9-.55,3.85-2.37,4.4l-13.95,4.06c-1.82.55-3.76-.55-4.27-2.45l-2.2-7.99c-.51-1.9.55-3.85,2.37-4.4Z"/><path class="cls-8" d="m900.71,17.5l14.46-.8c1.9-.13,3.55,1.4,3.64,3.34l.42,8.29c.08,1.94-1.35,3.64-3.26,3.72l-14.46.8c-1.9.13-3.55-1.4-3.64-3.34l-.42-8.29c-.08-1.94,1.35-3.64,3.26-3.72Z"/><path class="cls-8" d="m867.52,24.19l13.95-4.06c1.82-.55,3.76.55,4.27,2.45l2.2,7.99c.51,1.9-.55,3.85-2.37,4.4l-13.95,4.06c-1.82.55-3.76-.55-4.27-2.45l-2.2-7.99c-.51-1.9.55-3.85,2.37-4.4Z"/><path class="cls-11" d="m731.37,511.61l-8.5-12.05c-1.14-1.61-3.3-1.94-4.82-.8l-6.55,4.86c-1.56,1.14-1.9,3.38-.76,4.95l8.5,12.05c1.14,1.61,3.3,1.94,4.82.8l6.55-4.86c1.56-1.14,1.9-3.38.76-4.95Z"/><path class="cls-19" d="m792.6,445.1l-2.66-3.81c-1.48-2.07-4.31-2.54-6.34-1.06l-1.94,1.44c-2.03,1.52-2.49,4.4-1.01,6.51l2.66,3.81c1.48,2.07,4.31,2.54,6.34,1.06l1.94-1.44c2.03-1.52,2.49-4.4,1.01-6.51Z"/><path class="cls-5" d="m804.65,463.54l-3-3.55c-1.65-1.94-4.48-2.16-6.38-.51l-1.82,1.61c-1.9,1.69-2.11,4.61-.47,6.55l3,3.55c1.65,1.94,4.48,2.16,6.38.51l1.82-1.61c1.9-1.69,2.11-4.61.47-6.55Z"/><path class="cls-7" d="m818.22,480.58l-3.34-3.17c-1.82-1.73-4.69-1.65-6.38.25l-1.61,1.82c-1.69,1.9-1.61,4.82.25,6.55l3.34,3.17c1.82,1.73,4.69,1.65,6.38-.25l1.61-1.82c1.69-1.9,1.61-4.82-.25-6.55Z"/><path class="cls-5" d="m836.65,495.29l-3.55-2.96c-1.94-1.61-4.78-1.31-6.38.68l-1.52,1.9c-1.56,1.99-1.27,4.9.68,6.55l3.55,2.96c1.94,1.61,4.78,1.31,6.38-.68l1.52-1.9c1.56-1.99,1.27-4.9-.68-6.55Z"/><path class="cls-16" d="m855.64,508.52l-3.89-2.49c-2.11-1.35-4.9-.68-6.26,1.48l-1.27,2.07c-1.31,2.2-.68,5.03,1.44,6.38l3.89,2.49c2.11,1.35,4.9.68,6.26-1.48l1.27-2.07c1.31-2.2.68-5.03-1.44-6.38Z"/><path class="cls-6" d="m874.07,520.15l-4.02-2.28c-2.2-1.23-4.95-.42-6.17,1.82l-1.14,2.16c-1.23,2.24-.42,5.07,1.78,6.3l4.02,2.28c2.2,1.23,4.95.42,6.17-1.82l1.14-2.16c1.23-2.24.42-5.07-1.78-6.3Z"/><path class="cls-5" d="m893.48,528.19l-4.31-1.56c-2.37-.85-4.95.38-5.79,2.83l-.8,2.33c-.85,2.41.38,5.07,2.75,5.96l4.31,1.56c2.37.85,4.95-.38,5.79-2.83l.8-2.33c.85-2.41-.38-5.07-2.75-5.96Z"/><path class="cls-6" d="m916.02,535.54l-4.52-.8c-2.45-.47-4.82,1.23-5.24,3.76l-.42,2.41c-.42,2.54,1.23,4.95,3.68,5.37l4.52.8c2.45.47,4.82-1.23,5.24-3.76l.42-2.41c.42-2.54-1.23-4.95-3.68-5.37Z"/><path class="cls-3" d="m940.07,539.64l-4.57-.42c-2.49-.21-4.69,1.69-4.9,4.23l-.21,2.45c-.21,2.58,1.65,4.82,4.14,5.03l4.57.42c2.49.21,4.69-1.69,4.9-4.23l.21-2.45c.21-2.58-1.65-4.82-4.14-5.03Z"/><path class="cls-1" d="m987.3,535.46l-4.52.76c-2.45.42-4.14,2.79-3.72,5.33l.38,2.41c.42,2.54,2.75,4.27,5.2,3.85l4.52-.76c2.45-.42,4.14-2.79,3.72-5.33l-.38-2.41c-.42-2.54-2.75-4.27-5.2-3.85h0Z"/><path class="cls-16" d="m1010.14,529.5l-4.48,1.01c-2.45.55-4.02,3-3.47,5.54l.51,2.41c.55,2.49,2.96,4.1,5.37,3.55l4.48-1.01c2.45-.55,4.02-3,3.47-5.54l-.51-2.41c-.55-2.49-2.96-4.1-5.37-3.55Z"/><path class="cls-3" d="m1033.22,520.07l-4.23,1.73c-2.33.93-3.47,3.64-2.54,6.05l.89,2.28c.93,2.37,3.55,3.55,5.88,2.58l4.23-1.73c2.33-.93,3.47-3.64,2.54-6.05l-.89-2.28c-.93-2.37-3.55-3.55-5.88-2.58Z"/><path class="cls-5" d="m1051.95,509.33l-3.72,2.75c-2.03,1.52-2.49,4.4-1.01,6.51l1.4,1.99c1.48,2.07,4.31,2.54,6.34,1.06l3.72-2.75c2.03-1.52,2.49-4.4,1.01-6.51l-1.4-1.99c-1.48-2.07-4.31-2.54-6.34-1.06Z"/><path class="cls-5" d="m1122.35,418.34l-1.52,4.44c-.85,2.41.38,5.07,2.75,5.96l2.24.85c2.37.85,4.95-.38,5.79-2.83l1.52-4.44c.85-2.41-.38-5.07-2.75-5.96l-2.24-.85c-2.37-.85-4.95.38-5.79,2.83Z"/><path class="cls-5" d="m1121.93,449.54l2.2-4.1c1.23-2.24.42-5.07-1.78-6.3l-2.07-1.18c-2.2-1.23-4.95-.42-6.17,1.82l-2.2,4.1c-1.23,2.24-.42,5.07,1.78,6.3l2.07,1.18c2.2,1.23,4.95.42,6.17-1.82Z"/><path class="cls-5" d="m1102.73,459.31l-2.54,3.89c-1.4,2.11-.85,5.03,1.23,6.47l1.99,1.35c2.07,1.44,4.9.89,6.3-1.27l2.54-3.89c1.4-2.11.85-5.03-1.23-6.47l-1.99-1.35c-2.07-1.44-4.9-.89-6.3,1.27Z"/><path class="cls-5" d="m1089.8,476.81l-2.88,3.64c-1.56,1.99-1.27,4.9.68,6.55l1.86,1.56c1.94,1.61,4.78,1.31,6.38-.68l2.88-3.64c1.56-1.99,1.27-4.9-.68-6.55l-1.86-1.56c-1.94-1.61-4.78-1.31-6.38.68Z"/><path class="cls-5" d="m1072.46,493.39l-3.47,3.04c-1.9,1.69-2.11,4.61-.47,6.55l1.56,1.86c1.65,1.94,4.48,2.16,6.38.51l3.47-3.04c1.9-1.69,2.11-4.61.47-6.55l-1.56-1.86c-1.65-1.94-4.48-2.16-6.38-.51Z"/><path class="cls-19" d="m1144.17,380.83l.59-4.65c.34-2.54-1.44-4.86-3.93-5.2l-2.37-.3c-2.49-.34-4.74,1.48-5.07,4.02l-.59,4.65c-.34,2.54,1.44,4.86,3.93,5.2l2.37.3c2.49.34,4.74-1.48,5.07-4.02Z"/><path class="cls-19" d="m1139.43,404.51l1.31-4.48c.72-2.45-.63-5.07-3.04-5.79l-2.28-.72c-2.41-.72-4.9.63-5.62,3.13l-1.31,4.48c-.72,2.45.63,5.07,3.04,5.79l2.28.72c2.41.72,4.9-.63,5.62-3.13Z"/><path class="cls-19" d="m774.46,403.67l-1.14-4.52c-.63-2.49-3.09-3.97-5.54-3.34l-2.33.59c-2.41.63-3.89,3.17-3.26,5.67l1.14,4.52c.63,2.49,3.09,3.97,5.54,3.34l2.33-.59c2.41-.63,3.89-3.17,3.26-5.67Z"/><path class="cls-19" d="m781.6,425.65l-1.69-4.36c-.93-2.37-3.55-3.55-5.88-2.62l-2.24.89c-2.33.93-3.47,3.64-2.54,6.05l1.69,4.36c.93,2.37,3.55,3.55,5.88,2.62l2.24-.89c2.33-.93,3.47-3.64,2.54-6.05Z"/><path class="cls-11" d="m788.87,588.39l12.05,8.29c1.56,1.1,3.72.68,4.82-.97l4.52-6.89c1.06-1.61.63-3.85-.93-4.95l-12.05-8.29c-1.56-1.1-3.72-.68-4.82.97l-4.52,6.89c-1.06,1.61-.63,3.85.93,4.95Z"/><path class="cls-11" d="m759.49,567.25l11.25,9.39c1.48,1.23,3.68,1.01,4.86-.51l5.12-6.47c1.18-1.52.97-3.76-.51-4.99l-11.25-9.39c-1.48-1.23-3.68-1.01-4.86.51l-5.12,6.47c-1.18,1.52-.97,3.76.51,4.99Z"/><path class="cls-11" d="m733.82,539.77l9.47,11.29c1.23,1.48,3.42,1.65,4.86.38l6.13-5.41c1.44-1.27,1.61-3.51.38-4.99l-9.47-11.29c-1.23-1.48-3.42-1.65-4.86-.38l-6.13,5.41c-1.44,1.27-1.61,3.51-.38,4.99Z"/><path class="cls-19" d="m773.74,469.96l-2.66-3.81c-1.48-2.07-4.31-2.54-6.34-1.06l-1.94,1.44c-2.03,1.52-2.49,4.4-1.01,6.51l2.66,3.81c1.48,2.07,4.31,2.54,6.34,1.06l1.94-1.44c2.03-1.52,2.49-4.4,1.01-6.51Z"/><path class="cls-19" d="m745.87,406.71l-1.14-4.52c-.63-2.49-3.09-3.97-5.54-3.34l-2.33.59c-2.41.63-3.89,3.17-3.26,5.67l1.14,4.52c.63,2.49,3.09,3.97,5.54,3.34l2.33-.59c2.41-.63,3.89-3.17,3.26-5.67Z"/><path class="cls-19" d="m752.47,427.55l-1.69-4.36c-.93-2.37-3.55-3.55-5.88-2.62l-2.24.89c-2.33.93-3.47,3.64-2.54,6.05l1.69,4.36c.93,2.37,3.55,3.55,5.88,2.62l2.24-.89c2.33-.93,3.47-3.64,2.54-6.05Z"/><path class="cls-19" d="m761.1,449.41l-2.11-4.19c-1.14-2.28-3.89-3.17-6.09-1.99l-2.11,1.14c-2.24,1.18-3.09,3.97-1.94,6.26l2.11,4.19c1.14,2.28,3.89,3.17,6.09,1.99l2.11-1.14c2.24-1.18,3.09-3.97,1.94-6.26Z"/><path class="cls-5" d="m788.11,486.71l-3.34-3.17c-1.82-1.73-4.69-1.65-6.38.25l-1.61,1.82c-1.69,1.9-1.61,4.82.25,6.55l3.34,3.17c1.82,1.73,4.69,1.65,6.38-.25l1.61-1.82c1.69-1.9,1.61-4.82-.25-6.55Z"/><path class="cls-7" d="m804.14,504.17l-3.55-2.96c-1.94-1.61-4.78-1.31-6.38.68l-1.52,1.9c-1.56,1.99-1.27,4.9.68,6.55l3.55,2.96c1.94,1.61,4.78,1.31,6.38-.68l1.52-1.9c1.56-1.99,1.27-4.9-.68-6.55Z"/><path class="cls-5" d="m821.01,518.25l-3.55-2.96c-1.94-1.61-4.78-1.31-6.38.68l-1.52,1.9c-1.56,1.99-1.27,4.9.68,6.55l3.55,2.96c1.94,1.61,4.78,1.31,6.38-.68l1.52-1.9c1.56-1.99,1.27-4.9-.68-6.55Z"/><path class="cls-16" d="m837.2,529.96l-3.89-2.49c-2.11-1.35-4.9-.68-6.26,1.48l-1.27,2.07c-1.31,2.2-.68,5.03,1.44,6.38l3.89,2.49c2.11,1.35,4.9.68,6.26-1.48l1.27-2.07c1.31-2.2.68-5.03-1.44-6.38Z"/><path class="cls-5" d="m896.36,559.35l-4.4-1.27c-2.41-.72-4.9.72-5.58,3.21l-.63,2.37c-.68,2.45.72,5.03,3.13,5.75l4.4,1.27c2.41.72,4.9-.72,5.58-3.21l.63-2.37c.68-2.45-.72-5.03-3.13-5.75Z"/><path class="cls-6" d="m918.85,563.36l-4.57-.42c-2.49-.21-4.69,1.69-4.9,4.23l-.21,2.45c-.21,2.58,1.65,4.82,4.14,5.03l4.57.42c2.49.21,4.69-1.69,4.9-4.23l.21-2.45c.21-2.58-1.65-4.82-4.14-5.03Z"/><rect class="cls-4" x="932.68" y="565.37" width="13.61" height="11.75" rx="1.9" ry="1.9" transform="translate(-4.36 7.23) rotate(-.44)"/><path class="cls-16" d="m856.15,541.29l-4.02-2.28c-2.2-1.23-4.95-.42-6.17,1.82l-1.14,2.16c-1.23,2.24-.42,5.07,1.78,6.3l4.02,2.28c2.2,1.23,4.95.42,6.17-1.82l1.14-2.16c1.23-2.24.42-5.07-1.78-6.3Z"/><path class="cls-6" d="m876.31,551.95l-4.19-1.9c-2.28-1.06-4.95,0-6,2.37l-.97,2.24c-1.01,2.33,0,5.12,2.28,6.13l4.19,1.9c2.28,1.06,4.95,0,6-2.37l.97-2.24c1.01-2.33,0-5.12-2.28-6.13Z"/><path class="cls-19" d="m1162.73,376.56l.21-4.69c.13-2.58,2.24-4.57,4.74-4.44l2.37.13c2.49.13,4.44,2.28,4.31,4.86l-.21,4.69c-.13,2.58-2.24,4.57-4.74,4.44l-2.37-.13c-2.49-.13-4.44-2.28-4.31-4.86Z"/><path class="cls-19" d="m1160.45,398.34l.76-4.61c.42-2.54,2.75-4.23,5.24-3.81l2.37.42c2.45.42,4.1,2.83,3.68,5.37l-.76,4.61c-.42,2.54-2.75,4.23-5.24,3.81l-2.37-.42c-2.45-.42-4.1-2.83-3.68-5.37Z"/><path class="cls-19" d="m1156.01,417.79l1.23-4.52c.68-2.49,3.17-3.93,5.58-3.26l2.28.63c2.41.68,3.85,3.26,3.17,5.71l-1.23,4.52c-.68,2.49-3.17,3.93-5.58,3.26l-2.28-.63c-2.41-.68-3.85-3.26-3.17-5.71Z"/><path class="cls-19" d="m1148.44,439.99l1.86-4.27c1.01-2.33,3.72-3.38,6-2.37l2.2,1.01c2.28,1.06,3.3,3.81,2.28,6.13l-1.86,4.27c-1.01,2.33-3.72,3.38-6,2.37l-2.2-1.01c-2.28-1.06-3.3-3.81-2.28-6.13Z"/><path class="cls-5" d="m1139.26,458.63l2.66-3.85c1.44-2.11,4.27-2.58,6.3-1.1l1.94,1.44c2.03,1.48,2.54,4.4,1.06,6.47l-2.66,3.85c-1.44,2.11-4.27,2.58-6.3,1.1l-1.94-1.44c-2.03-1.48-2.54-4.4-1.06-6.47Z"/><path class="cls-7" d="m1128.02,476.09l2.88-3.64c1.56-1.99,4.44-2.28,6.38-.68l1.86,1.56c1.94,1.61,2.24,4.57.68,6.55l-2.88,3.64c-1.56,1.99-4.44,2.28-6.38.68l-1.86-1.56c-1.94-1.61-2.24-4.57-.68-6.55Z"/><path class="cls-5" d="m1113.43,493.35l2.88-3.64c1.56-1.99,4.44-2.28,6.38-.68l1.86,1.56c1.94,1.61,2.24,4.57.68,6.55l-2.88,3.64c-1.56,1.99-4.44,2.28-6.38.68l-1.86-1.56c-1.94-1.61-2.24-4.57-.68-6.55Z"/><path class="cls-16" d="m1098.59,511.74l3.21-3.34c1.78-1.82,4.65-1.82,6.43,0l1.69,1.73c1.78,1.82,1.78,4.74,0,6.6l-3.21,3.34c-1.78,1.82-4.65,1.82-6.43,0l-1.69-1.73c-1.78-1.82-1.78-4.74,0-6.6Z"/><path class="cls-16" d="m1081.85,525.73l3.64-2.83c1.99-1.56,4.82-1.14,6.34.93l1.44,1.94c1.52,2.07,1.1,4.95-.89,6.51l-3.64,2.83c-1.99,1.56-4.82,1.14-6.34-.93l-1.44-1.94c-1.52-2.07-1.1-4.95.89-6.51h0Z"/><path class="cls-5" d="m1025.82,555.88l4.4-1.35c2.41-.76,4.9.63,5.62,3.13l.68,2.37c.72,2.45-.63,5.07-3.04,5.79l-4.4,1.35c-2.41.76-4.9-.63-5.62-3.13l-.68-2.37c-.72-2.45.63-5.07,3.04-5.79Z"/><path class="cls-6" d="m1004.94,560.4l4.52-.76c2.45-.42,4.78,1.31,5.2,3.85l.38,2.41c.42,2.54-1.27,4.9-3.72,5.33l-4.52.76c-2.45.42-4.78-1.31-5.2-3.85l-.38-2.41c-.42-2.54,1.27-4.9,3.72-5.33Z"/><path class="cls-3" d="m983.58,563.24l4.52-.76c2.45-.42,4.78,1.31,5.2,3.85l.38,2.41c.42,2.54-1.27,4.9-3.72,5.33l-4.52.76c-2.45.42-4.78-1.31-5.2-3.85l-.38-2.41c-.42-2.54,1.27-4.9,3.72-5.33Z"/><path class="cls-6" d="m1045.74,548.14l4.14-1.99c2.28-1.1,4.95-.08,6,2.24l1.01,2.24c1.06,2.33.08,5.07-2.2,6.17l-4.14,1.99c-2.28,1.1-4.95.08-6-2.24l-1.01-2.24c-1.06-2.33-.08-5.07,2.2-6.17Z"/><path class="cls-19" d="m1064.05,538.8l4.44-3.09c2.07-1.44,4.9-.85,6.3,1.27l1.35,2.03c1.4,2.11.85,5.03-1.23,6.47l-4.44,3.09c-2.07,1.44-4.9.85-6.3-1.27l-1.35-2.03c-1.4-2.11-.85-5.03,1.23-6.47Z"/><path class="cls-11" d="m691.54,475.16l6.64,13.23c.89,1.73,2.96,2.41,4.65,1.52l7.19-3.81c1.69-.89,2.37-3.04,1.48-4.78l-6.64-13.23c-.89-1.73-2.96-2.41-4.65-1.52l-7.19,3.81c-1.69.89-2.37,3.04-1.48,4.78Z"/><path class="cls-11" d="m679.11,438.38l4.4,14.21c.59,1.86,2.54,2.92,4.36,2.33l7.74-2.49c1.82-.59,2.83-2.58,2.24-4.44l-4.4-14.21c-.59-1.86-2.54-2.92-4.36-2.33l-7.74,2.49c-1.82.59-2.83,2.58-2.24,4.44Z"/><path class="cls-11" d="m670.74,399.65l2.96,14.59c.38,1.9,2.24,3.13,4.1,2.75l7.91-1.69c1.86-.42,3.09-2.28,2.66-4.19l-2.96-14.59c-.38-1.9-2.24-3.13-4.1-2.75l-7.91,1.69c-1.86.42-3.09,2.28-2.66,4.19Z"/><path class="cls-11" d="m1213.93,483.79l-7.02,13.02c-.93,1.73-3.04,2.33-4.69,1.4l-7.1-4.02c-1.69-.93-2.28-3.13-1.35-4.82l7.02-13.02c.93-1.73,3.04-2.33,4.69-1.4l7.1,4.02c1.69.93,2.28,3.13,1.35,4.82Z"/><path class="cls-11" d="m1147.81,570.68l-10.99,9.72c-1.44,1.27-3.64,1.1-4.86-.38l-5.29-6.3c-1.23-1.48-1.1-3.72.38-4.99l10.99-9.72c1.44-1.27,3.64-1.1,4.86.38l5.29,6.3c1.23,1.48,1.1,3.72-.38,4.99Z"/><path class="cls-11" d="m1173.39,543.32l-10.19,10.61c-1.35,1.4-3.55,1.4-4.9,0l-5.75-5.83c-1.35-1.4-1.35-3.64,0-5.03l10.19-10.61c1.35-1.4,3.55-1.4,4.9,0l5.75,5.83c1.35,1.4,1.35,3.64,0,5.03h0Z"/><path class="cls-11" d="m1196.6,515.16l-8.29,12.22c-1.1,1.61-3.26,1.99-4.82.89l-6.64-4.74c-1.56-1.14-1.94-3.34-.85-4.95l8.29-12.22c1.1-1.61,3.26-1.99,4.82-.89l6.64,4.74c1.56,1.14,1.94,3.34.85,4.95Z"/><path class="cls-11" d="m820.63,608.14l12.68,7.23c1.69.93,3.76.34,4.69-1.4l3.93-7.27c.93-1.73.34-3.89-1.35-4.82l-12.68-7.23c-1.69-.93-3.76-.34-4.69,1.4l-3.93,7.27c-.93,1.73-.34,3.89,1.35,4.82Z"/><rect class="cls-10" x="922.49" y="622.41" width="21.44" height="15.43" rx="1.44" ry="1.44" transform="translate(-4.81 7.19) rotate(-.44)"/><path class="cls-11" d="m890.44,634.31l14.38,1.9c1.9.25,3.64-1.14,3.89-3.09l1.01-8.24c.25-1.94-1.1-3.72-3-3.97l-14.38-1.9c-1.9-.25-3.64,1.14-3.89,3.09l-1.01,8.24c-.25,1.94,1.1,3.72,3,3.97Z"/><path class="cls-11" d="m855.09,624.59l13.95,4.06c1.82.55,3.76-.55,4.27-2.45l2.2-7.99c.51-1.9-.55-3.85-2.37-4.4l-13.95-4.06c-1.82-.55-3.76.55-4.27,2.45l-2.2,7.99c-.51,1.9.55,3.85,2.37,4.4Z"/><path class="cls-11" d="m1229.54,445.61l-4.86,14.04c-.63,1.86-2.62,2.79-4.44,2.16l-7.61-2.79c-1.82-.68-2.75-2.71-2.11-4.52l4.86-14.04c.63-1.86,2.62-2.79,4.44-2.16l7.61,2.79c1.82.68,2.75,2.71,2.11,4.52Z"/><path class="cls-11" d="m1236.13,404.09l-2.45,14.67c-.34,1.94-2.11,3.21-3.97,2.92l-7.99-1.4c-1.9-.34-3.13-2.16-2.83-4.1l2.45-14.67c.34-1.94,2.11-3.21,3.97-2.92l7.99,1.4c1.9.34,3.13,2.16,2.83,4.1Z"/><rect class="cls-11" x="1220.74" y="362.61" width="15.01" height="21.99" rx="1.44" ry="1.44"/><path class="cls-11" d="m1115.63,596.51l-12.68,7.23c-1.65.97-3.76.34-4.69-1.4l-3.93-7.27c-.93-1.73-.34-3.89,1.35-4.82l12.68-7.23c1.65-.97,3.76-.34,4.69,1.4l3.93,7.27c.93,1.73.34,3.89-1.35,4.82Z"/><path class="cls-11" d="m1010.22,634.52l-14.42,1.52c-1.9.21-3.59-1.23-3.81-3.17l-.85-8.29c-.21-1.94,1.18-3.68,3.09-3.89l14.42-1.52c1.9-.21,3.59,1.23,3.81,3.17l.85,8.29c.21,1.94-1.18,3.68-3.09,3.89Z"/><path class="cls-11" d="m1046.63,624.71l-14.16,3.17c-1.86.42-3.72-.8-4.1-2.71l-1.73-8.12c-.42-1.9.76-3.81,2.66-4.23l14.16-3.17c1.86-.42,3.72.8,4.1,2.71l1.73,8.12c.42,1.9-.76,3.81-2.66,4.23Z"/><path class="cls-11" d="m1083.16,613.51l-13.7,4.9c-1.82.63-3.76-.34-4.4-2.2l-2.66-7.86c-.63-1.86.34-3.89,2.11-4.52l13.7-4.9c1.82-.63,3.76.34,4.4,2.2l2.66,7.86c.63,1.86-.34,3.89-2.11,4.52Z"/><path class="cls-11" d="m687.65,516.64l-8.08-12.35c-1.06-1.61-3.21-2.07-4.82-.97l-6.72,4.65c-1.61,1.1-1.99,3.3-.93,4.95l8.08,12.35c1.06,1.61,3.21,2.07,4.82.97l6.72-4.65c1.61-1.1,1.99-3.3.93-4.95Z"/><path class="cls-11" d="m649.89,476.81l6.64,13.23c.89,1.73,2.96,2.41,4.65,1.52l7.19-3.81c1.69-.89,2.37-3.04,1.48-4.78l-6.64-13.23c-.89-1.73-2.96-2.41-4.65-1.52l-7.19,3.81c-1.69.89-2.37,3.04-1.48,4.78Z"/><path class="cls-11" d="m637.42,440.03l4.4,14.21c.59,1.86,2.54,2.92,4.36,2.33l7.74-2.49c1.82-.59,2.83-2.58,2.24-4.44l-4.4-14.21c-.59-1.86-2.54-2.92-4.36-2.33l-7.74,2.49c-1.82.59-2.83,2.58-2.24,4.44Z"/><path class="cls-11" d="m629.05,401.34l2.96,14.59c.38,1.9,2.24,3.13,4.1,2.75l7.91-1.69c1.86-.42,3.09-2.28,2.66-4.19l-2.96-14.59c-.38-1.9-2.24-3.13-4.1-2.75l-7.91,1.69c-1.86.42-3.09,2.28-2.66,4.19Z"/><path class="cls-11" d="m709.34,548.61l-8.5-12.05c-1.14-1.61-3.3-1.94-4.82-.8l-6.55,4.86c-1.56,1.14-1.9,3.38-.76,4.95l8.5,12.05c1.14,1.61,3.3,1.94,4.82.8l6.55-4.86c1.56-1.14,1.9-3.38.76-4.95h0Z"/><path class="cls-11" d="m741.69,601.08l11.25,9.39c1.48,1.23,3.68,1.01,4.86-.51l5.12-6.47c1.18-1.52.97-3.76-.51-4.99l-11.25-9.39c-1.48-1.23-3.68-1.01-4.86.51l-5.12,6.47c-1.18,1.52-.97,3.76.51,4.99Z"/><path class="cls-11" d="m713.87,577.23l10.66,10.11c1.4,1.31,3.59,1.23,4.9-.21l5.5-6.09c1.31-1.44,1.23-3.68-.17-5.03l-10.66-10.11c-1.4-1.31-3.59-1.23-4.9.21l-5.5,6.09c-1.31,1.44-1.23,3.68.17,5.03Z"/><path class="cls-11" d="m771.24,623.83l12.05,8.29c1.56,1.1,3.72.68,4.82-.97l4.52-6.89c1.06-1.61.63-3.85-.93-4.95l-12.05-8.29c-1.56-1.1-3.72-.68-4.82.97l-4.52,6.89c-1.06,1.61-.63,3.85.93,4.95Z"/><path class="cls-11" d="m803,643.61l12.68,7.23c1.69.93,3.76.34,4.69-1.4l3.93-7.27c.93-1.73.34-3.89-1.35-4.82l-12.68-7.23c-1.69-.93-3.76-.34-4.69,1.4l-3.93,7.27c-.93,1.73-.34,3.89,1.35,4.82Z"/><path class="cls-11" d="m836.15,660.15l13.66,4.99c1.82.68,3.76-.3,4.44-2.16l2.71-7.82c.63-1.86-.3-3.89-2.11-4.52l-13.66-4.99c-1.82-.68-3.76.3-4.44,2.16l-2.71,7.82c-.63,1.86.3,3.89,2.11,4.52Z"/><path class="cls-11" d="m871.49,672.28l14.29,2.58c1.86.34,3.68-.93,4.02-2.88l1.4-8.2c.34-1.94-.93-3.76-2.79-4.1l-14.29-2.58c-1.86-.34-3.68.93-4.02,2.88l-1.4,8.2c-.34,1.94.93,3.76,2.79,4.1Z"/><rect class="cls-11" x="939.06" y="665.94" width="21.44" height="15.43" rx="1.44" ry="1.44"/><path class="cls-11" d="m907.94,678.79l14.38,1.9c1.9.25,3.64-1.14,3.89-3.09l1.01-8.24c.25-1.94-1.1-3.72-3-3.97l-14.38-1.9c-1.9-.25-3.64,1.14-3.89,3.09l-1.01,8.24c-.25,1.94,1.1,3.72,3,3.97Z"/><path class="cls-11" d="m960.33,638.16l14.5-.72c1.9-.08,3.38-1.78,3.3-3.72l-.38-8.29c-.08-1.94-1.73-3.47-3.64-3.38l-14.5.72c-1.9.08-3.38,1.78-3.3,3.72l.38,8.29c.08,1.94,1.73,3.47,3.64,3.38Z"/><path class="cls-11" d="m981.51,679.81l14.5-.72c1.9-.08,3.38-1.78,3.3-3.72l-.38-8.29c-.08-1.94-1.73-3.47-3.64-3.38l-14.5.72c-1.9.08-3.38,1.78-3.3,3.72l.38,8.29c.08,1.94,1.73,3.47,3.64,3.38Z"/><path class="cls-11" d="m1029.67,674.78l-14.33,2.41c-1.9.3-3.68-1.01-3.97-2.92l-1.31-8.2c-.3-1.94.97-3.76,2.88-4.06l14.33-2.41c1.9-.3,3.68,1.01,3.97,2.92l1.31,8.2c.3,1.94-.97,3.76-2.88,4.06Z"/><path class="cls-11" d="m1067.34,664.63l-13.87,4.27c-1.82.55-3.76-.51-4.31-2.37l-2.33-7.95c-.55-1.86.51-3.85,2.33-4.44l13.87-4.27c1.82-.55,3.76.51,4.31,2.37l2.33,7.95c.55,1.86-.51,3.85-2.33,4.44Z"/><path class="cls-11" d="m1102.31,652.62l-13.49,5.5c-1.78.72-3.81-.17-4.48-1.99l-3-7.74c-.72-1.82.17-3.89,1.94-4.61l13.49-5.5c1.78-.72,3.81.17,4.48,1.99l3,7.74c.72,1.82-.17,3.89-1.94,4.61Z"/><path class="cls-11" d="m1135.67,634.61l-12.68,7.23c-1.65.97-3.76.34-4.69-1.4l-3.93-7.27c-.93-1.73-.34-3.89,1.35-4.82l12.68-7.23c1.65-.97,3.76-.34,4.69,1.4l3.93,7.27c.93,1.73.34,3.89-1.35,4.82Z"/><path class="cls-11" d="m1169.03,612.83l-11.75,8.75c-1.56,1.14-3.72.8-4.82-.8l-4.74-6.72c-1.14-1.61-.76-3.81.76-4.95l11.75-8.75c1.56-1.14,3.72-.8,4.82.8l4.74,6.72c1.14,1.61.76,3.81-.76,4.95Z"/><path class="cls-11" d="m1196.43,587.85l-10.99,9.72c-1.44,1.27-3.64,1.1-4.86-.38l-5.29-6.3c-1.23-1.48-1.1-3.72.38-4.99l10.99-9.72c1.44-1.27,3.64-1.1,4.86.38l5.29,6.3c1.23,1.48,1.1,3.72-.38,4.99Z"/><path class="cls-11" d="m1219.52,560.49l-9.77,11.04c-1.27,1.44-3.47,1.56-4.9.25l-6-5.58c-1.4-1.31-1.52-3.55-.21-5.03l9.77-11.04c1.27-1.44,3.47-1.56,4.9-.25l6,5.58c1.4,1.31,1.52,3.55.21,5.03Z"/><path class="cls-11" d="m1241.97,530l-8.41,12.13c-1.1,1.61-3.26,1.99-4.82.85l-6.6-4.82c-1.56-1.14-1.94-3.34-.8-4.95l8.41-12.13c1.1-1.61,3.26-1.99,4.82-.85l6.6,4.82c1.56,1.14,1.94,3.34.8,4.95Z"/><path class="cls-11" d="m1260.74,499.14l-7.27,12.9c-.97,1.69-3.09,2.28-4.74,1.31l-7.02-4.14c-1.65-.97-2.24-3.17-1.27-4.86l7.27-12.9c.97-1.69,3.09-2.28,4.74-1.31l7.02,4.14c1.65.97,2.24,3.17,1.27,4.86Z"/><path class="cls-11" d="m1274.69,465.74l-4.86,14.04c-.63,1.86-2.62,2.79-4.44,2.16l-7.61-2.79c-1.82-.68-2.75-2.71-2.11-4.52l4.86-14.04c.63-1.86,2.62-2.79,4.44-2.16l7.61,2.79c1.82.68,2.75,2.71,2.11,4.52Z"/><path class="cls-11" d="m1281.92,430.81l-3.34,14.5c-.42,1.9-2.28,3.09-4.14,2.62l-7.86-1.9c-1.86-.47-3-2.37-2.58-4.27l3.34-14.5c.42-1.9,2.28-3.09,4.14-2.62l7.86,1.9c1.86.47,3,2.37,2.58,4.27Z"/><path class="cls-11" d="m1287.76,396.31l-1.86,14.76c-.25,1.94-1.99,3.34-3.89,3.09l-8.03-1.06c-1.9-.25-3.21-2.03-3-3.97l1.86-14.76c.25-1.94,1.99-3.34,3.89-3.09l8.03,1.06c1.9.25,3.21,2.03,3,3.97Z"/><rect class="cls-11" x="1274.27" y="358.85" width="15.01" height="21.99" rx="1.44" ry="1.44"/><path class="cls-1" d="m963.54,539.22l-4.57.47c-2.49.25-4.31,2.54-4.06,5.07l.25,2.45c.25,2.54,2.49,4.4,4.95,4.14l4.57-.47c2.49-.25,4.31-2.54,4.06-5.07l-.25-2.45c-.25-2.54-2.49-4.4-4.95-4.14Z"/><path class="cls-1" d="m966.08,564.93l-4.57.47c-2.49.25-4.31,2.54-4.06,5.07l.25,2.45c.25,2.54,2.49,4.4,4.95,4.14l4.57-.47c2.49-.25,4.31-2.54,4.06-5.07l-.25-2.45c-.25-2.54-2.49-4.4-4.95-4.14Z"/><rect class="cls-8" x="1276.43" y="314.92" width="15.01" height="21.99" rx="1.44" ry="1.44"/><path class="cls-8" d="m1274.95,219.61l-5.58-13.74c-.72-1.82-2.75-2.66-4.52-1.9l-7.48,3.21c-1.78.76-2.58,2.83-1.86,4.65l5.58,13.74c.72,1.82,2.75,2.66,4.52,1.9l7.48-3.21c1.78-.76,2.58-2.83,1.86-4.65Z"/><path class="cls-8" d="m1286.36,257.79l-3.93-14.33c-.51-1.9-2.41-3-4.27-2.45l-7.78,2.24c-1.82.55-2.92,2.49-2.41,4.4l3.93,14.33c.51,1.9,2.41,3,4.27,2.45l7.78-2.24c1.82-.55,2.92-2.49,2.41-4.4Z"/><path class="cls-8" d="m1289.03,295.55l-1.48-14.8c-.21-1.94-1.9-3.38-3.81-3.17l-8.03.85c-1.9.21-3.3,1.94-3.09,3.89l1.48,14.8c.21,1.94,1.9,3.38,3.81,3.17l8.03-.85c1.9-.21,3.3-1.94,3.09-3.89Z"/><path class="cls-8" d="m1257.78,185.07l-6.26-13.45c-.85-1.78-2.88-2.54-4.61-1.65l-7.31,3.59c-1.73.85-2.45,2.96-1.61,4.74l6.26,13.45c.85,1.78,2.88,2.54,4.61,1.65l7.31-3.59c1.73-.85,2.45-2.96,1.61-4.74Z"/><path class="cls-8" d="m1196.94,98.14l-10.91-9.81c-1.44-1.31-3.64-1.14-4.86.34l-5.33,6.26c-1.27,1.48-1.1,3.72.3,5.03l10.91,9.81c1.44,1.31,3.64,1.14,4.86-.34l5.33-6.26c1.27-1.48,1.1-3.72-.3-5.03Z"/><path class="cls-8" d="m1218.92,125.7l-9.47-11.25c-1.27-1.48-3.42-1.65-4.86-.38l-6.13,5.41c-1.44,1.27-1.61,3.51-.34,4.99l9.47,11.25c1.27,1.48,3.42,1.65,4.86.38l6.13-5.41c1.44-1.27,1.61-3.51.34-4.99Z"/><path class="cls-8" d="m1240.06,154.62l-8.29-12.22c-1.1-1.61-3.26-1.99-4.82-.89l-6.64,4.74c-1.56,1.14-1.94,3.34-.85,4.95l8.29,12.22c1.1,1.61,3.26,1.99,4.82.89l6.64-4.74c1.56-1.14,1.94-3.34.85-4.95Z"/><path class="cls-8" d="m1172.75,75.26l-11.92-8.5c-1.56-1.1-3.72-.72-4.82.89l-4.61,6.81c-1.1,1.61-.72,3.81.85,4.95l11.92,8.5c1.56,1.1,3.72.72,4.82-.89l4.61-6.81c1.1-1.61.72-3.81-.85-4.95Z"/><path class="cls-8" d="m1108.36,39.53l-13.32-5.88c-1.78-.76-3.81.04-4.52,1.86l-3.17,7.65c-.76,1.82.04,3.89,1.82,4.65l13.32,5.88c1.78.76,3.81-.04,4.52-1.86l3.17-7.65c.76-1.82-.04-3.89-1.82-4.65Z"/><path class="cls-8" d="m1074.66,26.3l-13.95-4.06c-1.82-.55-3.76.55-4.27,2.45l-2.2,7.99c-.51,1.9.55,3.85,2.37,4.4l13.95,4.06c1.82.55,3.76-.55,4.27-2.45l2.2-7.99c.51-1.9-.55-3.85-2.37-4.4Z"/><path class="cls-8" d="m1143.03,56.19l-12.81-6.98c-1.69-.93-3.76-.25-4.69,1.48l-3.81,7.36c-.89,1.73-.25,3.89,1.44,4.82l12.81,6.98c1.69.93,3.76.25,4.69-1.48l3.81-7.36c.89-1.73.25-3.89-1.44-4.82Z"/><path class="cls-8" d="m1041.59,18.6l-14.25-2.79c-1.86-.38-3.68.89-4.06,2.83l-1.52,8.16c-.34,1.94.89,3.81,2.75,4.14l14.25,2.79c1.86.38,3.68-.89,4.06-2.83l1.52-8.16c.34-1.94-.89-3.81-2.75-4.14Z"/><path class="cls-8" d="m1006.63,14.71l-14.42-1.65c-1.9-.21-3.59,1.18-3.81,3.13l-.89,8.24c-.21,1.94,1.14,3.72,3.04,3.93l14.42,1.65c1.9.21,3.59-1.18,3.81-3.13l.89-8.24c.21-1.94-1.14-3.72-3.04-3.93Z"/><rect class="cls-8" x="955.72" y="13.66" width="21.44" height="15.43" rx="1.44" ry="1.44"/><path class="cls-15" d="m739.66,381.04l.68,4.65c.38,2.54-1.35,4.9-3.81,5.29l-2.37.38c-2.49.38-4.78-1.35-5.16-3.93l-.68-4.65c-.38-2.54,1.35-4.9,3.81-5.29l2.37-.38c2.49-.38,4.78,1.35,5.16,3.93Z"/></g><path class="cls-51" d="m699.62,784.41c-.08-7.1,56.32,14,235.76,3.97,0,0,7.7.42,2.75,10.66l-43.34,1.35c-6.72,1.23-54.67,10.82-55.56,109.89,0,3.34-.25,4.57-11.25,3.47-12.68-1.27-22.03,3.17-25.92-3.76-7.02-12.47-17.76-96.57-84.01-111.07-38.86-8.5-23.72-4.57-23.72-4.57,0,0,.08-6.09,5.33-9.89l-.04-.04Z"/><path class="cls-51" d="m920.12,852.19c-.04-7.1,46.76,14,195.81,3.97,0,0,6.38.42,2.28,10.66l-35.98,1.35c-5.58,1.23-45.41,10.82-46.13,109.89,0,3.34-.21,4.57-9.34,3.47-10.53-1.27-18.27,3.17-21.52-3.76-5.83-12.47-14.76-96.57-69.77-111.07-32.3-8.5-19.7-4.57-19.7-4.57,0,0,.08-6.09,4.4-9.89l-.04-.04Z"/><path class="cls-51" d="m818.56,895.62c-.08-7.1,56.32,14,235.76,3.97,0,0,7.7.42,2.75,10.66l-43.34,1.35c-6.72,1.23-54.67,10.82-55.56,109.89,0,3.34-.25,4.57-11.25,3.47-12.68-1.27-22.03,3.17-25.92-3.76-7.02-12.47-17.76-96.57-84.01-111.07-38.86-8.5-23.72-4.57-23.72-4.57,0,0,.08-6.09,5.33-9.89l-.04-.04Z"/><path class="cls-51" d="m701.31,895.62c-.08-7.1,56.32,14,235.76,3.97,0,0,7.7.42,2.75,10.66l-43.34,1.35c-6.72,1.23-54.67,10.82-55.56,109.89,0,3.34-.25,4.57-11.25,3.47-12.68-1.27-22.03,3.17-25.92-3.76-7.02-12.47-17.76-96.57-84.01-111.07-38.86-8.5-23.72-4.57-23.72-4.57,0,0,.08-6.09,5.33-9.89l-.04-.04Z"/><path class="cls-51" d="m928.32,1035.95c-5.24-4.82,48.71-31.54,164.14-169.3,0,0,5.58-5.33,9.64,5.29l-28.67,32.51c-3.72,5.71-29.47,47.31,42.2,115.68,2.41,2.28,3.17,3.34-5.16,10.57-9.64,8.37-12.73,18.22-20.46,16.32-13.87-3.42-82.62-53.06-138.52-14.67-32.81,22.54-19.58,14.21-19.58,14.21,0,0-4.4-4.23-3.59-10.66v.04Z"/><path class="cls-51" d="m601.86,893.46c-.08-7.1,12.85,12.39,207.86,2.37,0,0,8.37.42,2.96,10.66l-47.1,1.35c-7.27,1.23-59.41,10.82-60.38,109.89,0,3.34-.3,4.57-12.22,3.47-13.78-1.27-23.93,3.17-28.16-3.76-7.61-12.47,23.72-90.95-48.29-105.45-42.24-8.5,0,0,0,0,0,0-20.34-14.71-14.71-18.48l.04-.04Z"/><path class="cls-51" d="m741.77,875.78c-.08-7.1,56.32,14,235.76,3.97,0,0,7.7.42,2.75,10.66l-43.34,1.35c-6.72,1.23-54.67,10.82-55.56,109.89,0,3.34-.25,4.57-11.25,3.47-12.68-1.27-22.03,3.17-25.92-3.76-7.02-12.47-17.76-96.57-84.01-111.07-38.86-8.5-23.72-4.57-23.72-4.57,0,0,.08-6.09,5.33-9.89l-.04-.04Z"/><path class="cls-51" d="m718.81,872.95c2.83-6.51,45.75,35.64,213.82,99.45,0,0,6.85,3.51-1.82,10.87l-40.13-16.41c-6.6-1.61-54.37-12.35-95.43,77.84-1.4,3.04-2.11,4.06-11.67-1.4-11.08-6.34-21.39-6.05-22.16-14-1.31-14.25,23.04-95.47-31.63-135.64-32.05-23.59-19.83-13.83-19.83-13.83,0,0,2.58-5.54,8.88-6.89h-.04Z"/><path class="cls-51" d="m669.68,829.99c-.08-7.1,56.32,14,235.76,3.97,0,0,7.7.42,2.75,10.66l-43.34,1.35c-6.72,1.23-54.67,10.82-55.56,109.89,0,3.34-.25,4.57-11.25,3.47-12.68-1.27-22.03,3.17-25.92-3.76-7.02-12.47-17.76-96.57-84.01-111.07-38.86-8.5-23.72-4.57-23.72-4.57,0,0,.08-6.09,5.33-9.89l-.04-.04Z"/><path class="cls-51" d="m827.48,826.99c-.08-7.1,56.32,14,235.76,3.97,0,0,7.7.42,2.75,10.66l-43.34,1.35c-6.72,1.23-54.67,10.82-55.56,109.89,0,3.34-.25,4.57-11.25,3.47-12.68-1.27-22.03,3.17-25.92-3.76-7.02-12.47-17.76-96.57-84.01-111.07-38.86-8.5-23.72-4.57-23.72-4.57,0,0,.08-6.09,5.33-9.89l-.04-.04Z"/><path class="cls-51" d="m719.32,725.98c2.58-6.64,47.1,33.83,217.54,91.03,0,0,6.98,3.26-1.4,10.91l-40.76-14.8c-6.68-1.35-54.8-10.19-92.34,81.48-1.27,3.09-1.94,4.14-11.75-.93-11.33-5.92-21.61-5.2-22.66-13.11-1.9-14.16,19.28-96.28-36.87-134.29-32.94-22.32-20.34-13.02-20.34-13.02,0,0,2.37-5.62,8.58-7.23v-.04Z"/><path class="cls-51" d="m846.97,789.32c-1.18-7.02,57.8,5.07,233.52-32.6,0,0,7.7-.76,4.36,10.11l-42.62,8.03c-6.43,2.24-52.34,19.15-37.88,117.16.51,3.3.47,4.57-10.57,5.16-12.73.68-21.27,6.55-26.17.3-8.84-11.25-32.51-92.64-100.21-96.74-39.7-2.37-24.14-.85-24.14-.85,0,0-.85-6.05,3.72-10.61v.04Z"/><g><path class="cls-50" d="m1352.92,129.42c-275.55,1.31-551.14,44.65-826.7,45.96-5.79,0-10.53-4.69-10.53-10.49v-95.9c0-5.79,4.69-10.53,10.53-10.53,275.55-1.31,551.14-44.65,826.7-45.96,5.79,0,10.53,4.69,10.53,10.49v95.9c0,5.79-4.69,10.53-10.53,10.53Z"/><g><path class="cls-52" d="m537.59,82.24c3.3-.85,8.54-1.48,13.87-1.56,7.57-.08,12.47,1.31,16.15,4.61,3.04,2.54,4.9,6.47,4.9,11.75,0,6.47-3.76,12.22-9.94,14.93v.21c5.58,1.48,12.13,6.64,12.13,16.62,0,5.79-1.99,10.19-4.99,13.57-4.1,4.36-10.74,6.47-20.34,6.6-5.24.08-9.26-.3-11.8-.68,0,0,0-66.04,0-66.04Zm7.57,27.4c2.28,0,4.61-.04,6.89-.08,8.03-.13,12.73-4.99,12.73-11.46,0-7.86-5.24-10.87-12.9-10.74-3.51.04-5.5.38-6.72.68v21.61Zm0,32.18c1.48.3,3.68.34,6.38.3,7.86-.13,15.09-3.55,15.09-13.28,0-9.18-6.89-12.81-15.18-12.68-2.11,0-4.19.04-6.3.08v25.62-.04Z"/><path class="cls-52" d="m615.31,115.3c-7.61.25-15.22.51-22.83.72v24.23c8.5-.21,17-.51,25.45-.8v7.27c-11.04.38-22.03.72-33.06.97v-67.14c10.57-.25,21.18-.59,31.75-.93v7.27c-8.03.3-16.11.51-24.14.76v21.23c7.61-.21,15.22-.42,22.83-.72v7.19-.04Z"/><path class="cls-52" d="m627.78,80.08c4.61-.97,10.11-1.78,16.15-2.03,10.91-.47,18.65,2.07,23.8,7.31,5.24,5.24,8.29,12.85,8.29,23.72s-2.96,20.08-8.46,26.51c-5.5,6.55-14.59,10.36-26,10.82-5.41.21-9.94.08-13.78-.25v-66.09Zm7.57,59.07c1.9.34,4.69.3,7.7.17,16.24-.68,25.03-11.5,25.03-29.6.08-15.86-7.78-25.5-23.8-24.82-3.93.17-6.89.68-8.88,1.27v52.98h-.04Z"/><path class="cls-52" d="m684.82,133.19c3.38,2.2,8.37,3.93,13.61,3.64,7.78-.42,12.3-5.37,12.3-12.13,0-6.26-3.13-9.68-11.08-12.73-9.6-3.34-15.52-8.75-15.52-18.18,0-10.44,7.57-18.6,19.03-19.24,6-.34,10.36,1.01,12.98,2.54-.72,2.41-1.4,4.78-2.11,7.19-1.9-1.1-5.83-2.83-11.16-2.54-8.03.47-11.08,6.09-11.08,10.66,0,6.26,3.59,9.18,11.67,12.3,9.94,3.81,15.01,9.01,15.01,18.86,0,10.36-6.72,19.75-20.59,20.51-5.67.3-11.88-1.27-15.01-3.47.63-2.45,1.27-4.9,1.9-7.36l.04-.04Z"/><path class="cls-52" d="m740.04,80.8c-5.96.38-11.92.76-17.89,1.1v-7.36c14.5-.89,29.01-1.82,43.51-2.79v7.36c-6,.42-11.97.8-17.97,1.18v59.79c-2.58.17-5.12.34-7.7.51v-59.79h.04Z"/><path class="cls-52" d="m802.66,104.82c-7.61.55-15.22,1.1-22.83,1.61v24.23c8.5-.59,17-1.18,25.45-1.82v7.27c-11.04.8-22.03,1.61-33.06,2.33v-67.14c10.57-.72,21.18-1.48,31.75-2.24v7.27c-8.03.59-16.11,1.14-24.14,1.73v21.23c7.61-.55,15.22-1.06,22.83-1.61v7.19-.04Z"/><path class="cls-52" d="m864.69,102.11c-.42-9.34-.97-20.55-.89-28.92h-.25c-1.99,8.03-4.44,16.62-7.4,26.09-3.47,11.12-6.93,22.24-10.36,33.36-1.9.17-3.85.3-5.75.42-3.17-10.4-6.34-20.84-9.51-31.25-2.79-9.26-5.16-17.76-6.81-25.58h-.17c-.17,8.37-.59,19.66-1.14,29.77-.51,9.64-1.06,19.28-1.56,28.92-2.41.17-4.82.38-7.23.55,1.35-22.49,2.75-44.95,4.1-67.44,3.21-.25,6.47-.47,9.68-.72,3.34,10.57,6.68,21.14,10.02,31.71,2.45,8.08,4.44,15.31,5.92,22.16h.25c1.48-6.89,3.59-14.42,6.17-23.09,3.51-11.08,6.98-22.2,10.49-33.28,3.21-.25,6.47-.51,9.68-.76,1.23,22.28,2.45,44.57,3.68,66.85-2.45.21-4.95.38-7.4.59-.51-9.81-.97-19.58-1.48-29.39h-.04Z"/><path class="cls-52" d="m935.51,91.62c0,23.13-12.3,36.36-27.31,37.59-15.52,1.27-26.43-11.63-26.43-31.97s11.59-36.19,27.31-37.46c16.07-1.31,26.43,11.92,26.43,31.84Zm-45.62,4.78c0,14.33,6.81,26.64,18.77,25.71,12.05-.97,18.86-14.16,18.86-29.43,0-13.36-6.09-26.81-18.77-25.79-12.56,1.01-18.86,14.76-18.86,29.51Z"/><path class="cls-52" d="m945.36,58.86c3.85-1.23,9.34-2.16,14.59-2.58,8.12-.68,13.36.63,17,4.1,2.96,2.75,4.61,7.19,4.61,12.39,0,8.88-4.9,15.14-11.08,18.01v.3c4.52,1.44,7.23,6,8.63,12.85,1.9,9.22,3.3,15.56,4.52,18.05-2.62.21-5.24.42-7.86.63-.97-1.82-2.28-7.48-3.93-15.73-1.73-9.13-4.9-12.35-11.8-12.09-2.37.21-4.78.38-7.15.59v29.09c-2.54.21-5.07.42-7.57.63V58.86h.04Zm7.57,29.98c2.58-.21,5.16-.42,7.78-.63,8.12-.68,13.28-6.13,13.28-13.83,0-8.67-5.5-12.01-13.53-11.46-3.68.3-6.3.89-7.48,1.4v24.52h-.04Z"/><path class="cls-52" d="m991.28,110.86c3.38,2.11,8.37,3.72,13.61,3.3,7.78-.63,12.3-5.67,12.3-12.43,0-6.26-3.13-9.6-11.08-12.47-9.6-3.13-15.52-8.33-15.52-17.8,0-10.44,7.57-18.82,19.03-19.75,6-.47,10.4.76,12.98,2.28-.72,2.41-1.4,4.82-2.11,7.23-1.9-1.06-5.83-2.75-11.16-2.33-8.03.63-11.08,6.34-11.08,10.95,0,6.26,3.59,9.09,11.67,12.01,9.94,3.59,15.01,8.67,15.01,18.56s-6.72,19.83-20.59,20.93c-5.67.47-11.88-.93-15.01-3.09.63-2.49,1.27-4.95,1.9-7.44l.04.04Z"/><path class="cls-52" d="m1053.81,50.27c3.3-1.06,8.54-2.03,13.87-2.41,7.57-.55,12.47.59,16.15,3.72,3.04,2.37,4.86,6.22,4.86,11.5,0,6.47-3.76,12.43-9.94,15.48v.21c5.58,1.18,12.13,6,12.13,15.98,0,5.79-1.99,10.32-4.99,13.78-4.1,4.57-10.74,7.06-20.34,7.74-5.24.38-9.26.3-11.8.08V50.32l.04-.04Zm7.57,26.93c2.28-.17,4.61-.34,6.89-.51,8.03-.59,12.73-5.71,12.73-12.18,0-7.86-5.24-10.57-12.9-10.02-3.51.25-5.5.72-6.72,1.1v21.61Zm0,32.18c1.48.17,3.68.13,6.38-.08,7.86-.59,15.09-4.4,15.09-14.16,0-9.18-6.89-12.47-15.18-11.84-2.11.17-4.19.3-6.3.47v25.62Z"/><path class="cls-52" d="m1151.32,75.56c0,23.13-12.3,36.11-27.31,37.08-15.52,1.01-26.43-11.97-26.43-32.26,0-21.31,11.59-36.07,27.31-37.12,16.07-1.06,26.43,12.39,26.43,32.3Zm-45.62,4.06c0,14.33,6.81,26.72,18.77,25.92,12.05-.8,18.86-13.87,18.86-29.09,0-13.36-6.09-26.93-18.77-26.09-12.56.85-18.86,14.5-18.86,29.26Z"/><path class="cls-52" d="m1161.17,43c3.85-1.14,9.34-1.94,14.59-2.24,8.12-.47,13.36.97,17,4.57,2.96,2.83,4.61,7.31,4.61,12.52,0,8.88-4.9,15.01-11.08,17.72v.3c4.52,1.56,7.23,6.17,8.63,13.11,1.9,9.26,3.3,15.69,4.52,18.18-2.62.13-5.24.25-7.86.42-.97-1.86-2.28-7.57-3.93-15.81-1.73-9.18-4.86-12.47-11.75-12.39-2.37.13-4.78.25-7.15.42v29.09c-2.54.13-5.07.3-7.57.42V43Zm7.57,30.15c2.58-.17,5.16-.3,7.78-.42,8.12-.47,13.28-5.79,13.28-13.49,0-8.67-5.5-12.18-13.53-11.8-3.68.21-6.3.76-7.48,1.23v24.52l-.04-.04Z"/><path class="cls-52" d="m1208.1,40.46c4.61-1.01,10.11-1.9,16.15-2.16,10.91-.51,18.65,2.11,23.8,7.36,5.24,5.29,8.29,12.94,8.29,23.8s-2.96,20.04-8.46,26.43c-5.5,6.47-14.59,10.23-26,10.74-5.41.25-9.94.17-13.78-.13V40.46Zm7.57,59.03c1.9.3,4.69.3,7.7.13,16.24-.72,25.03-11.42,25.03-29.56.08-15.86-7.78-25.62-23.8-24.9-3.93.17-6.89.72-8.88,1.31v52.98l-.04.04Z"/><path class="cls-52" d="m1296.64,71.92c-7.61.17-15.22.38-22.87.63v24.23c8.5-.25,17-.51,25.45-.68v7.27c-11.04.25-22.03.59-33.06.93V37.17c10.57-.34,21.18-.68,31.75-.89v7.27c-8.03.21-16.11.42-24.14.68v21.23c7.61-.25,15.22-.47,22.87-.63v7.19-.08Z"/><path class="cls-52" d="m1309.11,35.98c2.54-.04,5.07-.08,7.57-.13v59.87c8.37-.13,16.74-.25,25.12-.34v7.27c-10.91.08-21.82.25-32.73.47V35.98h.04Z"/></g></g><g><path class="cls-49" d="m1347,182.36c-110.69,1.27-221.68,10.7-332.38,16.83-7.27.38-13.49-5.29-13.83-12.6-.47-9.3-.93-18.6-1.35-27.82-.34-7.23,5.24-14.16,12.47-15.48,110.23-18.9,222.23-28.46,332.5-17.25,7.23.76,13.4,7.48,13.74,14.84.47,9.39.89,18.73,1.35,28.08.34,7.31-5.24,13.28-12.52,13.4Z"/><g><path class="cls-68" d="m1035.08,170.61c.04,1.01.08,1.99.13,3-3.55.34-7.1.72-10.66,1.1-.04-.97-.08-1.94-.13-2.92,3.55-.38,7.1-.76,10.66-1.14v-.04Z"/><path class="cls-68" d="m1042.35,155.94c-2.96.38-5.88.76-8.84,1.14-.04-1.14-.13-2.24-.17-3.38,7.15-.97,14.33-1.9,21.52-2.83.04,1.18.13,2.33.17,3.51-2.96.38-5.92.72-8.88,1.1.47,9.34.89,18.73,1.35,28.12-1.27.08-2.54.21-3.81.3-.47-9.34-.89-18.65-1.31-27.95h-.04Z"/><path class="cls-68" d="m1056.77,166.93c-.13-2.71-.3-5.03-.51-7.15,1.1-.13,2.2-.25,3.34-.38.13,1.52.21,3,.34,4.52h.17c.8-3.21,3-5.41,5.54-5.71.42-.04.72,0,1.1,0,.04,1.35.13,2.66.17,4.02-.38-.04-.76-.08-1.31,0-2.66.3-4.48,2.75-4.82,5.96-.04.59-.13,1.27-.08,1.99.21,4.1.38,8.24.59,12.35-1.27.08-2.49.21-3.76.3-.25-5.29-.51-10.57-.76-15.86v-.04Z"/><path class="cls-68" d="m1088.82,173.74c.13,2.49.25,4.65.47,6.51-1.14.08-2.24.17-3.38.25-.13-1.31-.25-2.58-.38-3.89h-.08c-.89,1.99-3,4.69-6.72,4.99-3.3.25-7.31-1.48-7.7-9.72-.21-4.57-.42-9.13-.63-13.7,1.27-.13,2.54-.25,3.81-.42.21,4.36.38,8.71.59,13.02.21,4.48,1.56,7.4,4.99,7.1,2.54-.21,4.23-2.37,4.82-4.36.17-.68.3-1.48.25-2.24-.21-4.86-.42-9.77-.68-14.63,1.27-.13,2.54-.25,3.81-.38.25,5.79.51,11.59.8,17.38l.04.08Z"/><path class="cls-68" d="m1094.7,175.34c1.18.76,3.17,1.48,5.07,1.35,2.75-.21,3.97-1.9,3.89-3.93-.08-2.11-1.23-3.17-4.1-4.14-3.85-1.23-5.71-3.47-5.83-6.34-.17-3.89,2.41-7.31,6.89-7.78,2.11-.21,4.02.3,5.2,1.01-.25,1.1-.55,2.2-.8,3.3-.85-.51-2.41-1.18-4.36-1.01-2.24.21-3.42,1.82-3.34,3.64.08,1.99,1.4,2.79,4.14,3.72,3.68,1.27,5.67,3.26,5.79,6.85.17,4.27-2.54,7.53-7.48,7.86-2.28.17-4.44-.3-5.96-1.18.25-1.14.55-2.28.8-3.42l.08.08Z"/><path class="cls-68" d="m1111.78,173.99c1.14.76,3.17,1.52,5.07,1.4,2.75-.21,3.97-1.94,3.89-3.97-.08-2.11-1.23-3.21-4.1-4.19-3.85-1.27-5.71-3.51-5.83-6.47-.17-3.93,2.41-7.4,6.89-7.82,2.11-.21,4.02.34,5.2,1.06-.25,1.1-.55,2.24-.8,3.34-.85-.55-2.41-1.23-4.36-1.06-2.24.21-3.42,1.82-3.34,3.64.08,2.03,1.4,2.83,4.14,3.81,3.68,1.31,5.67,3.3,5.79,6.98.17,4.31-2.54,7.57-7.48,7.95-2.28.17-4.44-.34-5.96-1.23.25-1.14.55-2.28.8-3.47l.08.04Z"/><path class="cls-68" d="m1131.23,165.53c.34,6.05,3.72,8.33,7.53,8.08,2.71-.21,4.36-.89,5.75-1.69.25,1.06.51,2.11.8,3.21-1.31.8-3.55,1.78-6.89,2.03-6.43.42-10.49-4.27-10.82-11.71-.34-7.44,3.13-13.61,9.26-14.12,6.85-.55,8.96,6.47,9.13,11.04v2.11c-4.9.34-9.81.72-14.71,1.1l-.04-.04Zm11.04-4.06c-.08-2.88-1.31-7.27-5.58-6.93-3.85.3-5.37,4.65-5.54,7.78,3.72-.3,7.4-.59,11.12-.85Z"/><path class="cls-68" d="m1154.49,143.29c.08,2.37.21,4.78.3,7.19,1.82-.13,3.64-.25,5.45-.38.04,1.14.08,2.33.13,3.47-1.82.13-3.64.25-5.45.38.17,4.48.38,8.96.55,13.45.13,3.09.93,4.82,3.04,4.65.97-.08,1.73-.25,2.2-.47.08,1.14.21,2.28.3,3.38-.72.42-1.86.72-3.34.85-1.78.13-3.21-.47-4.19-1.65-1.14-1.27-1.61-3.47-1.73-6.38-.17-4.52-.38-9.05-.55-13.61-1.1.08-2.16.17-3.26.25-.04-1.14-.08-2.28-.13-3.42,1.1-.08,2.16-.17,3.26-.25-.08-1.99-.17-3.97-.25-5.96,1.23-.51,2.45-.97,3.68-1.48Z"/><path class="cls-68" d="m1166.28,149.68c1.73,4.82,3.47,9.64,5.2,14.5.55,1.61,1.14,3.55,1.56,5.03h.08c.34-1.52.68-3.47,1.14-5.33,1.18-4.99,2.37-9.98,3.55-14.97,1.35-.08,2.66-.17,4.02-.25-1.65,6.05-3.34,12.13-4.99,18.18-2.37,8.75-4.06,13.28-6.55,16.11-1.78,2.07-3.59,2.96-4.52,3.26-.38-1.27-.72-2.49-1.1-3.76.93-.42,2.16-1.23,3.21-2.41,1.01-1.06,2.24-2.88,3-5.29.17-.47.25-.85.25-1.1s-.13-.63-.3-1.18c-2.88-7.53-5.79-15.05-8.71-22.54,1.4-.08,2.75-.17,4.14-.3v.04Z"/><path class="cls-68" d="m1187.25,148.41c1.56,4.61,3.13,9.22,4.69,13.83.8,2.24,1.44,4.27,1.94,6.3h.13c.38-2.11.93-4.19,1.52-6.51,1.18-4.78,2.33-9.51,3.51-14.25,1.31-.08,2.66-.13,3.97-.17-2.41,8.46-4.82,16.91-7.23,25.41-1.23.08-2.41.13-3.64.21-3-8.2-5.96-16.41-8.96-24.61,1.35-.08,2.71-.17,4.06-.21h0Z"/><path class="cls-68" d="m1218.37,160.25c.34,6.13,3.72,8.46,7.53,8.33,2.71-.13,4.36-.76,5.75-1.52l.76,3.17c-1.31.76-3.59,1.69-6.89,1.82-6.43.3-10.49-4.57-10.78-12.09-.3-7.53,3.17-13.57,9.3-13.78,6.85-.21,8.92,6.85,9.09,11.37,0,.93,0,1.65-.04,2.11-4.9.17-9.81.34-14.71.55v.04Zm11.04-3.68c-.08-2.88-1.27-7.27-5.58-7.15-3.85.13-5.37,4.4-5.54,7.57,3.72-.17,7.4-.3,11.12-.42Z"/><path class="cls-68" d="m1255.03,134.71c.38,9.81.76,19.62,1.14,29.39.08,2.16.21,4.61.42,6.26-1.14,0-2.28.08-3.42.13-.13-1.4-.21-2.83-.34-4.23h-.08c-1.06,2.75-3.51,4.9-6.93,5.03-5.07.21-9.13-4.69-9.43-12.18-.38-8.2,3.76-13.36,8.88-13.45,3.21-.04,5.41,1.69,6.47,3.64h.08c-.17-4.86-.38-9.72-.55-14.59h3.81-.04Zm-2.96,21.35c0-.55-.08-1.31-.25-1.86-.68-2.79-2.83-5.12-5.71-5.03-3.93.08-6.13,4.19-5.88,9.64.21,4.99,2.41,9.01,6.51,8.88,2.54-.08,4.82-2.11,5.37-5.45.13-.59.13-1.23.08-1.9-.04-1.4-.13-2.83-.17-4.23l.04-.04Z"/><path class="cls-68" d="m1265.73,139.19c.08,1.48-.8,2.71-2.33,2.71-1.35,0-2.33-1.18-2.41-2.71-.04-1.56.89-2.75,2.28-2.75s2.37,1.18,2.45,2.75Zm-3,30.99c-.3-8.08-.63-16.11-.93-24.19h3.81c.3,8.03.63,16.07.93,24.1-1.27,0-2.54.08-3.81.13v-.04Z"/><path class="cls-68" d="m1276.22,139.11c.08,2.28.17,4.57.25,6.85h5.45c.04,1.1.08,2.2.13,3.3h-5.45c.17,4.27.34,8.58.51,12.85.13,2.96.93,4.61,3.04,4.57.97,0,1.73-.17,2.2-.34.08,1.06.21,2.16.3,3.21-.72.34-1.86.63-3.34.63-1.78,0-3.21-.55-4.19-1.73-1.14-1.27-1.61-3.38-1.73-6.22-.17-4.36-.34-8.71-.51-13.07h-3.26c-.04-1.1-.08-2.2-.13-3.34h3.26c-.08-1.9-.17-3.85-.21-5.75,1.23-.38,2.45-.76,3.68-1.1v.13Z"/><path class="cls-68" d="m1290.13,139.45c.08,1.44-.8,2.62-2.33,2.58-1.35,0-2.33-1.23-2.41-2.66-.04-1.52.89-2.66,2.28-2.62,1.44,0,2.37,1.23,2.45,2.71Zm-3.04,30.15c-.3-7.86-.63-15.73-.93-23.59h3.81c.3,7.82.63,15.69.93,23.47-1.27,0-2.54,0-3.81.08v.04Z"/><path class="cls-68" d="m1315.62,157.8c.34,8.37-4.86,12.05-9.89,12.09-5.67.08-10.19-4.48-10.49-11.88-.34-7.82,4.06-12.35,9.85-12.18,6,.17,10.23,5.07,10.53,11.97h0Zm-16.57.08c.21,5.07,3,8.92,6.72,8.88,3.64,0,6.17-3.72,5.96-8.88-.17-3.85-2.11-8.79-6.6-8.92-4.48-.08-6.26,4.48-6.05,8.92h-.04Z"/><path class="cls-68" d="m1320.19,152.89c-.08-2.33-.21-4.23-.42-6.09,1.14,0,2.24.08,3.38.13.13,1.23.25,2.49.38,3.72h.08c.93-2.11,3.26-4.06,6.72-3.93,2.88.13,7.44,2.2,7.78,9.64.21,4.36.38,8.67.59,13.02h-3.81c-.17-4.23-.38-8.41-.55-12.64-.17-3.55-1.52-6.55-5.12-6.68-2.49-.08-4.36,1.73-4.9,3.97-.17.51-.21,1.18-.17,1.9.21,4.48.38,8.96.59,13.45h-3.81c-.21-5.45-.47-10.95-.68-16.41l-.08-.08Z"/></g></g><g><polygon class="cls-49" points="1493.16 514.19 1424.75 455.21 1472.36 440.03 1493.16 514.19"/><ellipse class="cls-49" cx="1354.9" cy="345.53" rx="198.43" ry="117.21"/><g><path class="cls-48" d="m1242.64,281.89l-3.17,4.65v.08l5.03-.76v2.54l-5.03-.68v.08l3.21,4.48-2.11,1.35-1.99-5.24h-.08l-2.16,5.29-1.9-1.35,3.17-4.57v-.08l-4.95.72v-2.54l4.9.72v-.08l-3.13-4.57,2.03-1.31,2.07,5.2h.08l2.03-5.24,1.99,1.27v.04Z"/><path class="cls-48" d="m1247.55,302.87c.89.63,2.41,1.31,3.89,1.31,2.16,0,3.13-1.18,3.13-2.71s-.85-2.41-3-3.34c-2.92-1.14-4.27-2.96-4.27-5.12,0-2.92,2.11-5.29,5.58-5.29,1.65,0,3.09.51,3.97,1.1l-.72,2.41c-.63-.47-1.82-1.06-3.3-1.06-1.73,0-2.71,1.14-2.71,2.45,0,1.48.97,2.16,3.09,3.04,2.79,1.18,4.23,2.75,4.23,5.45,0,3.17-2.2,5.41-6.05,5.41-1.78,0-3.42-.47-4.57-1.23l.72-2.49v.04Z"/><path class="cls-48" d="m1261.16,293.01c0-1.86,0-3.38-.13-4.9h2.62l.17,3h.08c.8-1.73,2.66-3.38,5.33-3.38,2.24,0,5.71,1.48,5.71,7.7v10.78h-2.96v-10.4c0-2.92-.97-5.33-3.72-5.33-1.94,0-3.42,1.52-3.93,3.38-.13.42-.21.97-.21,1.52v10.87h-2.96v-13.23Z"/><path class="cls-48" d="m1282.98,283.03c0,1.14-.72,2.03-1.86,2.03-1.06,0-1.78-.89-1.78-2.03s.76-2.07,1.82-2.07,1.82.89,1.82,2.07h0Zm-3.26,23.17v-18.1h2.96v18.1h-2.96Z"/><path class="cls-48" d="m1287.84,306.21v-15.56h-2.28v-2.49h2.28v-.85c0-2.54.51-4.86,1.86-6.3,1.1-1.18,2.58-1.69,3.93-1.69,1.06,0,1.94.25,2.49.51l-.38,2.54c-.42-.21-1.06-.42-1.86-.42-2.49,0-3.13,2.45-3.13,5.24v.97h3.89v2.49h-3.89v15.56s-2.92,0-2.92,0Z"/><path class="cls-48" d="m1305.86,281.89l-3.17,4.65v.08l5.03-.76v2.54l-5.03-.68v.08l3.21,4.48-2.11,1.35-1.99-5.24h-.08l-2.16,5.29-1.9-1.35,3.17-4.57v-.08l-4.95.72v-2.54l4.9.72v-.08l-3.13-4.57,2.03-1.31,2.07,5.2h.08l2.03-5.24,1.99,1.27v.04Z"/><path class="cls-48" d="m1318.24,293.01c0-1.86,0-3.38-.13-4.9h2.58l.13,2.92h.08c.89-1.73,2.41-3.34,5.07-3.34,2.2,0,3.89,1.48,4.57,3.64h.08c.51-1.01,1.14-1.78,1.82-2.37.97-.8,2.03-1.27,3.59-1.27,2.16,0,5.33,1.56,5.33,7.82v10.66h-2.88v-10.23c0-3.47-1.14-5.58-3.51-5.58-1.65,0-2.96,1.4-3.47,3-.13.47-.25,1.06-.25,1.65v11.16h-2.88v-10.82c0-2.88-1.14-4.99-3.38-4.99-1.86,0-3.17,1.65-3.64,3.3-.17.47-.21,1.06-.21,1.61v10.91h-2.88v-13.19l-.04.04Z"/><path class="cls-48" d="m1346.07,293.01c0-1.86,0-3.38-.13-4.9h2.58l.13,2.92h.08c.89-1.73,2.41-3.34,5.07-3.34,2.2,0,3.89,1.48,4.57,3.64h.08c.51-1.01,1.14-1.78,1.82-2.37.97-.8,2.03-1.27,3.59-1.27,2.16,0,5.33,1.56,5.33,7.82v10.66h-2.88v-10.23c0-3.47-1.14-5.58-3.51-5.58-1.69,0-2.96,1.4-3.47,3-.13.47-.21,1.06-.21,1.65v11.16h-2.88v-10.82c0-2.88-1.14-4.99-3.38-4.99-1.82,0-3.17,1.65-3.64,3.3-.17.47-.25,1.06-.25,1.61v10.91h-2.88v-13.19l-.04.04Z"/><path class="cls-48" d="m1373.93,293.01c0-1.86,0-3.38-.13-4.9h2.58l.13,2.92h.08c.89-1.73,2.41-3.34,5.07-3.34,2.2,0,3.89,1.48,4.57,3.64h.08c.51-1.01,1.14-1.78,1.82-2.37.97-.8,2.03-1.27,3.59-1.27,2.16,0,5.33,1.56,5.33,7.82v10.66h-2.88v-10.23c0-3.47-1.14-5.58-3.51-5.58-1.69,0-2.96,1.4-3.47,3-.13.47-.21,1.06-.21,1.65v11.16h-2.88v-10.82c0-2.88-1.14-4.99-3.38-4.99-1.82,0-3.17,1.65-3.64,3.3-.17.47-.25,1.06-.25,1.61v10.91h-2.88v-13.19l-.04.04Z"/><path class="cls-48" d="m1401.12,304.26c0-1.4.85-2.37,1.99-2.37s1.99.97,1.99,2.37-.76,2.37-1.99,2.37-1.99-1.01-1.99-2.37Z"/><path class="cls-48" d="m1408.01,304.26c0-1.4.85-2.37,1.99-2.37s1.99.97,1.99,2.37-.76,2.37-1.99,2.37-1.99-1.01-1.99-2.37Z"/><path class="cls-48" d="m1414.94,304.26c0-1.4.85-2.37,1.99-2.37s1.99.97,1.99,2.37-.76,2.37-1.99,2.37-1.99-1.01-1.99-2.37Z"/><path class="cls-48" d="m1421.83,304.26c0-1.4.85-2.37,1.99-2.37s1.99.97,1.99,2.37-.76,2.37-1.99,2.37-1.99-1.01-1.99-2.37Z"/><path class="cls-48" d="m1234.36,326.67h3.3v12.6h.08c.51-1.06,1.35-1.94,2.37-2.58.97-.63,2.11-1.06,3.34-1.06,2.41,0,6.3,1.65,6.3,8.63v12.01h-3.3v-11.59c0-3.26-1.1-6-4.19-6-2.11,0-3.81,1.65-4.4,3.68-.17.51-.21,1.06-.21,1.73v12.18h-3.3v-29.64.04Z"/><path class="cls-48" d="m1256.89,346.88c.08,4.95,2.92,7.02,6.17,7.02,2.37,0,3.76-.47,4.99-1.06l.55,2.62c-1.14.59-3.13,1.27-6,1.27-5.54,0-8.88-4.1-8.88-10.19s3.21-10.91,8.46-10.91c5.88,0,7.44,5.79,7.44,9.51,0,.76-.08,1.35-.13,1.69h-12.68l.08.04Zm9.64-2.62c0-2.33-.85-5.96-4.57-5.96-3.3,0-4.78,3.42-5.03,5.96h9.6Z"/><path class="cls-48" d="m1273.76,342.4c0-2.37,0-4.44-.17-6.3h2.88l.13,3.97h.17c.8-2.71,2.79-4.44,4.99-4.44.38,0,.63,0,.93.13v3.47c-.34-.08-.68-.13-1.1-.13-2.33,0-3.93,1.94-4.4,4.74-.08.51-.17,1.1-.17,1.69v10.78h-3.26v-13.91h0Z"/><path class="cls-48" d="m1309.49,326.67v24.44c0,1.78,0,3.85.17,5.2h-2.96l-.17-3.51h-.08c-1.01,2.24-3.21,3.97-6.17,3.97-4.36,0-7.74-4.14-7.74-10.27,0-6.72,3.68-10.87,8.08-10.87,2.75,0,4.61,1.48,5.45,3.09h.08v-12.05h3.34Zm-3.3,17.67c0-.47,0-1.1-.17-1.56-.51-2.33-2.28-4.27-4.74-4.27-3.38,0-5.41,3.34-5.41,7.82,0,4.1,1.78,7.48,5.33,7.48,2.2,0,4.23-1.65,4.82-4.4.13-.51.17-1.01.17-1.61v-3.51.04Z"/><path class="cls-48" d="m1330.04,350.81c0,2.07,0,3.93.17,5.5h-2.92l-.17-3.3h-.08c-.85,1.61-2.75,3.76-5.96,3.76-2.83,0-6.22-1.73-6.22-8.84v-11.8h3.3v11.2c0,3.85,1.06,6.43,4.02,6.43,2.2,0,3.72-1.69,4.31-3.34.17-.55.3-1.23.3-1.86v-12.39h3.3v14.71l-.04-.08Z"/><path class="cls-48" d="m1335.83,356.31v-17.42h-2.54v-2.79h2.54v-.97c0-2.83.55-5.41,2.07-7.06,1.23-1.35,2.88-1.86,4.4-1.86,1.14,0,2.16.3,2.79.59l-.47,2.83c-.47-.25-1.14-.47-2.07-.47-2.79,0-3.51,2.75-3.51,5.83v1.1h4.36v2.79h-4.36v17.42h-3.26.04Z"/><path class="cls-48" d="m1350.76,330.31v5.79h4.69v2.79h-4.69v10.91c0,2.49.63,3.93,2.45,3.93.85,0,1.48-.13,1.9-.25l.17,2.75c-.63.3-1.65.51-2.92.51-1.52,0-2.75-.55-3.55-1.56-.93-1.1-1.27-2.88-1.27-5.24v-11.04h-2.79v-2.79h2.79v-4.86l3.21-.97v.04Z"/><path class="cls-48" d="m1360.74,346.88c.08,4.95,2.92,7.02,6.17,7.02,2.37,0,3.76-.47,4.99-1.06l.55,2.62c-1.14.59-3.13,1.27-6,1.27-5.54,0-8.88-4.1-8.88-10.19s3.21-10.91,8.46-10.91c5.88,0,7.44,5.79,7.44,9.51,0,.76-.08,1.35-.13,1.69h-12.68l.08.04Zm9.64-2.62c0-2.33-.85-5.96-4.57-5.96-3.3,0-4.78,3.42-5.03,5.96h9.6Z"/><path class="cls-48" d="m1377.61,342.4c0-2.37,0-4.44-.17-6.3h2.88l.13,3.97h.17c.8-2.71,2.79-4.44,4.99-4.44.38,0,.63,0,.93.13v3.47c-.34-.08-.68-.13-1.1-.13-2.33,0-3.93,1.94-4.4,4.74-.08.51-.17,1.1-.17,1.69v10.78h-3.26v-13.91h0Z"/><path class="cls-48" d="m1407.71,356.31l-.25-2.54h-.13c-1.01,1.61-2.96,3-5.54,3-3.64,0-5.54-2.88-5.54-5.79,0-4.9,3.89-7.57,10.87-7.53v-.42c0-1.65-.42-4.69-4.1-4.69-1.69,0-3.42.59-4.69,1.52l-.76-2.41c1.48-1.1,3.64-1.78,5.92-1.78,5.54,0,6.85,4.23,6.85,8.24v7.57c0,1.73.08,3.47.3,4.86h-3l.08-.04Zm-.51-10.32c-3.59-.08-7.65.63-7.65,4.57,0,2.37,1.4,3.51,3.09,3.51,2.37,0,3.85-1.69,4.36-3.38.13-.38.17-.8.17-1.18v-3.51h.04Z"/><path class="cls-48" d="m1416.04,356.31v-17.42h-2.54v-2.79h2.54v-.97c0-2.83.55-5.41,2.07-7.06,1.23-1.35,2.88-1.86,4.4-1.86,1.14,0,2.16.3,2.79.59l-.47,2.83c-.51-.25-1.14-.47-2.07-.47-2.79,0-3.51,2.75-3.51,5.83v1.1h4.36v2.79h-4.36v17.42h-3.26.04Z"/><path class="cls-48" d="m1249.92,386.2c-.08,1.48-.17,3.09-.17,5.54v11.71c0,4.65-.8,7.48-2.58,9.22-1.78,1.82-4.27,2.41-6.55,2.41s-4.57-.59-6-1.69l.8-2.79c1.18.85,3.04,1.61,5.29,1.61,3.34,0,5.83-1.94,5.83-7.06v-2.24h-.08c-1.01,1.86-2.96,3.38-5.75,3.38-4.48,0-7.7-4.27-7.7-9.85,0-6.85,3.97-10.74,8.12-10.74,3.13,0,4.86,1.82,5.62,3.51h.08l.17-3.04h2.88l.04.04Zm-3.38,7.99c0-.63,0-1.18-.17-1.69-.59-2.11-2.2-3.89-4.57-3.89-3.13,0-5.37,2.96-5.37,7.65,0,3.97,1.78,7.27,5.33,7.27,2.03,0,3.85-1.44,4.57-3.76.17-.63.25-1.35.25-1.94v-3.64h-.04Z"/><path class="cls-48" d="m1265.22,406.41l-.25-2.54h-.13c-1.01,1.61-2.96,3-5.54,3-3.64,0-5.54-2.88-5.54-5.79,0-4.9,3.89-7.57,10.87-7.53v-.42c0-1.65-.42-4.69-4.1-4.69-1.69,0-3.42.59-4.69,1.52l-.76-2.41c1.48-1.1,3.64-1.78,5.92-1.78,5.54,0,6.85,4.23,6.85,8.24v7.57c0,1.73.08,3.47.3,4.86h-3l.08-.04Zm-.51-10.32c-3.59-.08-7.65.63-7.65,4.57,0,2.37,1.4,3.51,3.09,3.51,2.37,0,3.85-1.69,4.36-3.38.13-.38.17-.8.17-1.18v-3.51h.04Z"/><path class="cls-48" d="m1273.21,391.7c0-2.07,0-3.81-.17-5.45h2.88l.17,3.26h.13c1.01-1.9,2.66-3.72,5.67-3.72,2.45,0,4.31,1.65,5.12,4.06h.08c.55-1.14,1.27-1.99,2.03-2.62,1.1-.93,2.28-1.44,3.97-1.44,2.37,0,5.92,1.73,5.92,8.75v11.88h-3.21v-11.46c0-3.89-1.27-6.22-3.93-6.22-1.86,0-3.34,1.56-3.89,3.34-.17.51-.25,1.18-.25,1.82v12.47h-3.21v-12.09c0-3.21-1.27-5.54-3.76-5.54-2.03,0-3.55,1.82-4.06,3.68-.17.55-.25,1.18-.25,1.78v12.18h-3.21v-14.71.04Z"/><path class="cls-48" d="m1304.33,376.77h3.3v29.64h-3.3v-29.64Z"/><path class="cls-48" d="m1314.99,396.98c.08,4.95,2.92,7.02,6.17,7.02,2.37,0,3.76-.47,4.99-1.06l.55,2.62c-1.14.59-3.13,1.27-6,1.27-5.54,0-8.88-4.1-8.88-10.19s3.21-10.91,8.46-10.91c5.88,0,7.44,5.79,7.44,9.51,0,.76-.08,1.35-.13,1.69h-12.68l.08.04Zm9.64-2.62c0-2.33-.85-5.96-4.57-5.96-3.3,0-4.78,3.42-5.03,5.96h9.6Z"/><path class="cls-48" d="m1355.28,386.2c-.08,1.48-.17,3.09-.17,5.54v11.71c0,4.65-.8,7.48-2.58,9.22-1.73,1.82-4.27,2.41-6.55,2.41s-4.57-.59-6-1.69l.8-2.79c1.18.85,3.04,1.61,5.29,1.61,3.34,0,5.83-1.94,5.83-7.06v-2.24h-.08c-1.01,1.86-2.96,3.38-5.75,3.38-4.48,0-7.7-4.27-7.7-9.85,0-6.85,3.97-10.74,8.12-10.74,3.13,0,4.86,1.82,5.62,3.51h.08l.17-3.04h2.88l.04.04Zm-3.38,7.99c0-.63,0-1.18-.17-1.69-.59-2.11-2.2-3.89-4.57-3.89-3.13,0-5.37,2.96-5.37,7.65,0,3.97,1.78,7.27,5.33,7.27,2.03,0,3.85-1.44,4.57-3.76.17-.63.25-1.35.25-1.94v-3.64h-.04Z"/><path class="cls-48" d="m1368.22,393.77v2.71h-9.22v-2.71h9.22Z"/><path class="cls-48" d="m1371.6,402.65c.97.72,2.66,1.48,4.31,1.48,2.37,0,3.51-1.35,3.51-3,0-1.73-.93-2.71-3.34-3.72-3.26-1.31-4.78-3.3-4.78-5.71,0-3.26,2.37-5.92,6.22-5.92,1.82,0,3.42.59,4.44,1.27l-.8,2.66c-.72-.51-2.03-1.18-3.68-1.18-1.94,0-3,1.27-3,2.75,0,1.65,1.06,2.41,3.42,3.42,3.13,1.35,4.74,3.09,4.74,6.09,0,3.55-2.45,6.05-6.77,6.05-1.99,0-3.81-.55-5.07-1.4l.8-2.79h0Z"/><path class="cls-48" d="m1390.8,380.41v5.79h4.69v2.79h-4.69v10.91c0,2.49.63,3.93,2.45,3.93.85,0,1.48-.13,1.9-.25l.17,2.75c-.63.3-1.65.51-2.92.51-1.52,0-2.75-.55-3.55-1.56-.93-1.1-1.27-2.88-1.27-5.24v-11.04h-2.79v-2.79h2.79v-4.86l3.21-.97v.04Z"/><path class="cls-48" d="m1399.17,392.5c0-2.37,0-4.44-.17-6.3h2.88l.13,3.97h.17c.8-2.71,2.79-4.44,4.99-4.44.38,0,.63,0,.93.13v3.47c-.34-.08-.68-.13-1.1-.13-2.33,0-3.97,1.94-4.4,4.74-.08.51-.17,1.1-.17,1.69v10.78h-3.26v-13.91h0Z"/><path class="cls-48" d="m1412.83,396.98c.08,4.95,2.92,7.02,6.17,7.02,2.37,0,3.76-.47,4.99-1.06l.55,2.62c-1.14.59-3.13,1.27-6,1.27-5.54,0-8.88-4.1-8.88-10.19s3.21-10.91,8.46-10.91c5.88,0,7.44,5.79,7.44,9.51,0,.76-.08,1.35-.13,1.69h-12.68l.08.04Zm9.64-2.62c0-2.33-.85-5.96-4.57-5.96-3.3,0-4.78,3.42-5.03,5.96h9.6Z"/><path class="cls-48" d="m1429.7,391.7c0-2.07,0-3.81-.17-5.45h2.92l.17,3.34h.08c.89-1.9,3-3.81,5.96-3.81,2.49,0,6.38,1.65,6.38,8.58v12.05h-3.3v-11.63c0-3.26-1.1-5.96-4.19-5.96-2.16,0-3.85,1.69-4.4,3.76-.17.47-.21,1.1-.21,1.69v12.13h-3.3v-14.71h.04Z"/><path class="cls-48" d="m1465.98,386.2c-.08,1.48-.17,3.09-.17,5.54v11.71c0,4.65-.8,7.48-2.58,9.22-1.73,1.82-4.27,2.41-6.55,2.41s-4.57-.59-6-1.69l.8-2.79c1.18.85,3.04,1.61,5.29,1.61,3.34,0,5.83-1.94,5.83-7.06v-2.24h-.08c-1.01,1.86-2.96,3.38-5.75,3.38-4.48,0-7.7-4.27-7.7-9.85,0-6.85,3.97-10.74,8.12-10.74,3.13,0,4.86,1.82,5.62,3.51h.08l.17-3.04h2.88l.04.04Zm-3.38,7.99c0-.63,0-1.18-.17-1.69-.59-2.11-2.2-3.89-4.57-3.89-3.13,0-5.37,2.96-5.37,7.65,0,3.97,1.78,7.27,5.33,7.27,2.03,0,3.85-1.44,4.57-3.76.17-.63.25-1.35.25-1.94v-3.64h-.04Z"/><path class="cls-48" d="m1473.12,396.98c.08,4.95,2.92,7.02,6.17,7.02,2.37,0,3.76-.47,4.99-1.06l.55,2.62c-1.14.59-3.13,1.27-6,1.27-5.54,0-8.88-4.1-8.88-10.19s3.21-10.91,8.46-10.91c5.88,0,7.44,5.79,7.44,9.51,0,.76-.08,1.35-.13,1.69h-12.68l.08.04Zm9.64-2.62c0-2.33-.85-5.96-4.57-5.96-3.34,0-4.78,3.42-5.03,5.96h9.6Z"/><path class="cls-48" d="m1489.32,404.3c0-1.52.93-2.58,2.2-2.58,1.35,0,2.2,1.1,2.2,2.58s-.85,2.58-2.2,2.58-2.2-1.14-2.2-2.58Zm.93-5.96l-.51-20.04h3.59l-.51,20.04h-2.58Z"/></g></g><g><circle class="cls-36" cx="1646.73" cy="632.75" r="169.04"/><path class="cls-36" d="m1560.82,782.89h0c-6.98-14.84-108.5,73.74-84.27,123.51,17.42,35.77,79.36-56.95,79.36-56.95,5.88-17.08-33.95,52.22-15.22,92.89,9.85,21.44,13.87,25.62,25.03,29.22,0,0,17.76.04,17.72.08-.85.85-31.67,72.81,3.51,77.88,36.11,5.2,39.28-68.54,39.2-70.36l2.58,1.31c1.14.42,17.08,6.81,27.15-2.62,0,0,.08-.04.08,0,.13,2.33,4.23,72.85,37.08,69.05,36.74-4.23,7.44-74.97,7.44-74.97h0c1.14.47,21.56,4.9,32.22-6.47,18.6-19.83,5.83-109.72-2.16-118.73,0,0,59.87,78.14,81.98,63.93,38.05-24.48-67.74-137.29-77.42-131.37h0c-23.3,20.17-113.15,34.59-174.2,3.55l-.08.04Z"/><path class="cls-42" d="m1489.19,557.19s-11.54,17.84-14.16,31.46c-2.62,13.61,340.75,0,340.75,0,0,0,.51-20.76-12.98-31.46-10.7-8.5-313.6,0-313.6,0h0Z"/><path class="cls-62" d="m1514.52,592.03s-6.89-16.91,3.72-34.38"/><path class="cls-62" d="m1560.6,557.66s-7.15,26.05,0,34.38"/><path class="cls-62" d="m1602.67,555.96s-6,22.32,0,36.07"/><line class="cls-62" x1="1648.8" y1="555.96" x2="1649.95" y2="592.03"/><path class="cls-32" d="m1690.28,555.96s6,23.21,3.13,34.08"/><path class="cls-62" d="m1728.08,555.96s13.19,13.19,8.03,34.08"/><path class="cls-62" d="m1778.78,555.96s14.88,10.87,4.57,31.5"/><path class="cls-42" d="m1493,553.39c-20.04,3.04,148.16-212.55,306.04-1.61l-306.04,1.61Z"/><ellipse class="cls-42" cx="1643.69" cy="456.09" rx="28.29" ry="8.5"/><ellipse class="cls-47" cx="1575.15" cy="677.86" rx="13.07" ry="8.08"/><ellipse class="cls-47" cx="1719.63" cy="678.12" rx="13.07" ry="8.08"/><ellipse class="cls-21" cx="1586.61" cy="659.26" rx="9.81" ry="13.32"/><ellipse class="cls-21" cx="1709.82" cy="659.56" rx="9.81" ry="13.32"/><ellipse class="cls-28" cx="1579.76" cy="660.78" rx="2.28" ry="6.68"/><ellipse class="cls-28" cx="1704.62" cy="660.78" rx="2.28" ry="6.68"/><path class="cls-33" d="m1631.81,743.53s.38.89,1.1,2.41c7.1,15.05,48.88,90.91,115.85-41.77,0,0-65.24,53.28-116.95,39.32v.04Z"/><path class="cls-31" d="m1642.97,761.84s58.98,5.83,90.53-30.19l11.2-22.71c5.54-2.37-57.63,47.23-110.44,36.28,0,0,2.2,5.58,8.67,16.62h.04Z"/><path class="cls-41" d="m1657.68,773.46s22.2-15.09,41.27-4.14c0,0-20.63,17.93-41.27,4.14Z"/><path class="cls-65" d="m1557.35,637.36s8.84-28.96,39.07,0"/><path class="cls-65" d="m1732.69,637.36s-7.61-26.51-38.48,1.94"/><path class="cls-31" d="m1477.69,859.29s.38,26.93,45.11,35.14c0,0,49.17-60.97,44.14-66.17,0,0-48.75,80.04-37.42,99.19,11.42,19.32,223.46,11.46,219.23,0-1.86-5.12,4.52-42.75-26.98-97.29,0,0,19.53,49.93,48.62,66.81,0,0,43.93-8.24,47.31-31.63,0,0-42.96-70.61-82.75-86-7.1,1.61-87.95,90.82-186.38-.21,0,0-69.38,52.34-70.95,80.21l.04-.04Z"/><path class="cls-44" d="m1483.06,850.5s6.38,22.71,44.35,34.97l5.2-7.1s-33.95-14.42-43.68-38.56l-5.88,10.74v-.04Z"/><path class="cls-44" d="m1496.72,830.33s24.23,29.64,47.4,33.57l6.72-10.66s-32.85-12.05-44.27-32.09l-9.85,9.18Z"/><path class="cls-44" d="m1518.03,806.27s14,26.13,39.62,32.51l6.68-10.27c.25-.38-20.13-8.12-34.67-32.01l-11.63,9.77h0Z"/><path class="cls-44" d="m1530.96,918.32s114.33,26.51,216.61-.47l-2.16-14.8s-116.53,23.26-211.71-1.01l-2.75,16.28Z"/><path class="cls-44" d="m1540.01,885.43s84.18,29.85,201.9-2.58l-3.47-12.26s-106.63,33.44-192.76-2.62l-5.62,17.46h-.04Z"/><path class="cls-44" d="m1538.49,789.99s93.27,112.05,205.36-3.55c0,0-4.82-6.77-8.46-4.27-52.89,36.28-101.77,69.6-187.9,0l-9.01,7.82h0Z"/><path class="cls-44" d="m1554.68,852.06s94.16,36.49,172.59-4.02l-6.68-17.89s-75.09,45.2-153.36,4.61l-12.52,17.34-.04-.04Z"/><path class="cls-44" d="m1763.09,889.23s23.55,1.52,47.65-30.27l-4.99-7.27s-24.86,27.27-50.87,28.46l8.2,9.09h0Z"/><path class="cls-44" d="m1746.9,869.74s36.4-11.92,48.41-32.13l-7.53-10.11s-26.6,25.16-49.43,28.58l8.5,13.61.04.04Z"/><path class="cls-44" d="m1730.49,846.74s31.33-15.81,38.81-41.14l-10.02-9.09c-.38-.3-8.96,21.78-33.4,35.26l4.61,15.01v-.04Z"/><path class="cls-45" d="m1535.45,940.26s96.23,18.1,207.6,0c0,0-4.19,41.56-29.72,39.28,0,0,.59,15.26-.21,24.73-1.48,16.79-32.68,16.28-49.77,13.07-3.85-.72-6.85-3.76-7.61-7.61-1.61-8.03-4.14-21.82-3.81-26.89,0,0-12.35,7.1-24.4-1.23,0,0-1.52,30.1-6.13,35.9-4.61,5.79-50.4-.13-53.99-7.27-2.28-4.57,1.9-35.31,1.9-35.31,0,0-23.21,4.65-33.83-34.63l-.04-.04Z"/><path class="cls-56" d="m1477.82,639.3s13.36,8.37,40.42,0c0,0,58.64-59.19,94.2-4.31,6.72,14.29,47.99,18.39,58.86-.21,10.19-17.34,72.56-42.75,83.59,11.16,0,0,25.92,10.23,53.99,0,0,0,3.34,8.63-.55,18.94,0,0-39.07,7.36-57.46.08,0,0-35.39,70.82-84.35-9.01-4.02-6.22-39.24-3.51-47.36,3.59-.21,0-49.68,85.71-95.35-3.59,0,0-25.5,13.07-46.13-.25,0,0-6.68-3.89.13-16.36v-.04Z"/></g></svg>